<svg xmlns="http://www.w3.org/2000/svg" viewBox="0 0 30 45" id="map-marker" data-source="custom">
  <style>
    .shadow {
      fill: #000000;
      fill-opacity: 0.04;
    }
    .border {
      fill: #000000;
      fill-opacity: 0.25;
    }
  </style>
  <g class="shadow">
    <ellipse cx="15" cy="38.667" rx="11.667" ry="5.833"/>
    <ellipse cx="15" cy="38.667" rx="11.667" ry="5.833"/>
    <ellipse cx="15" cy="38.667" rx="10.556" ry="5.303"/>
    <ellipse cx="15" cy="38.667" rx="9.444" ry="4.772"/>
    <ellipse cx="15" cy="38.667" rx="8.333" ry="4.242"/>
    <ellipse cx="15" cy="38.667" rx="7.222" ry="3.712"/>
    <ellipse cx="15" cy="38.667" rx="6.111" ry="3.182"/>
    <ellipse cx="15" cy="38.667" rx="5" ry="2.651"/>
  </g>
  <path d="M30 15c0 6.194-7.5 15-13.611 23.333-.815 1.111-1.963 1.111-2.778 0C7.5 30 0 21.359 0 15 0 6.716 6.716 0 15 0c8.284 0 15 6.716 15 15z"/>
  <path d="M15 0C6.716 0 0 6.716 0 15c0 6.359 7.5 15 13.611 23.333.833 1.137 1.963 1.111 2.778 0C22.5 30 30 21.194 30 15c0-8.284-6.716-15-15-15zm-.048 38.217a5.349 5.349 0 01-.444-.541c-3.069-4.185-6.67-8.459-9.197-12.412-2.529-3.952-4.2-7.598-4.2-10.264A13.873 13.873 0 0115 1.111h.09A13.873 13.873 0 0128.889 15c0 2.666-1.671 6.312-4.2 10.264-2.527 3.953-6.128 8.227-9.197 12.412a5.283 5.283 0 01-.492.592l-.048-.051z" class="border"/>
</svg>
