<svg xmlns="http://www.w3.org/2000/svg" xmlns:xlink="http://www.w3.org/1999/xlink" viewBox="0 0 290 216" width="290" height="216">
  <style>
    .dark-blue { fill: #144372; }
    .dark-grey { fill: #2e3436; }
    .blue { fill: #1f69b3; }
    .white { fill: white; }
    .grey { fill: #b6c8d0; }
    .orange { fill: #eb8705; }
    .red { fill: #f65c51; }
  </style>
  <symbol id="common--arrow-right" viewBox="0 0 28 48">
    <path d="M4 48a4 4 0 01-2.828-6.829L18.343 24 1.172 6.828a4 4 0 015.657-5.657l20 20a4 4 0 010 5.657l-20 20A3.989 3.989 0 014 48z"/>
  </symbol>
  <symbol id="common--close" viewBox="0 0 46 46">
    <path d="M28.657 23L44.83 6.828a4 4 0 0 0-5.657-5.657L23 17.343 6.83 1.17a4 4 0 0 0-5.657 5.657L17.342 23 1.173 39.17a4 4 0 0 0 5.657 5.657L23 28.657l16.172 16.171a4 4 0 0 0 5.657-5.657z"/>
  </symbol>
  <symbol id="common--download" viewBox="0 0 48 48">
    <path d="M7.879 33.121l14 14a2.999 2.999 0 0 0 4.242 0l14-14a3 3 0 1 0-4.242-4.242L27 37.758V12a3 3 0 0 0-6 0v25.758l-8.879-8.88a3 3 0 1 0-4.242 4.243z"/>
    <path d="M45.799 0H2.2A2.373 2.373 0 0 0 0 2.514v8.972A2.373 2.373 0 0 0 2.201 14H18v-2a6 6 0 0 1 12 0v2h15.799A2.373 2.373 0 0 0 48 11.486V2.514A2.373 2.373 0 0 0 45.799 0zM36 9a2 2 0 1 1 2-2 2 2 0 0 1-2 2zm7 0a2 2 0 1 1 2-2 2 2 0 0 1-2 2z"/>
  </symbol>
  <symbol id="common--external-link" viewBox="0 0 48 48">
    <path d="M35,20.65V42H6V18H22.09l9-9H4.2A2.2,2.2,0,0,0,2,11.2V43.8A2.2,2.2,0,0,0,4.2,46H36.8A2.2,2.2,0,0,0,39,43.8V16.65ZM12.5,12A1.5,1.5,0,1,1,11,13.5,1.5,1.5,0,0,1,12.5,12Zm-5,0A1.5,1.5,0,1,1,6,13.5,1.5,1.5,0,0,1,7.5,12Z"/>
    <path d="M44,2H23a2,2,0,0,0,0,4H39L16.51,28.52a2.1,2.1,0,0,0,3,3L42,9V25a2,2,0,0,0,4,0V4A2,2,0,0,0,44,2Z"/>
  </symbol>
  <symbol id="common--help" viewBox="0 0 28 48">
    <circle cx="14" cy="44" r="4"/>
    <path d="M28 14a14 14 0 0 0-28 0 4 4 0 0 0 8 0 6 6 0 1 1 6 6 4 4 0 0 0-4 4v9a4 4 0 0 0 8 0v-5.59A14.02 14.02 0 0 0 28 14z"/>
  </symbol>
  <symbol id="group-common" viewBox="0 0 48 240">
    <use xlink:href="#common--arrow-right" width="48" height="48"/>
    <use xlink:href="#common--close" width="48" height="48" y="48"/>
    <use xlink:href="#common--download" width="48" height="48" y="96"/>
    <use xlink:href="#common--external-link" width="48" height="48" y="144"/>
    <use xlink:href="#common--help" width="48" height="48" y="192"/>
  </symbol>
  <symbol id="group-common--8" viewBox="0 0 16 40">
    <use xlink:href="#group-common" width="8" height="40" class="dark-blue"/>
    <use xlink:href="#group-common" width="8" height="40" x="8" class="dark-grey"/>
  </symbol>
  <symbol id="group-common--12" viewBox="0 0 48 60">
    <use xlink:href="#group-common" width="12" height="60" class="blue"/>
    <use xlink:href="#group-common" width="12" height="60" x="12" class="dark-blue"/>
    <use xlink:href="#group-common" width="12" height="60" x="24" class="dark-grey"/>
    <use xlink:href="#group-common" width="12" height="60" x="36" class="white"/>
  </symbol>
  <symbol id="group-common--18" viewBox="0 0 54 90">
    <use xlink:href="#group-common" width="18" height="90" class="dark-blue"/>
    <use xlink:href="#group-common" width="18" height="90" x="18" class="dark-grey"/>
    <use xlink:href="#group-common" width="18" height="90" x="36" class="white"/>
  </symbol>
  <symbol id="content--infographic" viewBox="0 0 48 48">
    <path d="M10 24H2c-1.1 0-2 .9-2 2v18c0 1.1.9 2 2 2h8c1.1 0 2-.9 2-2V26c0-1.1-.9-2-2-2zM28 13h-7.9c-1.1 0-2 .9-2 2v29c0 1.1.9 2 2 2H28c1.1 0 2-.9 2-2V15c0-1.1-.9-2-2-2zM46 2h-8c-1.1 0-2 .9-2 2v40c0 1.1.9 2 2 2h8c1.1 0 2-.9 2-2V4c0-1.1-.9-2-2-2z"/>
  </symbol>
  <symbol id="content--interactive" viewBox="0 0 48 44.064">
    <path d="M2 8.017h4.317a6.007 6.007 0 0011.334 0H46a2 2 0 000-4H17.651a6.006 6.006 0 00-11.334 0H2a2 2 0 000 4zM11.984 4a2.016 2.016 0 11-2.016 2.017A2.018 2.018 0 0111.984 4zM46 36.049H25.683a6.006 6.006 0 00-11.334 0H2a2 2 0 000 4h12.349a6.007 6.007 0 0011.334 0H46a2 2 0 000-4zm-25.984 4.015a2.016 2.016 0 112.016-2.015 2.018 2.018 0 01-2.016 2.015zM46 20.032h-4.317a6.007 6.007 0 00-11.334 0H2a2 2 0 000 4h28.349a6.006 6.006 0 0011.334 0H46a2 2 0 000-4zm-9.984 4.017a2.016 2.016 0 112.016-2.017 2.018 2.018 0 01-2.016 2.017z"/>
  </symbol>
  <symbol id="content--job" viewBox="0 0 49 48">
    <path d="M8.38 33.8L1.2 40.98a4.116 4.116 0 0 0-1.199 2.904c0 2.258 1.857 4.115 4.115 4.115A4.116 4.116 0 0 0 7.02 46.8l7.18-7.18a24.01 24.01 0 0 1-5.82-5.82zM28 0C17.028 0 8 9.028 8 20s9.028 20 20 20 20-9.028 20-20v-.006C48 9.026 38.974 0 28.006 0H28zm11 30.18a15.008 15.008 0 0 1-11 4.802c-8.222 0-14.99-6.76-15-14.982v-.018c0-8.229 6.771-15 15-15s15 6.771 15 15c0 3.781-1.43 7.425-4 10.198z"/>
    <path d="M37.167 14.75h-4.584v-2.917A.839.839 0 0 0 31.75 11h-7.5a.839.839 0 0 0-.833.833v2.917h-4.584a.84.84 0 0 0-.833.833V27.25a.839.839 0 0 0 .833.833h18.334A.839.839 0 0 0 38 27.25V15.583a.84.84 0 0 0-.833-.833zM25.5 13.083h5v1.667h-5v-1.667z"/>
  </symbol>
  <symbol id="content--map" viewBox="0 0 48 48">
    <path d="M24 0C15.2 0 8 7.6 8 17c0 8 11.8 25.6 15.2 30.4.4.6 1.3.6 1.7 0C28.2 42.6 40 25 40 17c0-9.4-7.2-17-16-17zm0 23.9c-4.4 0-8-3.6-8-8s3.6-8 8-8 8 3.6 8 8-3.6 8-8 8z"/>
  </symbol>
  <symbol id="content--report" viewBox="0 0 32 44">
    <path d="M30 0H2a2.006 2.006 0 0 0-2 2v40a2.006 2.006 0 0 0 2 2h19v-7a3.999 3.999 0 0 1 4-4h7V2a2.006 2.006 0 0 0-2-2zm-4.5 28h-19a1.5 1.5 0 0 1 0-3h19a1.5 1.5 0 0 1 0 3zm0-8h-19a1.5 1.5 0 0 1 0-3h19a1.5 1.5 0 0 1 0 3zm0-8h-19a1.5 1.5 0 0 1 0-3h19a1.5 1.5 0 0 1 0 3z"/>
    <path d="M23 37v7l9-9h-7a2.006 2.006 0 0 0-2 2z"/>
  </symbol>
  <symbol id="content--training" viewBox="0 0 48 48">
    <circle cx="13" cy="4" r="4"/>
    <path d="M46 0H24a2 2 0 0 0-2 2v8h-9.024C5.578 10 0 15.16 0 22a2 2 0 0 0 4 0 7.453 7.453 0 0 1 4-6.75V29.1c0 .03.007.057.009.086-.002.03-.009.057-.009.087V46a2 2 0 0 0 4 0V31h2v15a2 2 0 0 0 4 0V29.273c0-.03-.007-.057-.009-.087.002-.029.009-.056.009-.086V14h4v7a2 2 0 0 0 2 2h22a2 2 0 0 0 2-2V2a2 2 0 0 0-2-2zM30 10h-4V4h18v15H26v-5h4a2 2 0 0 0 0-4z"/>
  </symbol>
  <symbol id="group-content" viewBox="0 0 48 288">
    <use xlink:href="#content--infographic" width="48" height="48"/>
    <use xlink:href="#content--interactive" width="48" height="48" y="48"/>
    <use xlink:href="#content--job" width="48" height="48" y="96"/>
    <use xlink:href="#content--map" width="48" height="48" y="144"/>
    <use xlink:href="#content--report" width="48" height="48" y="192"/>
    <use xlink:href="#content--training" width="48" height="48" y="240"/>
  </symbol>
  <symbol id="group-content--16" viewBox="0 0 16 96">
    <use xlink:href="#group-content" width="16" height="96" class="dark-grey"/>
  </symbol>
  <symbol id="group-content--24" viewBox="0 0 24 144">
    <use xlink:href="#group-content" width="24" height="144" class="grey"/>
  </symbol>
  <symbol id="group-content--36" viewBox="0 0 36 216">
    <use xlink:href="#group-content" width="36" height="216" class="dark-blue"/>
  </symbol>
  <symbol id="map-marker--marker" viewBox="0 0 30 45">
    <style xmlns:default="http://www.w3.org/2000/svg">
    .shadow {
      fill: #000000;
      fill-opacity: 0.00;
    }
    .border {
      fill: #000000;
      fill-opacity: 0.25;
    }
  </style>
    <g class="shadow">
      <ellipse cx="15" cy="38.667" rx="11.667" ry="5.833"/>
      <ellipse cx="15" cy="38.667" rx="11.667" ry="5.833"/>
      <ellipse cx="15" cy="38.667" rx="10.556" ry="5.303"/>
      <ellipse cx="15" cy="38.667" rx="9.444" ry="4.772"/>
      <ellipse cx="15" cy="38.667" rx="8.333" ry="4.242"/>
      <ellipse cx="15" cy="38.667" rx="7.222" ry="3.712"/>
      <ellipse cx="15" cy="38.667" rx="6.111" ry="3.182"/>
      <ellipse cx="15" cy="38.667" rx="5" ry="2.651"/>
    </g>
    <path d="M30 15c0 6.194-7.5 15-13.611 23.333-.815 1.111-1.963 1.111-2.778 0C7.5 30 0 21.359 0 15 0 6.716 6.716 0 15 0c8.284 0 15 6.716 15 15z"/>
    <path d="M15 0C6.716 0 0 6.716 0 15c0 6.359 7.5 15 13.611 23.333.833 1.137 1.963 1.111 2.778 0C22.5 30 30 21.194 30 15c0-8.284-6.716-15-15-15zm-.048 38.217a5.349 5.349 0 01-.444-.541c-3.069-4.185-6.67-8.459-9.197-12.412-2.529-3.952-4.2-7.598-4.2-10.264A13.873 13.873 0 0115 1.111h.09A13.873 13.873 0 0128.889 15c0 2.666-1.671 6.312-4.2 10.264-2.527 3.953-6.128 8.227-9.197 12.412a5.283 5.283 0 01-.492.592l-.048-.051z" class="border"/>
  </symbol>
  <symbol id="group-map-marker" viewBox="0 0 48 48">
    <use xlink:href="#map-marker--marker" width="48" height="48"/>
  </symbol>
  <symbol id="group-map-marker--24" viewBox="0 0 96 24">
    <use xlink:href="#group-map-marker" width="24" height="24" class="blue"/>
    <use xlink:href="#group-map-marker" width="24" height="24" x="24" class="grey"/>
    <use xlink:href="#group-map-marker" width="24" height="24" x="48" class="orange"/>
    <use xlink:href="#group-map-marker" width="24" height="24" x="72" class="red"/>
  </symbol>
  <use xlink:href="#group-common--8" width="16" height="40"/>
  <use xlink:href="#group-common--12" width="48" height="60" x="16"/>
  <use xlink:href="#group-common--18" width="54" height="90" x="64"/>
  <use xlink:href="#group-content--16" width="16" height="96" x="118"/>
  <use xlink:href="#group-content--24" width="24" height="144" x="134"/>
  <use xlink:href="#group-content--36" width="36" height="216" x="158"/>
  <use xlink:href="#group-map-marker--24" width="96" height="24" x="194"/>
</svg>