<svg xmlns="http://www.w3.org/2000/svg" xmlns:xlink="http://www.w3.org/1999/xlink" viewBox="0 0 956 640" width="956" height="640">
  <style>
    .dark-blue { fill: #055372; }
    .dark-red { fill: #eb1405; }
    .dark-grey { fill: #2e3436; }
    .white { fill: white; }
    .blue { fill: #0988bb; }
    .green { fill: #88bb09; }
    .orange { fill: #eb8705; }
    .red { fill: #f65c51; }
    .grey { fill: #b6c8d0; }
  </style>
  <symbol id="common--add" viewBox="0 0 48 48">
    <path d="M44 19.996h-.001L27.995 20l-.003-16a4 4 0 0 0-4-3.999 4 4 0 0 0-4 4.001l.003 16-15.996.003a4 4 0 0 0 .001 8h.001L19.997 28 20 44A4 4 0 0 0 24 48h.001A4 4 0 0 0 28 43.999l-.003-16L44 27.996a4 4 0 0 0-.001-8z"/>
  </symbol>
  <symbol id="common--admin" viewBox="0 0 48 48">
    <path d="M45 21h-1.25a19.867 19.867 0 0 0-3.668-8.84l.889-.888a3 3 0 1 0-4.242-4.243l-.89.889A19.868 19.868 0 0 0 27 4.25V3a3 3 0 0 0-6 0v1.25a19.868 19.868 0 0 0-8.84 3.668l-.888-.889a3 3 0 1 0-4.243 4.243l.889.889A19.867 19.867 0 0 0 4.25 21H3a3 3 0 0 0 0 6h1.25a19.867 19.867 0 0 0 3.668 8.84l-.889.888a3 3 0 0 0 4.242 4.243l.89-.889A19.868 19.868 0 0 0 21 43.75V45a3 3 0 0 0 6 0v-1.25a19.868 19.868 0 0 0 8.84-3.668l.888.889a3 3 0 1 0 4.243-4.243l-.889-.889A19.867 19.867 0 0 0 43.75 27H45a3 3 0 0 0 0-6zM24 38a14 14 0 1 1 14-14 14.016 14.016 0 0 1-14 14z"/>
  </symbol>
  <symbol id="common--arrow-left" viewBox="0 0 28 48">
    <path d="M24 48a3.989 3.989 0 01-2.828-1.172l-20-20a4 4 0 010-5.657l20-20a4 4 0 015.657 5.657L9.657 24 26.829 41.17A4 4 0 0124 48z"/>
  </symbol>
  <symbol id="common--arrow-right" viewBox="0 0 28 48">
    <path d="M4 48a4 4 0 01-2.828-6.829L18.343 24 1.172 6.828a4 4 0 015.657-5.657l20 20a4 4 0 010 5.657l-20 20A3.989 3.989 0 014 48z"/>
  </symbol>
  <symbol id="common--bookmark" viewBox="0 0 32 42">
    <path d="M30.316 41.728l-13.632-12.78a1 1 0 0 0-1.368 0L1.684 41.727A1 1 0 0 1 0 40.998V0h32v40.998a1 1 0 0 1-1.684.73z"/>
  </symbol>
  <symbol id="common--calendar" viewBox="0 0 42 48">
    <path d="M40 6h-5v2.5a3.5 3.5 0 01-7 0V6H15v2.5a3.5 3.5 0 01-7 0V6H2a1.993 1.993 0 00-2 2v38a1.993 1.993 0 002 2h38a1.993 1.993 0 002-2V8a1.993 1.993 0 00-2-2zm-2 38H4V18h34z"/>
    <path d="M11.5 10A1.498 1.498 0 0013 8.5v-7a1.5 1.5 0 00-3 0v7a1.498 1.498 0 001.5 1.5zm20 0A1.498 1.498 0 0033 8.5v-7a1.5 1.5 0 00-3 0v7a1.498 1.498 0 001.5 1.5zM18.74 30.52l-5.27 4.95a1.444 1.444 0 00-.47 1.06 1.46 1.46 0 00.47 1.06 1.685 1.685 0 002.26 0L21 32.64l5.27 4.95a1.7 1.7 0 001.14.44 1.632 1.632 0 001.12-.44 1.425 1.425 0 000-2.12l-5.27-4.95 5.27-4.95a1.46 1.46 0 00.47-1.06 1.444 1.444 0 00-.47-1.06 1.664 1.664 0 00-2.26 0L21 28.4l-5.27-4.96A1.628 1.628 0 0014.6 23a1.611 1.611 0 00-1.13.44 1.425 1.425 0 000 2.12z"/>
  </symbol>
  <symbol id="common--close" viewBox="0 0 46 46">
    <path d="M28.657 23L44.83 6.828a4 4 0 0 0-5.657-5.657L23 17.343 6.83 1.17a4 4 0 0 0-5.657 5.657L17.342 23 1.173 39.17a4 4 0 0 0 5.657 5.657L23 28.657l16.172 16.171a4 4 0 0 0 5.657-5.657z"/>
  </symbol>
  <symbol id="common--double-arrow-left" viewBox="0 0 48 48">
    <path d="M23.992 47.996a3.99 3.99 0 01-2.828-1.171l-20-20c-1.552-1.552-1.552-4.106 0-5.657l20-20A3.998 3.998 0 0123.988 0c2.195 0 4 1.806 4 4 0 1.059-.42 2.075-1.167 2.825L9.649 23.996l17.172 17.172a4 4 0 011.172 2.828c0 2.194-1.806 4-4 4h-.001zm20.008 0a3.99 3.99 0 01-2.829-1.171l-20-20c-1.552-1.552-1.552-4.106 0-5.657l20-20A4 4 0 0143.995 0c2.195 0 4.001 1.806 4.001 4a4 4 0 01-1.168 2.825L29.656 23.996l17.172 17.172A4 4 0 0148 43.996c0 2.194-1.806 4-4 4z"/>
  </symbol>
  <symbol id="common--double-arrow-right" viewBox="0 0 48 48">
    <path d="M4 47.996c-2.194 0-4-1.806-4-4a4 4 0 011.172-2.828l17.172-17.172L1.172 6.825A4 4 0 01.004 4c0-2.194 1.806-4 4.001-4a4 4 0 012.824 1.168l20 20c1.552 1.551 1.552 4.105 0 5.657l-20 20A3.99 3.99 0 014 47.996zm20.008 0h-.001c-2.194 0-4-1.806-4-4a4 4 0 011.172-2.828l17.172-17.172L21.179 6.825A4.004 4.004 0 0120.012 4c0-2.194 1.805-4 4-4 1.058 0 2.075.42 2.824 1.168l20 20c1.552 1.551 1.552 4.105 0 5.657l-20 20a3.99 3.99 0 01-2.828 1.171z"/>
  </symbol>
  <symbol id="common--download" viewBox="0 0 48 48">
    <path d="M7.879 33.121l14 14a2.999 2.999 0 0 0 4.242 0l14-14a3 3 0 1 0-4.242-4.242L27 37.758V12a3 3 0 0 0-6 0v25.758l-8.879-8.88a3 3 0 1 0-4.242 4.243z"/>
    <path d="M45.799 0H2.2A2.373 2.373 0 0 0 0 2.514v8.972A2.373 2.373 0 0 0 2.201 14H18v-2a6 6 0 0 1 12 0v2h15.799A2.373 2.373 0 0 0 48 11.486V2.514A2.373 2.373 0 0 0 45.799 0zM36 9a2 2 0 1 1 2-2 2 2 0 0 1-2 2zm7 0a2 2 0 1 1 2-2 2 2 0 0 1-2 2z"/>
  </symbol>
  <symbol id="common--email" viewBox="0 0 48 30">
    <path d="M46 0H2a2.006 2.006 0 0 0-2 2v26a2.006 2.006 0 0 0 2 2h44a2.006 2.006 0 0 0 2-2V2a2.006 2.006 0 0 0-2-2zM13.3 20.52l-7 6a2 2 0 0 1-2.6-3.04l7-6a2 2 0 0 1 2.6 3.04zm31.22 5.78a2 2 0 0 1-2.82.22l-7-6a2 2 0 0 1 2.6-3.04l7 6a1.998 1.998 0 0 1 .22 2.82zm-.33-19.69l-19 14a2.01 2.01 0 0 1-2.38 0l-19-14a2.002 2.002 0 1 1 2.38-3.22L24 16.52 41.81 3.39a2.002 2.002 0 1 1 2.38 3.22z"/>
  </symbol>
  <symbol id="common--external-link" viewBox="0 0 48 48">
    <path d="M35,20.65V42H6V18H22.09l9-9H4.2A2.2,2.2,0,0,0,2,11.2V43.8A2.2,2.2,0,0,0,4.2,46H36.8A2.2,2.2,0,0,0,39,43.8V16.65ZM12.5,12A1.5,1.5,0,1,1,11,13.5,1.5,1.5,0,0,1,12.5,12Zm-5,0A1.5,1.5,0,1,1,6,13.5,1.5,1.5,0,0,1,7.5,12Z"/>
    <path d="M44,2H23a2,2,0,0,0,0,4H39L16.51,28.52a2.1,2.1,0,0,0,3,3L42,9V25a2,2,0,0,0,4,0V4A2,2,0,0,0,44,2Z"/>
  </symbol>
  <symbol id="common--filter" viewBox="0 0 44 48">
    <path d="M41.796 0H2.204A2.2 2.2 0 00.65 3.756L18 22.19V48h8V22.19L43.351 3.756A2.2 2.2 0 0041.796 0z"/>
  </symbol>
  <symbol id="common--help" viewBox="0 0 28 48">
    <circle cx="14" cy="44" r="4"/>
    <path d="M28 14a14 14 0 0 0-28 0 4 4 0 0 0 8 0 6 6 0 1 1 6 6 4 4 0 0 0-4 4v9a4 4 0 0 0 8 0v-5.59A14.02 14.02 0 0 0 28 14z"/>
  </symbol>
  <symbol id="common--link" viewBox="0 0 46 47.97">
    <path d="M44.56 8.392L37.46 1.44a4.916 4.916 0 0 0-6.953 0L13.511 18.435a4.916 4.916 0 0 0 0 6.953l3.476 3.476a1.093 1.093 0 0 0 1.545 0l2.318-2.318a1.092 1.092 0 0 0 0-1.545l-3.09-3.09L33.982 5.69l6.18 6.18-6.952 6.952 1.446 1.445a8.14 8.14 0 0 1 1.88 2.953l8.024-7.874a4.916 4.916 0 0 0 0-6.953z"/>
    <path d="M28.862 19.108a1.092 1.092 0 0 0-1.545 0l-2.318 2.317a1.093 1.093 0 0 0 0 1.545l.772.773 2.318 2.317-9.27 9.27-6.953 6.953-3.09-3.09-3.09-3.09 6.953-6.953-.386-.386-.002-.001-1.057-1.059a8.135 8.135 0 0 1-1.882-2.952l-7.874 7.875a4.922 4.922 0 0 0 0 6.952l6.952 6.953a4.922 4.922 0 0 0 6.953 0l8.508-8.509 8.487-8.486a4.922 4.922 0 0 0 0-6.953z"/>
  </symbol>
  <symbol id="common--next" viewBox="0 0 48 36">
    <path d="M46.829 15.172l-14-14a4 4 0 0 0-5.658 5.656L34.343 14H4a4 4 0 0 0 0 8h30.343l-7.172 7.172a4 4 0 1 0 5.658 5.656l14-14a4 4 0 0 0 0-5.656z"/>
  </symbol>
  <symbol id="common--previous" viewBox="0 0 48 36">
    <path d="M44 14H13.657l7.172-7.172a4 4 0 0 0-5.657-5.656l-14 14a4 4 0 0 0 0 5.656l14 14a4 4 0 1 0 5.657-5.656L13.657 22H44a4 4 0 0 0 0-8z"/>
  </symbol>
  <symbol id="common--print" viewBox="0 0 48 42">
    <path d="M44 1c0-.552-.689-1-1.538-1H5.538C4.688 0 4 .448 4 1v3h40zM46 6H2a2.006 2.006 0 0 0-2 2v15.96a2.006 2.006 0 0 0 2 2h6v-9.97h32v9.97h6a2.006 2.006 0 0 0 2-2V8a2.006 2.006 0 0 0-2-2zm-15 7a2 2 0 1 1 2-2 2.006 2.006 0 0 1-2 2zm7 0a2 2 0 1 1 2-2 2.006 2.006 0 0 1-2 2z"/>
    <path d="M10 25.96V41a1.003 1.003 0 0 0 1 1h26a1.003 1.003 0 0 0 1-1V17.99H10zM34 35H14a1 1 0 0 1 0-2h20a1 1 0 0 1 0 2zm0-6H14a1 1 0 0 1 0-2h20a1 1 0 0 1 0 2z"/>
  </symbol>
  <symbol id="common--remove" viewBox="0 0 48 8.008">
    <path d="M4 8.008a4 4 0 0 1-.001-8l40-.008H44a4 4 0 0 1 .001 8l-40 .008z"/>
  </symbol>
  <symbol id="common--selected" viewBox="0 0 48 37">
    <path d="M19 37a3.999 3.999 0 0 1-3-1.354l-15-17a4 4 0 0 1 6-5.293l11.965 13.56L40.97 1.389a4 4 0 0 1 6.06 5.223l-25 29A4 4 0 0 1 19.023 37z"/>
  </symbol>
  <symbol id="common--user" viewBox="0 0 34 44">
    <path d="M19 23h-4A15 15 0 0 0 0 38v6h34v-6a15 15 0 0 0-15-15z"/>
    <circle cx="17" cy="10" r="10"/>
  </symbol>
  <symbol id="group-common" viewBox="0 0 48 1008">
    <use xlink:href="#common--add" width="48" height="48"/>
    <use xlink:href="#common--admin" width="48" height="48" y="48"/>
    <use xlink:href="#common--arrow-left" width="48" height="48" y="96"/>
    <use xlink:href="#common--arrow-right" width="48" height="48" y="144"/>
    <use xlink:href="#common--bookmark" width="48" height="48" y="192"/>
    <use xlink:href="#common--calendar" width="48" height="48" y="240"/>
    <use xlink:href="#common--close" width="48" height="48" y="288"/>
    <use xlink:href="#common--double-arrow-left" width="48" height="48" y="336"/>
    <use xlink:href="#common--double-arrow-right" width="48" height="48" y="384"/>
    <use xlink:href="#common--download" width="48" height="48" y="432"/>
    <use xlink:href="#common--email" width="48" height="48" y="480"/>
    <use xlink:href="#common--external-link" width="48" height="48" y="528"/>
    <use xlink:href="#common--filter" width="48" height="48" y="576"/>
    <use xlink:href="#common--help" width="48" height="48" y="624"/>
    <use xlink:href="#common--link" width="48" height="48" y="672"/>
    <use xlink:href="#common--next" width="48" height="48" y="720"/>
    <use xlink:href="#common--previous" width="48" height="48" y="768"/>
    <use xlink:href="#common--print" width="48" height="48" y="816"/>
    <use xlink:href="#common--remove" width="48" height="48" y="864"/>
    <use xlink:href="#common--selected" width="48" height="48" y="912"/>
    <use xlink:href="#common--user" width="48" height="48" y="960"/>
  </symbol>
  <symbol id="group-common--12" viewBox="0 0 48 252">
    <use xlink:href="#group-common" width="12" height="252" class="dark-blue"/>
    <use xlink:href="#group-common" width="12" height="252" x="12" class="dark-red"/>
    <use xlink:href="#group-common" width="12" height="252" x="24" class="dark-grey"/>
    <use xlink:href="#group-common" width="12" height="252" x="36" class="white"/>
  </symbol>
  <symbol id="group-common--18" viewBox="0 0 72 378">
    <use xlink:href="#group-common" width="18" height="378" class="dark-blue"/>
    <use xlink:href="#group-common" width="18" height="378" x="18" class="dark-red"/>
    <use xlink:href="#group-common" width="18" height="378" x="36" class="dark-grey"/>
    <use xlink:href="#group-common" width="18" height="378" x="54" class="white"/>
  </symbol>
  <symbol id="search--search" viewBox="0 0 48 48">
    <path d="M46.829 41.172L38.4 32.744a21.018 21.018 0 1 0-5.657 5.657l8.427 8.427a4 4 0 0 0 5.658-5.656zM8 21a13 13 0 1 1 22.325 9.046c-.05.045-.106.078-.154.126s-.08.104-.125.154A12.992 12.992 0 0 1 8 21z"/>
  </symbol>
  <symbol id="group-search" viewBox="0 0 48 48">
    <use xlink:href="#search--search" width="48" height="48"/>
  </symbol>
  <symbol id="group-search--18" viewBox="0 0 36 18">
    <use xlink:href="#group-search" width="18" height="18" class="dark-blue"/>
    <use xlink:href="#group-search" width="18" height="18" x="18" class="dark-red"/>
  </symbol>
  <symbol id="group-search--26" viewBox="0 0 26 26">
    <use xlink:href="#group-search" width="26" height="26" class="white"/>
  </symbol>
  <symbol id="toggle--down" viewBox="0 0 48 28">
    <path d="M48 4a3.989 3.989 0 0 1-1.172 2.829l-20 20a4 4 0 0 1-5.657 0l-20-20a4 4 0 0 1 5.657-5.657L24 18.343 41.17 1.172A4 4 0 0 1 48 4z"/>
  </symbol>
  <symbol id="toggle--up" viewBox="0 0 48 28">
    <path d="M0 24a3.989 3.989 0 0 1 1.171-2.828l20-20a4 4 0 0 1 5.658 0l20 20a4 4 0 1 1-5.658 5.657L24 9.657 6.829 26.829A4 4 0 0 1 0 24z"/>
  </symbol>
  <symbol id="group-toggle" viewBox="0 0 48 96">
    <use xlink:href="#toggle--down" width="48" height="48"/>
    <use xlink:href="#toggle--up" width="48" height="48" y="48"/>
  </symbol>
  <symbol id="group-toggle--9" viewBox="0 0 36 18">
    <use xlink:href="#group-toggle" width="9" height="18" class="dark-blue"/>
    <use xlink:href="#group-toggle" width="9" height="18" x="9" class="dark-red"/>
    <use xlink:href="#group-toggle" width="9" height="18" x="18" class="dark-grey"/>
    <use xlink:href="#group-toggle" width="9" height="18" x="27" class="white"/>
  </symbol>
  <symbol id="group-toggle--12" viewBox="0 0 12 24">
    <use xlink:href="#group-toggle" width="12" height="24" class="dark-blue"/>
  </symbol>
  <symbol id="group-toggle--18" viewBox="0 0 18 36">
    <use xlink:href="#group-toggle" width="18" height="36" class="white"/>
  </symbol>
  <symbol id="status--error" viewBox="0 0 44 44">
    <path d="M22 0a22 22 0 1 0 22 22A22 22 0 0 0 22 0zm10.12 27.88a3 3 0 0 1 0 4.24 2.994 2.994 0 0 1-4.24 0L22 26l-5.88 6.12a2.994 2.994 0 0 1-4.24 0 3 3 0 0 1 0-4.24L18 22l-6.12-5.88a2.998 2.998 0 0 1 4.24-4.24L22 18l5.88-6.12a2.998 2.998 0 0 1 4.24 4.24L26 22z"/>
  </symbol>
  <symbol id="status--info" viewBox="0 0 42 42">
    <path d="M38 0H4a4 4 0 0 0-4 4v34a4 4 0 0 0 4 4h34a4 4 0 0 0 4-4V4a4 4 0 0 0-4-4zM24 35h-4a2 2 0 0 1-2-2V18h4a2 2 0 0 1 2 2zm-3-22a3 3 0 1 1 3-3 3 3 0 0 1-3 3z"/>
  </symbol>
  <symbol id="status--ok" viewBox="0 0 44 44">
    <path d="M22 0a22 22 0 1 0 22 22A22 22 0 0 0 22 0zm14.15 16.09l-15.5 16a2.994 2.994 0 0 1-2.15.91h-.02a2.951 2.951 0 0 1-2.16-.94l-8.5-9a3 3 0 1 1 4.36-4.12l6.35 6.72 13.32-13.75a2.998 2.998 0 0 1 4.3 4.18z"/>
  </symbol>
  <symbol id="status--warning" viewBox="0 0 47.996 41.01">
    <path d="M47.668 37.41L27.118 1.8a3.604 3.604 0 0 0-6.24 0L.328 37.41a2.398 2.398 0 0 0 2.08 3.6h43.18a2.398 2.398 0 0 0 2.08-3.6zm-23.67-3.4a2 2 0 1 1 2-2 2.006 2.006 0 0 1-2 2zm2-9a2 2 0 0 1-4 0v-11a2 2 0 1 1 4 0z"/>
  </symbol>
  <symbol id="group-status" viewBox="0 0 48 192">
    <use xlink:href="#status--error" width="48" height="48"/>
    <use xlink:href="#status--info" width="48" height="48" y="48"/>
    <use xlink:href="#status--ok" width="48" height="48" y="96"/>
    <use xlink:href="#status--warning" width="48" height="48" y="144"/>
  </symbol>
  <symbol id="group-status--20" viewBox="0 0 80 80">
    <use xlink:href="#group-status" width="20" height="80" class="blue"/>
    <use xlink:href="#group-status" width="20" height="80" x="20" class="green"/>
    <use xlink:href="#group-status" width="20" height="80" x="40" class="orange"/>
    <use xlink:href="#group-status" width="20" height="80" x="60" class="red"/>
  </symbol>
  <symbol id="content--infographic" viewBox="0 0 48 48">
    <path d="M10 24H2c-1.1 0-2 .9-2 2v18c0 1.1.9 2 2 2h8c1.1 0 2-.9 2-2V26c0-1.1-.9-2-2-2zM28 13h-7.9c-1.1 0-2 .9-2 2v29c0 1.1.9 2 2 2H28c1.1 0 2-.9 2-2V15c0-1.1-.9-2-2-2zM46 2h-8c-1.1 0-2 .9-2 2v40c0 1.1.9 2 2 2h8c1.1 0 2-.9 2-2V4c0-1.1-.9-2-2-2z"/>
  </symbol>
  <symbol id="content--interactive" viewBox="0 0 48 44.064">
    <path d="M2 8.017h4.317a6.007 6.007 0 0011.334 0H46a2 2 0 000-4H17.651a6.006 6.006 0 00-11.334 0H2a2 2 0 000 4zM11.984 4a2.016 2.016 0 11-2.016 2.017A2.018 2.018 0 0111.984 4zM46 36.049H25.683a6.006 6.006 0 00-11.334 0H2a2 2 0 000 4h12.349a6.007 6.007 0 0011.334 0H46a2 2 0 000-4zm-25.984 4.015a2.016 2.016 0 112.016-2.015 2.018 2.018 0 01-2.016 2.015zM46 20.032h-4.317a6.007 6.007 0 00-11.334 0H2a2 2 0 000 4h28.349a6.006 6.006 0 0011.334 0H46a2 2 0 000-4zm-9.984 4.017a2.016 2.016 0 112.016-2.017 2.018 2.018 0 01-2.016 2.017z"/>
  </symbol>
  <symbol id="content--job" viewBox="0 0 49 48">
    <path d="M8.38 33.8L1.2 40.98a4.116 4.116 0 0 0-1.199 2.904c0 2.258 1.857 4.115 4.115 4.115A4.116 4.116 0 0 0 7.02 46.8l7.18-7.18a24.01 24.01 0 0 1-5.82-5.82zM28 0C17.028 0 8 9.028 8 20s9.028 20 20 20 20-9.028 20-20v-.006C48 9.026 38.974 0 28.006 0H28zm11 30.18a15.008 15.008 0 0 1-11 4.802c-8.222 0-14.99-6.76-15-14.982v-.018c0-8.229 6.771-15 15-15s15 6.771 15 15c0 3.781-1.43 7.425-4 10.198z"/>
    <path d="M37.167 14.75h-4.584v-2.917A.839.839 0 0 0 31.75 11h-7.5a.839.839 0 0 0-.833.833v2.917h-4.584a.84.84 0 0 0-.833.833V27.25a.839.839 0 0 0 .833.833h18.334A.839.839 0 0 0 38 27.25V15.583a.84.84 0 0 0-.833-.833zM25.5 13.083h5v1.667h-5v-1.667z"/>
  </symbol>
  <symbol id="content--map" viewBox="0 0 48 48">
    <path d="M24 0C15.2 0 8 7.6 8 17c0 8 11.8 25.6 15.2 30.4.4.6 1.3.6 1.7 0C28.2 42.6 40 25 40 17c0-9.4-7.2-17-16-17zm0 23.9c-4.4 0-8-3.6-8-8s3.6-8 8-8 8 3.6 8 8-3.6 8-8 8z"/>
  </symbol>
  <symbol id="content--report" viewBox="0 0 32 44">
    <path d="M30 0H2a2.006 2.006 0 0 0-2 2v40a2.006 2.006 0 0 0 2 2h19v-7a3.999 3.999 0 0 1 4-4h7V2a2.006 2.006 0 0 0-2-2zm-4.5 28h-19a1.5 1.5 0 0 1 0-3h19a1.5 1.5 0 0 1 0 3zm0-8h-19a1.5 1.5 0 0 1 0-3h19a1.5 1.5 0 0 1 0 3zm0-8h-19a1.5 1.5 0 0 1 0-3h19a1.5 1.5 0 0 1 0 3z"/>
    <path d="M23 37v7l9-9h-7a2.006 2.006 0 0 0-2 2z"/>
  </symbol>
  <symbol id="content--training" viewBox="0 0 48 48">
    <circle cx="13" cy="4" r="4"/>
    <path d="M46 0H24a2 2 0 0 0-2 2v8h-9.024C5.578 10 0 15.16 0 22a2 2 0 0 0 4 0 7.453 7.453 0 0 1 4-6.75V29.1c0 .03.007.057.009.086-.002.03-.009.057-.009.087V46a2 2 0 0 0 4 0V31h2v15a2 2 0 0 0 4 0V29.273c0-.03-.007-.057-.009-.087.002-.029.009-.056.009-.086V14h4v7a2 2 0 0 0 2 2h22a2 2 0 0 0 2-2V2a2 2 0 0 0-2-2zM30 10h-4V4h18v15H26v-5h4a2 2 0 0 0 0-4z"/>
  </symbol>
  <symbol id="group-content" viewBox="0 0 48 288">
    <use xlink:href="#content--infographic" width="48" height="48"/>
    <use xlink:href="#content--interactive" width="48" height="48" y="48"/>
    <use xlink:href="#content--job" width="48" height="48" y="96"/>
    <use xlink:href="#content--map" width="48" height="48" y="144"/>
    <use xlink:href="#content--report" width="48" height="48" y="192"/>
    <use xlink:href="#content--training" width="48" height="48" y="240"/>
  </symbol>
  <symbol id="group-content--16" viewBox="0 0 16 96">
    <use xlink:href="#group-content" width="16" height="96" class="dark-grey"/>
  </symbol>
  <symbol id="group-content--24" viewBox="0 0 24 144">
    <use xlink:href="#group-content" width="24" height="144" class="grey"/>
  </symbol>
  <symbol id="group-content--36" viewBox="0 0 36 216">
    <use xlink:href="#group-content" width="36" height="216" class="dark-blue"/>
  </symbol>
  <symbol id="disaster-type--AC" viewBox="0 0 48.001 43.003">
    <path d="M27.24 26.313a7.952 7.952 0 0 1-6.48 0l-7.62 12.82a.986.986 0 0 0 .4 1.39 23.383 23.383 0 0 0 20.92.02.986.986 0 0 0 .4-1.39zm-8.61-13.23L11.5.523a.983.983 0 0 0-1.39-.37A22.48 22.48 0 0 0 0 17.953a1.01 1.01 0 0 0 1.01 1.05H16a7.97 7.97 0 0 1 2.63-5.92zM37.87.153a1 1 0 0 0-1.39.36l-7.12 12.56a7.985 7.985 0 0 1 2.64 5.93h15a1.008 1.008 0 0 0 1-1.05A22.416 22.416 0 0 0 37.87.153zM22.526 23.778a4.849 4.849 0 0 0 1.475.225 5.108 5.108 0 0 0 1.462-.212 5.014 5.014 0 1 0-2.937-.013z"/>
  </symbol>
  <symbol id="disaster-type--AV" viewBox="0 0 48 48">
    <path d="M36.19 7.333a1.474 1.474 0 0 0 1.943.488l.867-.47V8.5a1.5 1.5 0 0 0 3 0V7.352l.867.47a1.474 1.474 0 0 0 1.942-.489 1.289 1.289 0 0 0-.52-1.821L43.343 5l.946-.512a1.289 1.289 0 0 0 .52-1.821 1.474 1.474 0 0 0-1.942-.488l-.867.47V1.5a1.5 1.5 0 0 0-3 0v1.148l-.867-.47a1.474 1.474 0 0 0-1.942.489 1.289 1.289 0 0 0 .52 1.821l.946.512-.946.512a1.289 1.289 0 0 0-.52 1.821zm11.42 12.373a4.233 4.233 0 0 0-2.396-2.39 4.648 4.648 0 0 0-3.47.01 1.37 1.37 0 0 0-.577 1.923 1.472 1.472 0 0 0 1.705.733 2.274 2.274 0 0 1 1.196.107 1.406 1.406 0 0 1 .771.764 2.235 2.235 0 0 1-1.249 2.892 3.21 3.21 0 0 1-2.477.01 3.097 3.097 0 0 1-1.692-1.72L32.854 7.856a1.5 1.5 0 1 0-2.709 1.288l6.536 14.108a6.017 6.017 0 0 0 3.287 3.276 6.184 6.184 0 0 0 2.365.472 6.274 6.274 0 0 0 2.41-.486 5.239 5.239 0 0 0 2.868-6.808zM21.05 7.33a2.245 2.245 0 0 0-4.1 0L.196 44.84A2.246 2.246 0 0 0 2.256 48h33.488a2.25 2.25 0 0 0 2.06-3.17zM15 22l4-9 4 9z"/>
  </symbol>
  <symbol id="disaster-type--CW" viewBox="0 0 34 48">
    <path d="M16 6.5a6.5 6.5 0 0 0-13 0v25.077A9.498 9.498 0 1 0 19 38.5a9.45 9.45 0 0 0-3-6.923zM9.5 45a6.496 6.496 0 0 1-4.061-11.57L6 32.98V6.5a3.5 3.5 0 0 1 7 0v26.48l.561.45A6.496 6.496 0 0 1 9.5 45z"/>
    <path d="M11 34.797V25.5a1.5 1.5 0 0 0-3 0v9.297a4 4 0 1 0 3 0zM32.5 10h-12a1.5 1.5 0 0 0 0 3h12a1.5 1.5 0 0 0 0-3z"/>
  </symbol>
  <symbol id="disaster-type--DR" viewBox="0 0 48 48">
    <path d="M45.5 43H35V19.954A4.038 4.038 0 0 1 39.046 16 3.958 3.958 0 0 1 43 19.954c0 .016.004.03.005.046H43v.688a3.491 3.491 0 0 0-2 3.15c0 1.75 2.867 5.435 3.412 6.119a.112.112 0 0 0 .177 0c.544-.684 3.411-4.369 3.411-6.118a3.491 3.491 0 0 0-2-3.15V20h-.005c0-.016.005-.03.005-.046A6.962 6.962 0 0 0 39.046 13 7.04 7.04 0 0 0 32 19.954V25h-2.5a4.066 4.066 0 0 0-.5.03A5.534 5.534 0 0 0 24.03 30a4.066 4.066 0 0 0-.03.5v1.188a3.491 3.491 0 0 0-2 3.15c0 1.75 2.867 5.435 3.412 6.119a.112.112 0 0 0 .177 0c.544-.684 3.411-4.369 3.411-6.118a3.491 3.491 0 0 0-2-3.15V30.5a2.5 2.5 0 0 1 2.5-2.5H32v15H2.5a2.5 2.5 0 0 0 0 5h43a2.5 2.5 0 0 0 0-5zm-33-37A1.5 1.5 0 0 0 14 4.5v-3a1.5 1.5 0 0 0-3 0v3A1.5 1.5 0 0 0 12.5 6zM11 20.5v3a1.5 1.5 0 0 0 3 0v-3a1.5 1.5 0 0 0-3 0zm8.218-12.596l2.12-2.122a1.5 1.5 0 1 0-2.12-2.12l-2.122 2.12a1.5 1.5 0 0 0 2.122 2.122zM5.782 17.096l-2.12 2.122a1.5 1.5 0 0 0 2.12 2.12l2.122-2.12a1.5 1.5 0 0 0-2.122-2.122zM19 12.5a1.5 1.5 0 0 0 1.5 1.5h3a1.5 1.5 0 0 0 0-3h-3a1.5 1.5 0 0 0-1.5 1.5zM1.5 14h3a1.5 1.5 0 0 0 0-3h-3a1.5 1.5 0 0 0 0 3zm15.596 3.096a1.5 1.5 0 0 0 0 2.122l2.122 2.12a1.5 1.5 0 0 0 2.12-2.12l-2.12-2.122a1.5 1.5 0 0 0-2.122 0zM5.782 7.904a1.5 1.5 0 0 0 2.122-2.122l-2.122-2.12a1.5 1.5 0 0 0-2.12 2.12z"/>
    <circle cx="12.5" cy="12.5" r="4.5"/>
  </symbol>
  <symbol id="disaster-type--EC" viewBox="0 0 48.019 47.996">
    <path d="M47.628 24.278l-.04-.07a2.972 2.972 0 0 0-4.04-1.09l-4.64 2.68a14.824 14.824 0 0 0-1.78-9.08 1.518 1.518 0 0 0-.09-.18l-.03-.04-8.67-15.02a2.957 2.957 0 0 0-4.04-1.08l-.08.04a2.975 2.975 0 0 0-1.08 4.04l2.67 4.63a14.89 14.89 0 0 0-9.25 1.88l-.11.06-14.97 8.65a2.957 2.957 0 0 0-1.08 4.04l.04.07a2.957 2.957 0 0 0 4.04 1.08l4.65-2.68a14.919 14.919 0 0 0 1.85 9.19.212.212 0 0 0 .03.07l.02.03 8.67 15.02a2.96 2.96 0 0 0 4.04 1.08l.08-.04a2.966 2.966 0 0 0 1.08-4.04l-2.67-4.63a14.742 14.742 0 0 0 8.91-1.7 2.904 2.904 0 0 0 .35-.18l.03-.02 15.03-8.67a2.975 2.975 0 0 0 1.08-4.04zm-31.4 4.22c-.01-.01-.01-.02-.02-.03a8.996 8.996 0 0 1 3.24-12.22c.02-.01.05-.03.07-.04s.03-.02.05-.03a9.003 9.003 0 0 1 12.21 3.25c.01.02.03.05.04.07s.02.03.03.05a9.012 9.012 0 0 1-3.33 12.25c-.01.01-.02.01-.03.02a9 9 0 0 1-12.26-3.32z"/>
  </symbol>
  <symbol id="disaster-type--EP" viewBox="0 0 48 42">
    <path d="M48 29.493V29h-.05.05v.01V29a12.99 12.99 0 0 0-12.466-12.973c-.032-.062-.058-.127-.091-.189A12.524 12.524 0 0 0 33.54 1.116l.001-.001-.39-.399-.002.002a2.412 2.412 0 0 0-3.447.013 2.536 2.536 0 0 0-.013 3.519l-.002.002.362.369A7.013 7.013 0 0 1 32 10a8.688 8.688 0 0 1-.23 1.603 12.9 12.9 0 0 0-15.538-.002A8.655 8.655 0 0 1 16 10a6.995 6.995 0 0 1 1.95-5.373l-.042-.042.042.043.347-.367-.001-.001A2.536 2.536 0 0 0 18.29.732a2.413 2.413 0 0 0-3.456-.006l-.002.001-.006.005-.005.006-.34.348.034.035-.035-.035.007-.007-.007.007a12.513 12.513 0 0 0-1.92 14.744c-.035.064-.062.132-.095.197A12.99 12.99 0 0 0 0 29v.01V29h.05H0v.51h.001a2.499 2.499 0 0 0 4.998 0h.002L5.01 29h-.06.06a7.997 7.997 0 0 1 6.027-7.737c-.014.245-.037.488-.037.737a13.013 13.013 0 0 0 8.18 12.063A7.974 7.974 0 0 1 13 37h-.521v.002a2.498 2.498 0 0 0 0 4.996V42h.563v-.002A12.977 12.977 0 0 0 24 35.906a12.977 12.977 0 0 0 10.958 6.092V42h.563v-.002a2.498 2.498 0 0 0 0-4.996V37H35a7.974 7.974 0 0 1-6.18-2.937A13.013 13.013 0 0 0 37 22c0-.249-.023-.492-.037-.737A7.997 7.997 0 0 1 42.99 29h.06-.061l.01.51H43a2.499 2.499 0 0 0 4.998 0v-.003L48 29.5zM24 13a8.953 8.953 0 0 1 5.913 2.232c-.121.14-.24.283-.373.418a7.694 7.694 0 0 1-11.07 0c-.134-.136-.255-.28-.378-.423A8.953 8.953 0 0 1 24 13zm-9 9c0-.242.018-.48.036-.718a7.94 7.94 0 0 1 5.82 9.14A9.007 9.007 0 0 1 15 22zm12.143 8.422a7.94 7.94 0 0 1 5.82-9.14c.02.238.037.476.037.718a9.007 9.007 0 0 1-5.857 8.422z"/>
  </symbol>
  <symbol id="disaster-type--EQ" viewBox="0 0 40 48">
    <path d="M39.57 18.04L20.69.27a1.017 1.017 0 0 0-1.38 0L.43 18.04a1.31 1.31 0 0 0-.43.98V47a1.003 1.003 0 0 0 1 1h13.18l8.91-8.92-8.43-7.59a1.994 1.994 0 0 1-.66-1.51 2.015 2.015 0 0 1 .7-1.5l5.36-4.59-3.47-3.48a1.974 1.974 0 0 1 0-2.82l4-4a1.994 1.994 0 0 1 2.82 2.82L20.83 19l3.58 3.59a1.974 1.974 0 0 1 .59 1.49 2.013 2.013 0 0 1-.7 1.44l-5.27 4.52 8.31 7.47a1.995 1.995 0 0 1 .07 2.9L19.82 48H39a1.003 1.003 0 0 0 1-1V19.02a1.31 1.31 0 0 0-.43-.98z"/>
  </symbol>
  <symbol id="disaster-type--FF" viewBox="0 0 48 48">
    <path d="M1.5 9h11.379l-3.44 3.44a1.5 1.5 0 1 0 2.122 2.12l6-6a1.5 1.5 0 0 0 0-2.12l-6-6a1.5 1.5 0 1 0-2.122 2.12L12.88 6H1.5a1.5 1.5 0 0 0 0 3zm46.32 3L33.16.06a.243.243 0 0 0-.32 0L18.18 12a.528.528 0 0 0-.18.38v17.71a8.734 8.734 0 0 1 3.29 1.15A4.637 4.637 0 0 0 24 32a4.626 4.626 0 0 0 2.7-.76A8.644 8.644 0 0 1 31.33 30a8.603 8.603 0 0 1 4.62 1.24 5.23 5.23 0 0 0 5.43 0A8.603 8.603 0 0 1 46 30a9.43 9.43 0 0 1 2 .2V12.38a.528.528 0 0 0-.18-.38zM46 42a8.603 8.603 0 0 0-4.62 1.24 5.23 5.23 0 0 1-5.43 0A8.603 8.603 0 0 0 31.33 42a8.644 8.644 0 0 0-4.63 1.24A4.626 4.626 0 0 1 24 44a4.637 4.637 0 0 1-2.71-.76A8.673 8.673 0 0 0 16.66 42a8.603 8.603 0 0 0-4.62 1.24 4.684 4.684 0 0 1-2.71.76 4.684 4.684 0 0 1-2.71-.76A8.603 8.603 0 0 0 2 42a2 2 0 0 0 0 4 4.683 4.683 0 0 1 2.71.76A8.604 8.604 0 0 0 9.33 48a8.603 8.603 0 0 0 4.62-1.24 4.684 4.684 0 0 1 2.71-.76 4.66 4.66 0 0 1 2.71.76A8.644 8.644 0 0 0 24 48a8.632 8.632 0 0 0 4.62-1.24 5.212 5.212 0 0 1 5.42 0 9.245 9.245 0 0 0 9.25 0A4.66 4.66 0 0 1 46 46a2 2 0 0 0 0-4zm0-8a8.59 8.59 0 0 0-4.625 1.244 5.241 5.241 0 0 1-5.423 0A8.59 8.59 0 0 0 31.326 34a8.581 8.581 0 0 0-4.623 1.244 4.692 4.692 0 0 1-2.708.756 4.696 4.696 0 0 1-2.709-.756A8.59 8.59 0 0 0 16.661 34a8.588 8.588 0 0 0-4.624 1.244A4.692 4.692 0 0 1 9.33 36a4.69 4.69 0 0 1-2.706-.755A8.577 8.577 0 0 0 2 34a2 2 0 0 0 0 4 4.691 4.691 0 0 1 2.707.756A8.58 8.58 0 0 0 9.329 40a8.588 8.588 0 0 0 4.624-1.244A4.692 4.692 0 0 1 16.661 38a4.696 4.696 0 0 1 2.71.756A8.59 8.59 0 0 0 23.994 40a8.583 8.583 0 0 0 4.624-1.245 5.236 5.236 0 0 1 5.42 0 9.22 9.22 0 0 0 9.25 0A4.702 4.702 0 0 1 46 38a2 2 0 0 0 0-4z"/>
  </symbol>
  <symbol id="disaster-type--FL" viewBox="0 0 48 48">
    <path d="M47.82 12L33.16.06a.243.243 0 0 0-.32 0L18.18 12a.528.528 0 0 0-.18.38v17.71a8.734 8.734 0 0 1 3.29 1.15A4.637 4.637 0 0 0 24 32a4.626 4.626 0 0 0 2.7-.76A8.644 8.644 0 0 1 31.33 30a8.603 8.603 0 0 1 4.62 1.24 5.23 5.23 0 0 0 5.43 0A8.603 8.603 0 0 1 46 30a9.43 9.43 0 0 1 2 .2V12.38a.528.528 0 0 0-.18-.38zM46 42a8.603 8.603 0 0 0-4.62 1.24 5.23 5.23 0 0 1-5.43 0A8.603 8.603 0 0 0 31.33 42a8.644 8.644 0 0 0-4.63 1.24A4.626 4.626 0 0 1 24 44a4.637 4.637 0 0 1-2.71-.76A8.673 8.673 0 0 0 16.66 42a8.603 8.603 0 0 0-4.62 1.24 4.684 4.684 0 0 1-2.71.76 4.684 4.684 0 0 1-2.71-.76A8.603 8.603 0 0 0 2 42a2 2 0 0 0 0 4 4.683 4.683 0 0 1 2.71.76A8.604 8.604 0 0 0 9.33 48a8.603 8.603 0 0 0 4.62-1.24 4.684 4.684 0 0 1 2.71-.76 4.66 4.66 0 0 1 2.71.76A8.644 8.644 0 0 0 24 48a8.632 8.632 0 0 0 4.62-1.24 5.212 5.212 0 0 1 5.42 0 9.245 9.245 0 0 0 9.25 0A4.66 4.66 0 0 1 46 46a2 2 0 0 0 0-4zm0-8a8.59 8.59 0 0 0-4.625 1.244 5.241 5.241 0 0 1-5.423 0A8.59 8.59 0 0 0 31.326 34a8.581 8.581 0 0 0-4.623 1.244 4.692 4.692 0 0 1-2.708.756 4.696 4.696 0 0 1-2.709-.756A8.59 8.59 0 0 0 16.661 34a8.588 8.588 0 0 0-4.624 1.244A4.692 4.692 0 0 1 9.33 36a4.69 4.69 0 0 1-2.706-.755A8.577 8.577 0 0 0 2 34a2 2 0 0 0 0 4 4.691 4.691 0 0 1 2.707.756A8.58 8.58 0 0 0 9.329 40a8.588 8.588 0 0 0 4.624-1.244A4.692 4.692 0 0 1 16.661 38a4.696 4.696 0 0 1 2.71.756A8.59 8.59 0 0 0 23.994 40a8.583 8.583 0 0 0 4.624-1.245 5.236 5.236 0 0 1 5.42 0 9.22 9.22 0 0 0 9.25 0A4.702 4.702 0 0 1 46 38a2 2 0 0 0 0-4z"/>
  </symbol>
  <symbol id="disaster-type--FR" viewBox="0 0 34 48">
    <path d="M17.43.21a.545.545 0 0 0-.86 0C13.93 3.53 0 22.46 0 30.97a17 17 0 1 0 34 0C34 22.46 20.07 3.53 17.43.21zM17 43a7.985 7.985 0 0 1-8-7.97c0-3.98 6.55-12.38 7.8-13.93a.254.254 0 0 1 .4 0c1.24 1.55 7.8 9.95 7.8 13.93A7.985 7.985 0 0 1 17 43z"/>
  </symbol>
  <symbol id="disaster-type--HT" viewBox="0 0 34 48">
    <path d="M16 6.5a6.5 6.5 0 0 0-13 0v25.077A9.498 9.498 0 1 0 19 38.5a9.45 9.45 0 0 0-3-6.923zM9.5 45a6.496 6.496 0 0 1-4.061-11.57L6 32.98V6.5a3.5 3.5 0 0 1 7 0v26.48l.561.45A6.496 6.496 0 0 1 9.5 45z"/>
    <path d="M11 34.797V8.5a1.5 1.5 0 0 0-3 0v26.297a4 4 0 1 0 3 0zM32.5 10H28V5.5a1.5 1.5 0 1 0-3 0V10h-4.5a1.5 1.5 0 0 0 0 3H25v4.5a1.5 1.5 0 0 0 3 0V13h4.5a1.5 1.5 0 0 0 0-3z"/>
  </symbol>
  <symbol id="disaster-type--IN" viewBox="0 0 47.992 47.989">
    <path d="M19.747 21.1l1.306 4.784a1.5 1.5 0 0 0 2.895-.79l-1.5-5.49a1.501 1.501 0 0 0-.866-.987L17 16.693v-3.531l3.722-2.047a1.502 1.502 0 0 0 .76-1.09l.5-3.3a1.5 1.5 0 0 0-2.966-.45l-.389 2.568-2.062 1.134a4.998 4.998 0 0 0-1.087-1.56l3.342-6.206A1.5 1.5 0 1 0 16.18.789l-3.388 6.29A4.973 4.973 0 0 0 12 7a4.972 4.972 0 0 0-.793.08L7.821.789A1.5 1.5 0 1 0 5.18 2.21l3.341 6.206a5.002 5.002 0 0 0-1.087 1.56L5.373 8.843l-.39-2.568a1.5 1.5 0 0 0-2.966.45l.5 3.3a1.502 1.502 0 0 0 .76 1.09l3.724 2.047v3.531l-4.582 1.924a1.501 1.501 0 0 0-.866.987l-1.5 5.49a1.5 1.5 0 1 0 2.895.79L4.254 21.1l2.747-1.153V20a5 5 0 1 0 10 0v-.053zm27.681 6.762a1.5 1.5 0 0 0-2.108.236l-1.621 2.029-2.353-.049a4.999 4.999 0 0 0-.161-1.893l5.997-3.705a1.5 1.5 0 0 0-1.576-2.552l-6.08 3.754a3.973 3.973 0 0 0-1.372-.792l.213-7.142a1.5 1.5 0 1 0-2.998-.089l-.21 7.046a5 5 0 0 0-1.72.808l-1.22-2.014.947-2.418a1.5 1.5 0 1 0-2.793-1.094l-1.217 3.108a1.497 1.497 0 0 0 .113 1.324l2.2 3.634-1.765 3.058-4.93-.624a1.5 1.5 0 0 0-1.243.423l-4.05 4.013a1.5 1.5 0 1 0 2.112 2.131l3.53-3.499 2.954.374-.027.046a5 5 0 0 0 1.83 6.83 5 5 0 0 0 6.83-1.83l.027-.046 1.8 2.372-1.263 4.806a1.5 1.5 0 1 0 2.9.763l1.45-5.513a1.496 1.496 0 0 0-.255-1.289l-3.005-3.957 1.766-3.058 4.247.088h.032a1.5 1.5 0 0 0 1.172-.563l2.083-2.608a1.5 1.5 0 0 0-.236-2.108z"/>
  </symbol>
  <symbol id="disaster-type--LS" viewBox="0 0 48 48">
    <path d="M47.61 19.706a4.233 4.233 0 0 0-2.396-2.39 4.648 4.648 0 0 0-3.47.01 1.37 1.37 0 0 0-.577 1.923 1.472 1.472 0 0 0 1.705.733 2.274 2.274 0 0 1 1.196.107 1.406 1.406 0 0 1 .771.764 2.235 2.235 0 0 1-1.249 2.892 3.21 3.21 0 0 1-2.477.01 3.097 3.097 0 0 1-1.692-1.72L32.854 7.856a1.5 1.5 0 1 0-2.709 1.288l6.536 14.108a6.017 6.017 0 0 0 3.287 3.276 6.184 6.184 0 0 0 2.365.472 6.274 6.274 0 0 0 2.41-.486 5.239 5.239 0 0 0 2.868-6.808zM21.05 7.33a2.245 2.245 0 0 0-4.1 0L.196 44.84A2.246 2.246 0 0 0 2.256 48h33.488a2.25 2.25 0 0 0 2.06-3.17zm16.092 2.184A1 1 0 0 0 38 10h5a1 1 0 0 0 .857-.486l2-4a1 1 0 0 0 0-1.028l-2-4A1 1 0 0 0 43 0h-5a1 1 0 0 0-.857.486l-2 4a1 1 0 0 0 0 1.028z"/>
  </symbol>
  <symbol id="disaster-type--MS" viewBox="0 0 48 48">
    <path d="M47.61 19.706a4.233 4.233 0 0 0-2.396-2.39 4.648 4.648 0 0 0-3.47.01 1.37 1.37 0 0 0-.577 1.923 1.472 1.472 0 0 0 1.705.733 2.274 2.274 0 0 1 1.196.107 1.406 1.406 0 0 1 .771.764 2.235 2.235 0 0 1-1.249 2.892 3.21 3.21 0 0 1-2.477.01 3.097 3.097 0 0 1-1.692-1.72L32.854 7.856a1.5 1.5 0 1 0-2.709 1.288l6.536 14.108a6.017 6.017 0 0 0 3.287 3.276 6.184 6.184 0 0 0 2.365.472 6.274 6.274 0 0 0 2.41-.486 5.239 5.239 0 0 0 2.868-6.808zM21.05 7.33a2.245 2.245 0 0 0-4.1 0L.196 44.84A2.246 2.246 0 0 0 2.256 48h33.488a2.25 2.25 0 0 0 2.06-3.17zm16.092 2.184A1 1 0 0 0 38 10h5a1 1 0 0 0 .857-.486l2-4a1 1 0 0 0 0-1.028l-2-4A1 1 0 0 0 43 0h-5a1 1 0 0 0-.857.486l-2 4a1 1 0 0 0 0 1.028z"/>
  </symbol>
  <symbol id="disaster-type--SS" viewBox="0 0 48 48">
    <path d="M46 42a8.603 8.603 0 0 0-4.62 1.24 5.23 5.23 0 0 1-5.43 0A8.603 8.603 0 0 0 31.33 42a8.644 8.644 0 0 0-4.63 1.24A4.626 4.626 0 0 1 24 44a4.637 4.637 0 0 1-2.71-.76A8.673 8.673 0 0 0 16.66 42a8.603 8.603 0 0 0-4.62 1.24 4.683 4.683 0 0 1-2.71.76 4.684 4.684 0 0 1-2.71-.76A8.603 8.603 0 0 0 2 42a2 2 0 0 0 0 4 4.684 4.684 0 0 1 2.71.76A8.603 8.603 0 0 0 9.33 48a8.603 8.603 0 0 0 4.62-1.24 4.684 4.684 0 0 1 2.71-.76 4.66 4.66 0 0 1 2.71.76A8.644 8.644 0 0 0 24 48a8.632 8.632 0 0 0 4.62-1.24 5.212 5.212 0 0 1 5.42 0 9.245 9.245 0 0 0 9.25 0A4.66 4.66 0 0 1 46 46a2 2 0 0 0 0-4zm0-8a8.603 8.603 0 0 0-4.62 1.24 5.23 5.23 0 0 1-5.43 0A8.603 8.603 0 0 0 31.33 34a8.644 8.644 0 0 0-4.63 1.24A4.626 4.626 0 0 1 24 36a4.637 4.637 0 0 1-2.71-.76A8.673 8.673 0 0 0 16.66 34a8.603 8.603 0 0 0-4.62 1.24 4.683 4.683 0 0 1-2.71.76 4.684 4.684 0 0 1-2.71-.76A8.603 8.603 0 0 0 2 34a2 2 0 0 0 0 4 4.684 4.684 0 0 1 2.71.76A8.603 8.603 0 0 0 9.33 40a8.603 8.603 0 0 0 4.62-1.24 4.684 4.684 0 0 1 2.71-.76 4.66 4.66 0 0 1 2.71.76A8.644 8.644 0 0 0 24 40a8.632 8.632 0 0 0 4.62-1.24 5.212 5.212 0 0 1 5.42 0 9.245 9.245 0 0 0 9.25 0A4.66 4.66 0 0 1 46 38a2 2 0 0 0 0-4zM8 22h28.5a7.516 7.516 0 0 0 7.33-5.9 7.625 7.625 0 0 0 .17-1.6A7.503 7.503 0 0 0 36.5 7a7.378 7.378 0 0 0-2.71.51l-.002.001a9.497 9.497 0 0 0-18.784 1.913A4.99 4.99 0 0 0 8 14a4 4 0 0 0 0 8zm2.988 2.518l-3.464 3.464a1.768 1.768 0 0 0 2.5 2.5l3.464-3.464a1.768 1.768 0 0 0-2.5-2.5zm11.998 0l-3.465 3.464a1.768 1.768 0 0 0 2.5 2.5l3.465-3.464a1.768 1.768 0 0 0-2.5-2.5zm11.996 0l-3.464 3.464a1.768 1.768 0 0 0 2.5 2.5l3.464-3.464a1.768 1.768 0 0 0-2.5-2.5z"/>
  </symbol>
  <symbol id="disaster-type--ST" viewBox="0 0 47.98 48">
    <path d="M38.98 9.01a8.732 8.732 0 0 0-3.16.58l-.01.005a11.49 11.49 0 0 0-22.823 1.757 5.977 5.977 0 0 0-7.91 6.69l-.007-.002a3.81 3.81 0 0 0-.59-.04 4.5 4.5 0 0 0 0 9h34.5a9.003 9.003 0 0 0 8.83-7.24 9.297 9.297 0 0 0 .17-1.76 8.992 8.992 0 0 0-9-8.99zM28.48 37h-6.293l3.565-5.705a1.5 1.5 0 1 0-2.544-1.59l-5 8A1.5 1.5 0 0 0 19.48 40h6.293l-3.565 5.705a1.5 1.5 0 1 0 2.544 1.59l5-8A1.5 1.5 0 0 0 28.48 37z"/>
  </symbol>
  <symbol id="disaster-type--TC" viewBox="0 0 48.019 47.996">
    <path d="M47.628 24.278l-.04-.07a2.972 2.972 0 0 0-4.04-1.09l-4.64 2.68a14.824 14.824 0 0 0-1.78-9.08 1.518 1.518 0 0 0-.09-.18l-.03-.04-8.67-15.02a2.957 2.957 0 0 0-4.04-1.08l-.08.04a2.975 2.975 0 0 0-1.08 4.04l2.67 4.63a14.89 14.89 0 0 0-9.25 1.88l-.11.06-14.97 8.65a2.957 2.957 0 0 0-1.08 4.04l.04.07a2.957 2.957 0 0 0 4.04 1.08l4.65-2.68a14.919 14.919 0 0 0 1.85 9.19.212.212 0 0 0 .03.07l.02.03 8.67 15.02a2.96 2.96 0 0 0 4.04 1.08l.08-.04a2.966 2.966 0 0 0 1.08-4.04l-2.67-4.63a14.742 14.742 0 0 0 8.91-1.7 2.904 2.904 0 0 0 .35-.18l.03-.02 15.03-8.67a2.975 2.975 0 0 0 1.08-4.04zm-31.4 4.22c-.01-.01-.01-.02-.02-.03a8.996 8.996 0 0 1 3.24-12.22c.02-.01.05-.03.07-.04s.03-.02.05-.03a9.003 9.003 0 0 1 12.21 3.25c.01.02.03.05.04.07s.02.03.03.05a9.012 9.012 0 0 1-3.33 12.25c-.01.01-.02.01-.03.02a9 9 0 0 1-12.26-3.32z"/>
  </symbol>
  <symbol id="disaster-type--TS" viewBox="0 0 48 48">
    <path d="M47.9 19.48l-7.76-5.37a.28.28 0 0 0-.28 0l-7.76 5.37a.204.204 0 0 0-.1.16v6.45c-.21-.01-.44-.02-.67-.02a8.674 8.674 0 0 0-4.63 1.24 4.637 4.637 0 0 1-2.703.76 6.237 6.237 0 0 1-5.997-6 5.714 5.714 0 0 1 5.5-5.895 5.142 5.142 0 0 1 2.527.658 2 2 0 1 0 1.946-3.495 9.223 9.223 0 0 0-4.473-1.163A9.714 9.714 0 0 0 14 22.07a10.262 10.262 0 0 0 9.979 9.999h.027a8.674 8.674 0 0 0 4.614-1.24 4.638 4.638 0 0 1 2.71-.76 4.702 4.702 0 0 1 2.7.75A8.391 8.391 0 0 0 38 32.05c.21.01.43.02.66.02a8.673 8.673 0 0 0 4.63-1.24 4.907 4.907 0 0 1 1.71-.68 2.905 2.905 0 0 1 .328-.049c.154-.009.307-.018.472-.02a1.272 1.272 0 0 1 .2-.01 9.43 9.43 0 0 1 2 .2V19.64a.204.204 0 0 0-.1-.16zM46 42a8.59 8.59 0 0 0-4.625 1.244 5.241 5.241 0 0 1-5.423 0A8.59 8.59 0 0 0 31.326 42a8.581 8.581 0 0 0-4.623 1.244 4.692 4.692 0 0 1-2.708.756 4.696 4.696 0 0 1-2.709-.756A8.59 8.59 0 0 0 16.661 42a8.588 8.588 0 0 0-4.624 1.244A4.692 4.692 0 0 1 9.33 44a4.69 4.69 0 0 1-2.706-.755A8.577 8.577 0 0 0 2 42a2 2 0 0 0 0 4 4.691 4.691 0 0 1 2.707.756A8.58 8.58 0 0 0 9.329 48a8.588 8.588 0 0 0 4.624-1.244A4.692 4.692 0 0 1 16.661 46a4.696 4.696 0 0 1 2.71.756A8.59 8.59 0 0 0 23.994 48a8.583 8.583 0 0 0 4.624-1.245 5.236 5.236 0 0 1 5.42 0 9.22 9.22 0 0 0 9.25 0A4.702 4.702 0 0 1 46 46a2 2 0 0 0 0-4zm0-8a8.59 8.59 0 0 0-4.625 1.244 5.241 5.241 0 0 1-5.423 0A8.59 8.59 0 0 0 31.326 34a8.581 8.581 0 0 0-4.623 1.244 4.692 4.692 0 0 1-2.708.756 4.696 4.696 0 0 1-2.709-.756A8.59 8.59 0 0 0 16.661 34a8.588 8.588 0 0 0-4.624 1.244A4.692 4.692 0 0 1 9.33 36a4.69 4.69 0 0 1-2.706-.755A8.577 8.577 0 0 0 2 34a2 2 0 0 0 0 4 4.691 4.691 0 0 1 2.707.756A8.58 8.58 0 0 0 9.329 40a8.588 8.588 0 0 0 4.624-1.244A4.692 4.692 0 0 1 16.661 38a4.696 4.696 0 0 1 2.71.756A8.59 8.59 0 0 0 23.994 40a8.583 8.583 0 0 0 4.624-1.245 5.236 5.236 0 0 1 5.42 0 9.22 9.22 0 0 0 9.25 0A4.702 4.702 0 0 1 46 38a2 2 0 0 0 0-4z"/>
    <path d="M4.102 31.07a2 2 0 0 0 1.77-2.927A16.507 16.507 0 0 1 20.5 4a16.585 16.585 0 0 1 11.148 4.544 2 2 0 1 0 2.704-2.948A20.57 20.57 0 0 0 20.5 0 20.508 20.508 0 0 0 2.327 29.997a2.001 2.001 0 0 0 1.775 1.073z"/>
  </symbol>
  <symbol id="disaster-type--VO" viewBox="0 0 48 48">
    <path d="M47.854 47.157L29.286 29.588a1.94 1.94 0 0 0-2.476-.253 4.872 4.872 0 0 1-5.62 0 1.94 1.94 0 0 0-2.476.253L.146 47.158A.494.494 0 0 0 .495 48h47.01a.494.494 0 0 0 .35-.843zM25 24.5a1.5 1.5 0 0 0 3 0l-.002-8.05a6.146 6.146 0 0 1 5.832-6.445 4.617 4.617 0 0 1 4.842 4.38 3.394 3.394 0 0 1-3.22 3.56 2.398 2.398 0 0 1-2.533-2.292 1.5 1.5 0 0 0-2.996.15A5.424 5.424 0 0 0 35.6 20.94a6.393 6.393 0 0 0 6.067-6.705A7.615 7.615 0 0 0 33.68 7.01 9.143 9.143 0 0 0 25 16.525zM14.16 11.877a1.5 1.5 0 0 0 .148-2.996 2.468 2.468 0 0 1-2.327-2.592 3.448 3.448 0 0 1 3.605-3.285 4.717 4.717 0 0 1 4.428 5.007V24.5a1.489 1.489 0 1 0 2.978 0L22.99 8.086A7.691 7.691 0 0 0 15.735.008 6.434 6.434 0 0 0 9.007 6.14a5.462 5.462 0 0 0 5.152 5.737z"/>
  </symbol>
  <symbol id="disaster-type--WF" viewBox="0 0 34 48">
    <path d="M17.43.21a.545.545 0 0 0-.86 0C13.93 3.53 0 22.46 0 30.97a17 17 0 1 0 34 0C34 22.46 20.07 3.53 17.43.21zM17 43a7.985 7.985 0 0 1-8-7.97c0-3.98 6.55-12.38 7.8-13.93a.254.254 0 0 1 .4 0c1.24 1.55 7.8 9.95 7.8 13.93A7.985 7.985 0 0 1 17 43z"/>
  </symbol>
  <symbol id="group-disaster-type" viewBox="0 0 48 960">
    <use xlink:href="#disaster-type--AC" width="48" height="48"/>
    <use xlink:href="#disaster-type--AV" width="48" height="48" y="48"/>
    <use xlink:href="#disaster-type--CW" width="48" height="48" y="96"/>
    <use xlink:href="#disaster-type--DR" width="48" height="48" y="144"/>
    <use xlink:href="#disaster-type--EC" width="48" height="48" y="192"/>
    <use xlink:href="#disaster-type--EP" width="48" height="48" y="240"/>
    <use xlink:href="#disaster-type--EQ" width="48" height="48" y="288"/>
    <use xlink:href="#disaster-type--FF" width="48" height="48" y="336"/>
    <use xlink:href="#disaster-type--FL" width="48" height="48" y="384"/>
    <use xlink:href="#disaster-type--FR" width="48" height="48" y="432"/>
    <use xlink:href="#disaster-type--HT" width="48" height="48" y="480"/>
    <use xlink:href="#disaster-type--IN" width="48" height="48" y="528"/>
    <use xlink:href="#disaster-type--LS" width="48" height="48" y="576"/>
    <use xlink:href="#disaster-type--MS" width="48" height="48" y="624"/>
    <use xlink:href="#disaster-type--SS" width="48" height="48" y="672"/>
    <use xlink:href="#disaster-type--ST" width="48" height="48" y="720"/>
    <use xlink:href="#disaster-type--TC" width="48" height="48" y="768"/>
    <use xlink:href="#disaster-type--TS" width="48" height="48" y="816"/>
    <use xlink:href="#disaster-type--VO" width="48" height="48" y="864"/>
    <use xlink:href="#disaster-type--WF" width="48" height="48" y="912"/>
  </symbol>
  <symbol id="group-disaster-type--16" viewBox="0 0 64 320">
    <use xlink:href="#group-disaster-type" width="16" height="320" class="white"/>
    <use xlink:href="#group-disaster-type" width="16" height="320" x="16" class="grey"/>
    <use xlink:href="#group-disaster-type" width="16" height="320" x="32" class="orange"/>
    <use xlink:href="#group-disaster-type" width="16" height="320" x="48" class="red"/>
  </symbol>
  <symbol id="group-disaster-type--24" viewBox="0 0 72 480">
    <use xlink:href="#group-disaster-type" width="24" height="480" class="grey"/>
    <use xlink:href="#group-disaster-type" width="24" height="480" x="24" class="orange"/>
    <use xlink:href="#group-disaster-type" width="24" height="480" x="48" class="red"/>
  </symbol>
  <symbol id="group-disaster-type--32" viewBox="0 0 32 640">
    <use xlink:href="#group-disaster-type" width="32" height="640" class="white"/>
  </symbol>
  <symbol id="social-media--facebook-full" viewBox="0 0 48 48">
    <path d="M24,2A22,22,0,1,0,46,24,22,22,0,0,0,24,2Zm4.9,21.87h-3V35H21.31V23.94H18.82V20.1h2.41c0-1.14,0-2.15,0-3.2,0-3,2.32-3.9,4.41-3.9h3.52v3.79h-2c-.07,0-1.32-.07-1.32,1.13,0,.49,0,2.17,0,2.17h3.37Z"/>
  </symbol>
  <symbol id="social-media--linkedin-full" viewBox="0 0 48 48">
    <path d="M24,2A22,22,0,1,0,46,24,22,22,0,0,0,24,2ZM18.26,33H13.92V19h4.33ZM16.07,17.17a2.58,2.58,0,1,1,2.56-2.58A2.57,2.57,0,0,1,16.07,17.17ZM34.49,33H30.18V25.65c0-2-.77-3.14-2.36-3.14s-2.64,1.17-2.64,3.14V33H21V19h4.16v1.89a4.88,4.88,0,0,1,4.22-2.31c3,0,5.09,1.81,5.09,5.56Z"/>
  </symbol>
  <symbol id="social-media--twitter-full" viewBox="0 0 48 48">
    <path d="M24,2A22,22,0,1,0,46,24,22,22,0,0,0,24,2Zm9.54,17.11q0,.32,0,.64A14,14,0,0,1,12,31.54a9.92,9.92,0,0,0,7.29-2,4.93,4.93,0,0,1-4.6-3.42,5,5,0,0,0,.93.09,4.9,4.9,0,0,0,1.3-.17A4.93,4.93,0,0,1,13,21.17v-.06a4.9,4.9,0,0,0,2.23.62,4.93,4.93,0,0,1-1.52-6.57,14,14,0,0,0,10.15,5.14,5,5,0,0,1-.13-1.12,4.93,4.93,0,0,1,8.52-3.37,9.83,9.83,0,0,0,3.13-1.19,4.94,4.94,0,0,1-2.16,2.72A9.83,9.83,0,0,0,36,16.56,10,10,0,0,1,33.54,19.11Z"/>
  </symbol>
  <symbol id="group-social-media" viewBox="0 0 48 144">
    <use xlink:href="#social-media--facebook-full" width="48" height="48"/>
    <use xlink:href="#social-media--linkedin-full" width="48" height="48" y="48"/>
    <use xlink:href="#social-media--twitter-full" width="48" height="48" y="96"/>
  </symbol>
  <symbol id="group-social-media--48" viewBox="0 0 96 144">
    <use xlink:href="#group-social-media" width="48" height="144" class="dark-blue"/>
    <use xlink:href="#group-social-media" width="48" height="144" x="48" class="dark-red"/>
  </symbol>
  <symbol id="map-marker--marker" viewBox="0 0 30 45">
    <style xmlns:default="http://www.w3.org/2000/svg">
    .shadow {
      fill: #000000;
      fill-opacity: 0.04;
    }
    .border {
      fill: #000000;
      fill-opacity: 0.25;
    }
  </style>
    <g class="shadow">
      <ellipse cx="15" cy="38.667" rx="11.667" ry="5.833"/>
      <ellipse cx="15" cy="38.667" rx="11.667" ry="5.833"/>
      <ellipse cx="15" cy="38.667" rx="10.556" ry="5.303"/>
      <ellipse cx="15" cy="38.667" rx="9.444" ry="4.772"/>
      <ellipse cx="15" cy="38.667" rx="8.333" ry="4.242"/>
      <ellipse cx="15" cy="38.667" rx="7.222" ry="3.712"/>
      <ellipse cx="15" cy="38.667" rx="6.111" ry="3.182"/>
      <ellipse cx="15" cy="38.667" rx="5" ry="2.651"/>
    </g>
    <path d="M30 15c0 6.194-7.5 15-13.611 23.333-.815 1.111-1.963 1.111-2.778 0C7.5 30 0 21.359 0 15 0 6.716 6.716 0 15 0c8.284 0 15 6.716 15 15z"/>
    <path d="M15 0C6.716 0 0 6.716 0 15c0 6.359 7.5 15 13.611 23.333.833 1.137 1.963 1.111 2.778 0C22.5 30 30 21.194 30 15c0-8.284-6.716-15-15-15zm-.048 38.217a5.349 5.349 0 01-.444-.541c-3.069-4.185-6.67-8.459-9.197-12.412-2.529-3.952-4.2-7.598-4.2-10.264A13.873 13.873 0 0115 1.111h.09A13.873 13.873 0 0128.889 15c0 2.666-1.671 6.312-4.2 10.264-2.527 3.953-6.128 8.227-9.197 12.412a5.283 5.283 0 01-.492.592l-.048-.051z" class="border"/>
  </symbol>
  <symbol id="group-map-marker" viewBox="0 0 48 48">
    <use xlink:href="#map-marker--marker" width="48" height="48"/>
  </symbol>
  <symbol id="group-map-marker--16" viewBox="0 0 48 16">
    <use xlink:href="#group-map-marker" width="16" height="16" class="grey"/>
    <use xlink:href="#group-map-marker" width="16" height="16" x="16" class="orange"/>
    <use xlink:href="#group-map-marker" width="16" height="16" x="32" class="red"/>
  </symbol>
  <symbol id="group-map-marker--44" viewBox="0 0 176 44">
    <use xlink:href="#group-map-marker" width="44" height="44" class="blue"/>
    <use xlink:href="#group-map-marker" width="44" height="44" x="44" class="grey"/>
    <use xlink:href="#group-map-marker" width="44" height="44" x="88" class="orange"/>
    <use xlink:href="#group-map-marker" width="44" height="44" x="132" class="red"/>
  </symbol>
  <symbol id="datepicker--datepicker" viewBox="0 0 42 48">
    <path d="M40 6h-5v2.5c0 1.92-1.58 3.5-3.5 3.5S28 10.42 28 8.5V6H15v2.5c0 1.92-1.58 3.5-3.5 3.5S8 10.42 8 8.5V6H1.993C.9 6 0 6.9 0 7.993V46.007C0 47.1.9 48 1.993 48H40.007C41.1 48 42 47.1 42 46.007V7.993C42 6.9 41.1 6 40.007 6H40Zm-2 38H4V18h34v26Z"/>
    <path d="M11.498 10h.004C12.324 10 13 9.324 13 8.502V1.5c0-.823-.677-1.5-1.5-1.5S10 .677 10 1.5v7.002c0 .822.676 1.498 1.498 1.498Zm20 0h.004C32.324 10 33 9.324 33 8.502V1.5c0-.823-.677-1.5-1.5-1.5S30 .677 30 1.5v7.002c0 .822.676 1.498 1.498 1.498Z"/>
    <path d="M6 20h6v6H6zM14 20h6v6h-6zM22 20h6v6h-6zM30 20h6v6h-6zM6 28h6v6H6zM14 28h6v6h-6zM22 28h6v6h-6zM30 28h6v6h-6zM6 36h6v6H6zM14 36h6v6h-6zM22 36h6v6h-6zM30 36h6v6h-6z"/>
  </symbol>
  <symbol id="group-datepicker" viewBox="0 0 48 48">
    <use xlink:href="#datepicker--datepicker" width="48" height="48"/>
  </symbol>
  <symbol id="group-datepicker--32" viewBox="0 0 64 32">
    <use xlink:href="#group-datepicker" width="32" height="32" class="dark-blue"/>
    <use xlink:href="#group-datepicker" width="32" height="32" x="32" class="dark-red"/>
  </symbol>
  <use xlink:href="#group-common--12" width="48" height="252"/>
  <use xlink:href="#group-common--18" width="72" height="378" x="48"/>
  <use xlink:href="#group-search--18" width="36" height="18" x="120"/>
  <use xlink:href="#group-search--26" width="26" height="26" x="156"/>
  <use xlink:href="#group-toggle--9" width="36" height="18" x="182"/>
  <use xlink:href="#group-toggle--12" width="12" height="24" x="218"/>
  <use xlink:href="#group-toggle--18" width="18" height="36" x="230"/>
  <use xlink:href="#group-status--20" width="80" height="80" x="248"/>
  <use xlink:href="#group-content--16" width="16" height="96" x="328"/>
  <use xlink:href="#group-content--24" width="24" height="144" x="344"/>
  <use xlink:href="#group-content--36" width="36" height="216" x="368"/>
  <use xlink:href="#group-disaster-type--16" width="64" height="320" x="404"/>
  <use xlink:href="#group-disaster-type--24" width="72" height="480" x="468"/>
  <use xlink:href="#group-disaster-type--32" width="32" height="640" x="540"/>
  <use xlink:href="#group-social-media--48" width="96" height="144" x="572"/>
  <use xlink:href="#group-map-marker--16" width="48" height="16" x="668"/>
  <use xlink:href="#group-map-marker--44" width="176" height="44" x="716"/>
  <use xlink:href="#group-datepicker--32" width="64" height="32" x="892"/>
</svg>