<svg xmlns="http://www.w3.org/2000/svg" viewBox="0 0 48 48" id="double-arrow-right" data-source="go modified">
  <path d="M4 47.996c-2.194 0-4-1.806-4-4a4 4 0 011.172-2.828l17.172-17.172L1.172 6.825A4 4 0 01.004 4c0-2.194 1.806-4 4.001-4a4 4 0 012.824 1.168l20 20c1.552 1.551 1.552 4.105 0 5.657l-20 20A3.99 3.99 0 014 47.996zm20.008 0h-.001c-2.194 0-4-1.806-4-4a4 4 0 011.172-2.828l17.172-17.172L21.179 6.825A4.004 4.004 0 0120.012 4c0-2.194 1.805-4 4-4 1.058 0 2.075.42 2.824 1.168l20 20c1.552 1.551 1.552 4.105 0 5.657l-20 20a3.99 3.99 0 01-2.828 1.171z"/>
</svg>