<svg xmlns="http://www.w3.org/2000/svg" viewBox="0 0 48 48" id="double-arrow-left" data-source="return modified">
  <path d="M23.992 47.996a3.99 3.99 0 01-2.828-1.171l-20-20c-1.552-1.552-1.552-4.106 0-5.657l20-20A3.998 3.998 0 0123.988 0c2.195 0 4 1.806 4 4 0 1.059-.42 2.075-1.167 2.825L9.649 23.996l17.172 17.172a4 4 0 011.172 2.828c0 2.194-1.806 4-4 4h-.001zm20.008 0a3.99 3.99 0 01-2.829-1.171l-20-20c-1.552-1.552-1.552-4.106 0-5.657l20-20A4 4 0 0143.995 0c2.195 0 4.001 1.806 4.001 4a4 4 0 01-1.168 2.825L29.656 23.996l17.172 17.172A4 4 0 0148 43.996c0 2.194-1.806 4-4 4z"/>
</svg>