<svg xmlns="http://www.w3.org/2000/svg" viewBox="0 0 48 44.064" id="interactive" data-source="information-management">
  <path d="M2 8.017h4.317a6.007 6.007 0 0011.334 0H46a2 2 0 000-4H17.651a6.006 6.006 0 00-11.334 0H2a2 2 0 000 4zM11.984 4a2.016 2.016 0 11-2.016 2.017A2.018 2.018 0 0111.984 4zM46 36.049H25.683a6.006 6.006 0 00-11.334 0H2a2 2 0 000 4h12.349a6.007 6.007 0 0011.334 0H46a2 2 0 000-4zm-25.984 4.015a2.016 2.016 0 112.016-2.015 2.018 2.018 0 01-2.016 2.015zM46 20.032h-4.317a6.007 6.007 0 00-11.334 0H2a2 2 0 000 4h28.349a6.006 6.006 0 0011.334 0H46a2 2 0 000-4zm-9.984 4.017a2.016 2.016 0 112.016-2.017 2.018 2.018 0 01-2.016 2.017z"/>
</svg>