<svg xmlns="http://www.w3.org/2000/svg" viewBox="0 0 49 48" id="job" data-source="monitoring medical-supply combined modified">
  <path d="M8.38 33.8L1.2 40.98a4.116 4.116 0 0 0-1.199 2.904c0 2.258 1.857 4.115 4.115 4.115A4.116 4.116 0 0 0 7.02 46.8l7.18-7.18a24.01 24.01 0 0 1-5.82-5.82zM28 0C17.028 0 8 9.028 8 20s9.028 20 20 20 20-9.028 20-20v-.006C48 9.026 38.974 0 28.006 0H28zm11 30.18a15.008 15.008 0 0 1-11 4.802c-8.222 0-14.99-6.76-15-14.982v-.018c0-8.229 6.771-15 15-15s15 6.771 15 15c0 3.781-1.43 7.425-4 10.198z"/>
  <path d="M37.167 14.75h-4.584v-2.917A.839.839 0 0 0 31.75 11h-7.5a.839.839 0 0 0-.833.833v2.917h-4.584a.84.84 0 0 0-.833.833V27.25a.839.839 0 0 0 .833.833h18.334A.839.839 0 0 0 38 27.25V15.583a.84.84 0 0 0-.833-.833zM25.5 13.083h5v1.667h-5v-1.667z"/>
</svg>