<svg xmlns="http://www.w3.org/2000/svg" viewBox="0 0 64.21 74.37"><defs><style>.cls-1{fill:#418fde;}</style></defs><title>UNOCHA logo</title><g id="Layer_2" data-name="Layer 2"><g id="logo"><path class="cls-1" d="M0,66.23a7.88,7.88,0,0,1,8.08-8.14,8.14,8.14,0,0,1,0,16.28A7.89,7.89,0,0,1,0,66.23Zm13.92,0c0-3.39-2.3-6.17-5.84-6.17s-5.85,2.78-5.85,6.17,2.3,6.17,5.85,6.17S13.92,69.62,13.92,66.23Z"/><path class="cls-1" d="M30,61.83a4.77,4.77,0,0,0-3.75-1.77c-3.48,0-5.77,2.78-5.77,6.3,0,3.26,2.16,6,5.77,6a4.77,4.77,0,0,0,4.05-2.08l1.78,1.34a7.23,7.23,0,0,1-5.87,2.71,8,8,0,0,1-8-8c0-4.82,3.31-8.27,8.08-8.27a6.8,6.8,0,0,1,5.43,2.4Z"/><path class="cls-1" d="M34.59,58.48h2.1v6.43h8V58.48h2.1V74h-2.1v-7.1h-8V74h-2.1Z"/><path class="cls-1" d="M55.67,58.48h1.9L64.21,74H61.75L60.2,70.15H52.82L51.29,74H48.84Zm3.76,9.83L56.54,61.2h0l-2.93,7.11Z"/><path class="cls-1" d="M27.39,20.78a4.72,4.72,0,0,1,4.72-4.72h0a4.73,4.73,0,0,1,4.71,4.72h0a4.72,4.72,0,0,1-4.71,4.71h0v-.6a4.1,4.1,0,0,0,4.11-4.11h0a4.11,4.11,0,0,0-4.11-4.12h0A4.12,4.12,0,0,0,28,20.78h0a4.11,4.11,0,0,0,4.12,4.11h0v.6a4.71,4.71,0,0,1-4.72-4.71Z"/><path class="cls-1" d="M23.65,20.78a8.47,8.47,0,0,1,8.46-8.47h0a8.48,8.48,0,0,1,8.46,8.47h0a8.48,8.48,0,0,1-8.46,8.46h0v-.6A7.87,7.87,0,0,0,40,20.78h0a7.88,7.88,0,0,0-7.86-7.87h0a7.88,7.88,0,0,0-7.87,7.87h0a7.88,7.88,0,0,0,7.87,7.86h0v.6a8.46,8.46,0,0,1-8.46-8.46Z"/><path class="cls-1" d="M19.56,20.78A12.54,12.54,0,0,1,32.11,8.24h0A12.55,12.55,0,0,1,44.65,20.78h0A12.55,12.55,0,0,1,32.11,33.31h0v-.59A12,12,0,0,0,44.05,20.78h0a12,12,0,0,0-11.94-12h0a12,12,0,0,0-11.95,12h0a12,12,0,0,0,12,11.94h0v.59A12.53,12.53,0,0,1,19.56,20.78Z"/><path class="cls-1" d="M15.66,20.78A16.44,16.44,0,0,1,32.11,4.33h0A16.45,16.45,0,0,1,48.57,20.78h0A16.45,16.45,0,0,1,32.11,37.23h0v-.6A15.88,15.88,0,0,0,48,20.78h0A15.87,15.87,0,0,0,32.11,4.92h0A15.87,15.87,0,0,0,16.25,20.78h0A15.88,15.88,0,0,0,32.11,36.63h0v.6A16.44,16.44,0,0,1,15.66,20.78Z"/><path class="cls-1" d="M11.34,20.78A20.78,20.78,0,0,1,32.11,0h0A20.78,20.78,0,0,1,52.87,20.78h0A20.76,20.76,0,0,1,32.11,41.54h0V41A20.2,20.2,0,0,0,52.28,20.78h0A20.22,20.22,0,0,0,32.11.59h0A20.23,20.23,0,0,0,11.93,20.78h0A20.2,20.2,0,0,0,32.11,41h0v.59A20.76,20.76,0,0,1,11.34,20.78Z"/><polygon class="cls-1" points="31.8 16.37 31.8 0.3 32.4 0.3 32.4 16.37 31.8 16.37 31.8 16.37"/><polygon class="cls-1" points="17.43 6.51 17.85 6.09 29.2 17.45 28.77 17.87 17.43 6.51 17.43 6.51"/><polygon class="cls-1" points="11.63 21.07 11.63 20.48 27.69 20.48 27.69 21.07 11.63 21.07 11.63 21.07"/><polygon class="cls-1" points="17.43 35.03 28.77 23.7 29.2 24.12 17.85 35.45 17.43 35.03 17.43 35.03"/><polygon class="cls-1" points="31.8 41.24 31.8 25.19 32.4 25.19 32.4 41.24 31.8 41.24 31.8 41.24"/><polygon class="cls-1" points="35.02 24.12 35.44 23.7 46.79 35.03 46.37 35.45 35.02 24.12 35.02 24.12"/><polygon class="cls-1" points="36.52 21.08 36.52 20.48 52.58 20.48 52.58 21.08 36.52 21.08 36.52 21.08"/><polygon class="cls-1" points="35.02 17.45 46.37 6.09 46.79 6.51 35.44 17.87 35.02 17.45 35.02 17.45"/><path class="cls-1" d="M29,22.11c.18,0,.15.14.21.24h.08a2,2,0,0,0,.51-1.05s.07-.06.07-.08c0-.18-.23-.24-.32-.4-.1.27-.38.05-.58.19,0,0,0,.07,0,.1s.18,0,.21.05a.24.24,0,0,1,0,.29s-.07,0-.07,0c-.1-.21-.27-.18-.47-.18.08.07-.06.05,0,.09a2.25,2.25,0,0,0-.78.08.35.35,0,0,1-.25-.12c-.09.1-.2.29-.35.24s-.13-.14-.07-.17a.9.9,0,0,0,.34-.33c.06-.12,0-.26.07-.37s.19-.29.34-.28.45.14.59,0,.15.1.21.17,0,.05,0,.08-.25.11-.31.25a.15.15,0,0,0,.09.21c.12.06.16-.11.22-.19s.14,0,.21,0,0-.07,0-.07a1.76,1.76,0,0,1,.46,0c.18,0,.08-.36.06-.57v-.16a.15.15,0,0,1,0-.09c.05-.12.28-.15.32,0a.5.5,0,0,0,0,.12c0,.06.05.1.13.06a.1.1,0,0,0,0-.06c0-.07,0-.18.06-.22s.16.11.27.12a.38.38,0,0,0,.33,0c.08,0,.08-.13,0-.23s-.09-.05-.1,0-.24.08-.35.08-.15-.13-.24-.19-.22.07-.33,0a.18.18,0,0,1-.1-.26.75.75,0,0,1,.16-.13c.13-.06.29-.06.36-.18a.79.79,0,0,0,.1-.34c0-.06.07-.06.1-.07s.33,0,.47-.08a2.73,2.73,0,0,0,.42-.3.77.77,0,0,1,.23-.1.23.23,0,0,0,.08-.12c0-.26,0-.5,0-.77,0-.07.13-.12.07-.2s-.12,0-.15,0-.11-.15,0-.21.21,0,.26-.1a.28.28,0,0,0-.1-.4c-.14-.07-.29.06-.45,0,0,.06-.07.08-.09.08-.2.07-.22-.18-.18-.31s0-.05,0,0,.05-.06.06-.12h-.14c-.18.09-.25.28-.43.37a.08.08,0,0,0,0,.08s0,0,.06,0,0,.3-.15.25c0,0,0,0,0-.05s-.16-.06-.18,0,.22.18.16.31-.34.21-.54.3c-.42.17-.85,0-1.29.07a1.49,1.49,0,0,1-.72-.05c-.17,0-.2.12-.29.24,0,0,0-.05-.05,0s0-.16,0-.25-.12-.06-.15-.12c-.29-.55-1-.48-1.52-.39-.1,0-.14.11-.2.18s-.26,0-.38.06-.07.11-.12.12-.33-.12-.47,0a.91.91,0,0,1-.3.14s0,.1,0,.16-.09,0-.11,0-.37,0-.4.18h0a.35.35,0,0,1-.18.43c-.19.06-.39.05-.57.12a.44.44,0,0,0-.24.2A3.62,3.62,0,0,0,22,19.94V20s.07.07.07.09c-.29.6-.48.91-.8,1.49-.14.24-.3.81-.06,1s-.07.34-.24.35-.52,0-.6-.29c0-.1-.23-.12-.37-.14h-.09a1.91,1.91,0,0,0-.48,0c-.25.07-.27.37-.39.57s-.37.13-.45.3,0,.2,0,.31-.15.07-.17.15a.94.94,0,0,1-.06.15,1.32,1.32,0,0,0-.05.68.52.52,0,0,0,0,.18.87.87,0,0,1-.13.65c-.15.23-.43.23-.69.31-.11.05-.24-.06-.37,0-.29,0-.57-.07-.85,0l-.09.07c-.15.06-.2-.1-.28-.17s-.09-.24-.18-.28a.45.45,0,0,0-.52.18c.08,0,0,.09.06.09-.18,0-.32.17-.46.24s-.23-.23-.25-.43-.18-.16-.32-.09a.16.16,0,0,0-.05.11s-.08-.06-.12,0,.09.12.16.21,0,.09-.06.12-.16,0-.17,0-.09.15-.16.12,0,0,0,.05,0,.05,0,0-.14.07-.19,0,0-.14-.07-.23-.08,0-.08,0,0,.19-.14.2c0,.05,0,.14,0,.15s.18-.05.25,0,.1.3.13.46l-.05,0c0,.09.05.3-.07.21s0-.3-.06-.44-.11,0-.18,0c.09.22-.1.45.09.66s-.23.22-.12.34a.63.63,0,0,0,.27.14c.05,0,0-.11,0-.14s.17-.11.2,0a.48.48,0,0,1,0,.18.31.31,0,0,0-.21.05c.06.14,0,.24-.05.37s.05.08.05.12.22,0,.27.1-.08.15,0,.24.14,0,.18.08,0,.13,0,.21.17.07.14.15.09-.06.09-.11c.17,0,.1-.16.12-.3-.06,0-.06-.09-.12,0,0-.1,0-.2,0-.29s-.19-.12-.21-.25a.24.24,0,0,0,.29-.14c0-.07.15,0,.19.11s0,.05,0,.09.11.07.15.12.11.17.22.22a1,1,0,0,0,.46,0,.16.16,0,0,1,0-.17c.07-.06.1.08.19.08a.33.33,0,0,0,.16.36s.09,0,.11,0,.07.12.15.14.1,0,.14,0,.08.08.09.16.05,0,.05.06.31,0,.35.14.2.33.28.49.18.11.2.19a.19.19,0,0,0,.08.12.71.71,0,0,0,.38.18c.05,0,.13-.08.21-.12s.1,0,.11,0c.13.21.16.51.38.63s.14.19.25.23.15-.06.22,0,.06.12.1.13a.48.48,0,0,1,.31.34s0,.08.06.09.26-.09.34,0,.24.14.33.24.11.06.13,0,0-.13.05-.17.15-.06.22-.08.11-.22.21-.23.24.19.38.27.07,0,.09.05.08.36.26.38.33.19.52.23a2,2,0,0,1,.4.16.18.18,0,0,0,.16,0,.78.78,0,0,0,.22-.12c.19-.11.43-.12.61-.24a1.21,1.21,0,0,1,.14-.1c.31-.14.65.11,1-.06a1.06,1.06,0,0,0,.28-.1.58.58,0,0,0,.19-.62,3.91,3.91,0,0,0-.49-1c-.12-.15-.27-.23-.41-.38s-.13,0-.2-.05-.1-.21-.08-.33-.13,0-.16-.09,0-.18,0-.26,0-.07-.05-.07a1.46,1.46,0,0,0-.54-.09c-.06,0-.11-.06-.16-.09s0-.09,0-.1a1.2,1.2,0,0,1,.37-.2c-.05-.07-.06-.17,0-.19a.27.27,0,0,0,0-.27.1.1,0,0,0-.1-.09c0-.17.12-.3,0-.45s-.26-.23-.3-.42c0,0-.09-.06-.09-.09a3.53,3.53,0,0,0,0-.65c0-.09-.13-.19-.05-.25a.72.72,0,0,1,.18-.1c.14,0,.19-.15.12-.25s-.22,0-.33,0-.06-.05-.06-.09.06-.22,0-.27a.37.37,0,0,1-.16-.14c-.07-.1,0-.22.07-.33s0-.08-.08-.05c0-.12.06-.24,0-.34s-.12-.22-.24-.17,0,0,0,0a.12.12,0,1,1-.21-.11c.05-.06.15,0,.2-.08s0-.24,0-.3a.42.42,0,0,1-.19-.43c-.17,0-.43-.05-.42-.29a2.28,2.28,0,0,0-.09-.63.42.42,0,0,1,.06-.42s.06-.09.11-.1c.22,0,.49,0,.62-.19s-.09-.39,0-.49.57-.06.85-.21a.26.26,0,0,0,0-.28,1.37,1.37,0,0,0-.16-.32c-.09-.14-.32-.07-.38-.22a.3.3,0,0,1,0-.23.57.57,0,0,1,.26-.27.82.82,0,0,1,.7.1.66.66,0,0,1,.18.19.42.42,0,0,0,0,.1,1.54,1.54,0,0,1,.07.84c-.05.09-.16.15-.13.28.07-.06.1,0,.1.06.05.19.17.46,0,.58s-.19,0-.41,0-.19,0-.17.08a.35.35,0,0,0,.14.2,10.51,10.51,0,0,0,1.29.25c.11,0,.2.16.33.18s.21.07.31-.06.14,0,.15,0,.09.11.16.14.1.49.32.36.21,0,.34,0a.34.34,0,0,0,.06.47c.1.13.24.18.36.3s.25.08.26-.07-.14-.35.06-.49c.2.28-.06.63.15.89l0,.06c.1.12.17.24.3.23s.13-.12.18-.22a.15.15,0,0,1,0-.08,1.55,1.55,0,0,1,.08-.23c0-.13.2-.23.17-.37s0-.11,0-.14a.35.35,0,0,1,.42-.29c.05,0,0,0,.06-.07s.06-.25.14-.34a1.77,1.77,0,0,0,.17-.24s.09-.11.07-.18S28.88,22.12,29,22.11Z"/><path class="cls-1" d="M23,21.77c-.08-.06-.14,0-.19,0a.12.12,0,0,0,0,.16.68.68,0,0,1,.09.22,3,3,0,0,0,0,.43c0,.11.17.31.24.18s.21-.37.11-.55S23.2,21.87,23,21.77Z"/><path class="cls-1" d="M22.74,23a.91.91,0,0,1,.07.14c0,.12.23.06.3,0a.2.2,0,0,0-.05-.17c-.06-.05-.14,0-.19-.08s-.07-.05-.1,0S22.73,23,22.74,23Z"/><path class="cls-1" d="M23.08,23.56a.19.19,0,0,0-.34-.15c-.18.15,0,.43.17.62l.08.17a.15.15,0,0,0,.23,0l.1-.17C23.38,23.84,23.29,23.56,23.08,23.56Z"/><path class="cls-1" d="M22.65,22.43s0,0-.06,0-.11.1-.13.18a.34.34,0,0,0,.1.3c0,.05.09,0,.12-.08S22.66,22.56,22.65,22.43Z"/><path class="cls-1" d="M23.24,23.29s.1-.08.08-.15a.15.15,0,0,0,.16-.06s0-.07,0-.12-.2.09-.29.17S23.2,23.33,23.24,23.29Z"/><path class="cls-1" d="M23.1,24.55c0,.11,0,.18.07.21s.1,0,.1,0,.06-.13,0-.19h0C23.17,24.51,23.14,24.6,23.1,24.55Z"/><path class="cls-1" d="M23.47,25.6c0-.08.1-.17,0-.25h-.13A.28.28,0,0,0,23.47,25.6Z"/><path class="cls-1" d="M14.47,29.12a.25.25,0,0,0,0,.19s.15,0,.22,0S14.65,29,14.47,29.12Z"/><path class="cls-1" d="M15.4,30.06c-.08.14.1.3.31.32,0-.07,0-.16,0-.21S15.44,30,15.4,30.06Z"/><path class="cls-1" d="M15.82,30.62a.38.38,0,0,0,.34.47C16.19,30.81,16.08,30.66,15.82,30.62Z"/><path class="cls-1" d="M30.08,23.37a2.85,2.85,0,0,1,.8-.14c.62,0,.58-.8.9-1.3.07-.12,0-.4-.13-.53-.21-.33-.87.05-1-.31-.08-.2.45.13.5-.18a.22.22,0,0,0-.11-.22.31.31,0,0,0-.31,0c-.34.28-.4.76-.57,1.08-.36.61-1,1.06-1.33,1.74-.06.1,0,.18.11.22C29.38,23.89,29.7,23.46,30.08,23.37Z"/><path class="cls-1" d="M32.62,21.85a.46.46,0,0,0-.23.12.36.36,0,0,0,0,.32s.17,0,.2,0,0-.16-.1-.2C32.57,22,32.65,22,32.62,21.85Z"/><path class="cls-1" d="M30.74,24c.2.23.7.15.65-.07a.53.53,0,0,0-.62-.24C30.62,23.72,31,23.89,30.74,24Z"/><path class="cls-1" d="M31.4,25.83c.2-.09.1-.28.12-.46a.54.54,0,0,0-.35.46A.59.59,0,0,0,31.4,25.83Z"/><path class="cls-1" d="M34,22.09a.22.22,0,0,0,0-.21s-.13,0-.21,0-.12-.11-.14-.21-.12-.22-.08-.36a.22.22,0,0,0-.1.32C33.58,21.82,33.67,22.15,34,22.09Z"/><path class="cls-1" d="M30.57,20.33c-.09,0-.16,0-.09.1s.14,0,.21,0S30.63,20.35,30.57,20.33Z"/><path class="cls-1" d="M13.91,25.74s0-.09-.08-.14-.13,0-.18-.05,0,.12,0,.16A.15.15,0,0,0,13.91,25.74Z"/><path class="cls-1" d="M14.89,25.75c.09-.05.23-.09.16-.24s0,0,0,0-.36-.06-.33.13A.14.14,0,0,0,14.89,25.75Z"/><path class="cls-1" d="M31,15.83c0-.1.19-.12.17-.22s-.11,0-.16,0,0,.11,0,.2-.05,0-.05,0S31,15.84,31,15.83Z"/><path class="cls-1" d="M31.47,15.63s.11-.09,0-.15a.18.18,0,0,0-.18,0C31.26,15.53,31.37,15.7,31.47,15.63Z"/><path class="cls-1" d="M30,19.39c-.06.16.23.36.38.26s.06-.27,0-.33S30,19.29,30,19.39Z"/><path class="cls-1" d="M30.29,20.47c.07-.06,0-.14-.05-.17s-.16,0-.25,0,0,0-.08,0a.08.08,0,0,0,.08.1C30.11,20.37,30.21,20.54,30.29,20.47Z"/><path class="cls-1" d="M29.85,20.77a.18.18,0,0,0,0,.27.17.17,0,0,0,.25-.09c0-.09.09-.22,0-.29S30,20.71,29.85,20.77Z"/><path class="cls-1" d="M29.56,20.37c0,.15-.07.3,0,.43s.13.06.15,0,0-.24.1-.33-.08-.06-.08,0,0-.06,0-.09S29.62,20.37,29.56,20.37Z"/><path class="cls-1" d="M31.46,28.26h0Z"/><path class="cls-1" d="M40.42,30.34s0,0,0,0,0,0-.06,0S40.42,30.35,40.42,30.34Z"/><path class="cls-1" d="M32.2,24.94c-.06,0-.05-.05-.06-.07s-.1-.05-.12-.12-.14.07-.24.06a.08.08,0,0,0,0,.08c.1.12,0,.17-.09.25s.1.11.13.21-.08.21-.05.33a1,1,0,0,0-.14.19s-.07.11,0,.16.25-.11.35-.13a.23.23,0,0,0,.18,0c.11-.06.21-.1.24-.22s-.16-.06-.22-.07c.09-.2,0-.26,0-.49C32.12,25.06,32.23,24.94,32.2,24.94Z"/><path class="cls-1" d="M33.05,27.63s.05,0,.07,0a.18.18,0,0,0,.05-.25c0-.06-.16-.06-.17,0A.26.26,0,0,0,33.05,27.63Z"/><path class="cls-1" d="M33.18,27.22c.08,0,0-.11,0-.16s-.1,0-.11,0S33.06,27.26,33.18,27.22Z"/><path class="cls-1" d="M34,27.64s0,0,0,0-.15-.05-.24,0h-.13c0,.07,0,.17.05.19A.35.35,0,0,0,34,27.64Z"/><path class="cls-1" d="M35.47,27.51s0-.13,0-.14-.23.1-.36.06a.16.16,0,0,1,0,.12H35C35.1,27.73,35.32,27.56,35.47,27.51Z"/><path class="cls-1" d="M36,27c0,.22.3.12.33,0s-.15-.11-.2,0a.25.25,0,0,1,0-.07C36.12,26.93,36,26.93,36,27Z"/><path class="cls-1" d="M42.76,22.51c0,.12.17.14.27.18s.34,0,.37-.1-.17-.42-.4-.4S42.83,22.37,42.76,22.51Z"/><path class="cls-1" d="M42.8,29.72c-.07,0-.21,0-.21,0-.16.7-.8,1.66,0,2.13.34.21.76-.21.81-.43A1.49,1.49,0,0,0,42.8,29.72Z"/><path class="cls-1" d="M40.67,26.63c-.11.06-.13.32,0,.32a.42.42,0,0,0,.2-.1c.06-.07.05-.17,0-.19S40.73,26.59,40.67,26.63Z"/><path class="cls-1" d="M41.18,33.8a.25.25,0,0,0,.06.34c0-.1.19-.23,0-.34A.07.07,0,0,0,41.18,33.8Z"/><path class="cls-1" d="M44.41,17.27c-.1,0-.13,0-.16.07s0,.21,0,.3c-.22.64-.95,1.21-.61,1.92,0,0,0,0,.06,0a1.46,1.46,0,0,0,.44-.52,9.86,9.86,0,0,0,.53-1.38A.3.3,0,0,0,44.41,17.27Z"/><path class="cls-1" d="M43.23,19.79c-.06.1.07.18.15.13s.14-.17.06-.19A.15.15,0,0,0,43.23,19.79Z"/><path class="cls-1" d="M36,15.44c-.09-.26-.29,0-.46,0s-.1-.1-.14-.1a.28.28,0,0,0-.16.06.12.12,0,0,0,.08.22c.09,0,.15-.13.19-.05s0,.38.24.33.23-.13.38-.15.17-.17.15-.28c.16,0,.34-.15.44,0s.06.14.1.2.15.13.26.14.28,0,.39-.14a.25.25,0,0,0,0-.39c-.06,0-.16,0-.22,0a3.53,3.53,0,0,0-.32-.21C36.53,14.86,36.28,15.22,36,15.44Z"/><path class="cls-1" d="M37.26,15.75h0Z"/><path class="cls-1" d="M34.62,15.63a1.48,1.48,0,0,1,.42,0v0c0-.24-.25-.21-.38-.12s0,0,0,0-.11,0-.14,0S34.55,15.66,34.62,15.63Z"/><path class="cls-1" d="M35.13,16.57a1.65,1.65,0,0,1,.6-.43s0-.05,0-.08l0,.07a.43.43,0,0,0-.22-.24c0,.1-.12.16-.16.2a1,1,0,0,0-.32.31c0,.1-.06.26,0,.33S35.1,16.63,35.13,16.57Z"/><path class="cls-1" d="M33,15.18c0,.07,0,.15.06.16s.11-.13,0-.17S33,15.13,33,15.18Z"/><path class="cls-1" d="M27.93,12a1.48,1.48,0,0,0,.55.09s.13-.11.07-.18-.24,0-.33-.13h-.09c-.14-.05-.18.08-.26.16S27.93,12,27.93,12Z"/><path class="cls-1" d="M40.8,14.33c-.06.09-.18.05-.3.09s0,.13,0,.16.24.07.39,0c0,.05,0,.05.06.06s.1-.11.17-.06,0,.11,0,.12-.1.15-.19.19a.15.15,0,0,1-.22-.07h-.06c0,.08,0,.2,0,.24s-.56.28-.39.51.42.12.65.1c0,0,.06,0,0-.06,0-.22.1-.26.24-.37s0-.12-.11-.18,0-.16.07-.16.09-.12.17-.1V14.7c.14,0,.25-.08.22-.2s-.18-.29-.13-.46a.2.2,0,0,1,.15-.15s.07-.07,0-.1,0,0-.07,0-.09,0-.06.08a1.22,1.22,0,0,0-.43.08C40.83,14,40.89,14.21,40.8,14.33Z"/><path class="cls-1" d="M39.3,15.76c0,.16.2.08.29,0-.06,0,0-.06-.06-.06S39.38,15.76,39.3,15.76Z"/><path class="cls-1" d="M41.41,15.43c-.1.13.17.13.28.08v0s0,0,0-.05S41.43,15.38,41.41,15.43Z"/><path class="cls-1" d="M41.84,14.72s-.09,0-.13,0,.06.16.15.14,0,0,0-.06S41.86,14.73,41.84,14.72Z"/><path class="cls-1" d="M38.71,9a.61.61,0,0,1,.26.3c.06.16,0,.35.05.5s.08.11.11.15,0,.2,0,.3a4,4,0,0,1,.09.57c.08,0,.08.12.18.09a2,2,0,0,0,.08.33c0,.13.18.06.27.15a1.72,1.72,0,0,0,.46.51c.06,0,.16,0,.19.1s0,.07,0,.07c.27.05.65.19.51.51.1-.07.23-.12.26-.24a.91.91,0,0,0,0-.61c0-.11-.2-.16-.23-.27a.54.54,0,0,1,0-.22c0-.12-.16-.08-.18-.13s-.12-.38.15-.36c0,0,0,0,0-.1a1.22,1.22,0,0,1-.27,0c-.06,0-.06-.1-.06-.12s.05-.34-.08-.45-.27-.09-.39-.17a1.49,1.49,0,0,0-.29-.2c-.07-.05-.19.06-.24,0-.22-.25-.38-.55-.59-.83a.45.45,0,0,0-.39-.07s0,.06,0,.08h.06S38.69,9,38.71,9Z"/><path class="cls-1" d="M37.4,9.49a.24.24,0,0,0,0,.35,1.08,1.08,0,0,0,.51,0c.1,0,.16-.11.21-.21s.33-.06.51-.12c0,.11.05.1.12.15,0-.13,0-.29-.09-.35s-.18-.24-.26-.39-.11,0-.11.05c0,.25-.2.21-.37.28,0,0,0,.06,0,.08h0s-.06,0,0-.11-.21,0-.25.06S37.45,9.41,37.4,9.49Z"/><path class="cls-1" d="M34.07,4A1.43,1.43,0,0,1,33.74,3,1.85,1.85,0,0,0,35,3c.33-.09.7.07,1-.14,0,0,0-.14,0-.22-.37.17-.68-.31-1-.1A4.4,4.4,0,0,1,33.73,3c-.34.08-1.22,0-1.26.52A1.44,1.44,0,0,1,33.75,4S34,4,34.07,4Z"/><path class="cls-1" d="M35.52,6.07c.12.22.35.27.56.35,0-.11,0-.17-.09-.23A.58.58,0,0,0,35.52,6.07Z"/><path class="cls-1" d="M35.19,6.77c-.08,0,0,.15.09.21C35.26,6.88,35.39,6.68,35.19,6.77Z"/><path class="cls-1" d="M34.85,6.35a.11.11,0,0,0,.08,0s0,0,0-.06-.15-.19-.28-.2,0,.1,0,.11S34.76,6.29,34.85,6.35Z"/><path class="cls-1" d="M36.11,8s.06,0,.08,0a.1.1,0,0,0,0-.13v0c0-.05,0-.12,0-.16s-.06,0-.07,0S36.11,7.86,36.11,8Z"/><path class="cls-1" d="M36.57,8a.16.16,0,0,0,0,.15s.06,0,.07,0a.1.1,0,0,1,0-.09C36.66,7.92,36.58,8,36.57,8Z"/><path class="cls-1" d="M36.39,8.32c0,.07.09,0,.1-.11v0l0,0,0-.05h0c-.07-.08-.18-.14-.25-.06S36.35,8.2,36.39,8.32Z"/><path class="cls-1" d="M36.56,8.37s-.07,0,0,.05a.3.3,0,0,0,.33.14c.06,0,.12-.14.07-.17s-.21,0-.32,0Z"/><path class="cls-1" d="M37.22,8.66c.06,0,0-.08,0-.11s-.07-.15-.13-.11-.09.16,0,.2A.14.14,0,0,0,37.22,8.66Z"/><path class="cls-1" d="M37.43,9.06s.11,0,.14-.06,0-.05,0-.08.05,0,.05,0a.09.09,0,0,0-.05-.13s-.09.05-.14,0,0,0,0,0-.1-.06-.13,0a.15.15,0,0,0,0,.19A1.07,1.07,0,0,0,37.43,9.06Z"/><path class="cls-1" d="M37.05,9.37a.06.06,0,0,0,.06-.06.25.25,0,0,0,0-.17s0,0-.07,0,0,.09-.09.1S37,9.36,37.05,9.37Z"/><path class="cls-1" d="M36.67,2.33l0,0s0,0,0,0-.15,0-.23,0S36.57,2.41,36.67,2.33Z"/><path class="cls-1" d="M41.45,5.8c.07.07.24,0,.32.07s.14.25.28.25A.15.15,0,0,0,42.21,6a.56.56,0,0,0-.29-.6,1.8,1.8,0,0,0-.65-.06c-.14,0-.14.16-.08.22A1.55,1.55,0,0,0,41.45,5.8Z"/><path class="cls-1" d="M47.25,13.14a3.31,3.31,0,0,1-.26-.55c-.1-.15-.32-.16-.44-.33s.05-.23,0-.3-.11-.08-.12-.13a.67.67,0,0,0-.35-.42c.06-.23-.15-.34-.37-.4,0,0,0-.08,0-.1s-.12-.12-.19-.15h-.1c-.11-.15-.27-.26-.32-.39a.9.9,0,0,0-.44-.44c-.06,0-.12-.21-.15-.21s-.28,0-.3-.13A.86.86,0,0,0,43.77,9c-.28-.2,0-.63-.13-.95,0-.13-.17-.13-.3-.13a.14.14,0,0,1-.11-.09c-.11-.19,0-.41-.15-.59s-.42-.49-.63-.76-.3-.12-.46-.13a.34.34,0,0,1-.11-.07c-.06,0-.07-.1-.11-.16a.83.83,0,0,0-.43-.29,4.06,4.06,0,0,0-.92-.11,1,1,0,0,0-.7.23,1.77,1.77,0,0,1-.74.29c-.11,0,0,.15,0,.23s-.21.22-.15.32,0,0,0,0,.17,0,.25,0,.13.12.19.17a1.57,1.57,0,0,1,.33.4c0,.06-.09.17,0,.23s.12.29.12.48.17,0,.2,0a.53.53,0,0,1,.21.63.52.52,0,0,0,0,.39c.11.22.13.53.34.69,0-.07.1-.16.13-.15s.18-.12.3-.18c.33-.23.61.22.7.47s0,.58.12.83a.94.94,0,0,0,.48.57c.06,0,.07.18.12.29s.09.15.18.08,0-.15.12-.19a.25.25,0,0,1,.2.07c.21.26.27.82.71.78a.13.13,0,0,0,.08.14c.09,0,.15-.1.22,0s.1.23.2.28.31,0,.46,0a.57.57,0,0,1,.25.24,1.46,1.46,0,0,0,.16.21c.29.28.41.72.77.94.1.07.21.21.37.17s0-.07.06-.08a.48.48,0,0,0,.3-.23,1.23,1.23,0,0,1,.46-.37v-.07c.13-.1.3-.13.42-.25S47.3,13.19,47.25,13.14Z"/><path class="cls-1" d="M41.59,12.48l.09,0h.09Z"/><path class="cls-1" d="M41.32,13.27c.06.09.19.11.28.17s.16.22.25.27.11-.21.2-.31.13,0,.15,0,0-.39-.16-.53-.19-.28-.36-.34a.16.16,0,0,0-.21.08c-.09.13,0,.31-.06.44S41.3,13.18,41.32,13.27Z"/><path class="cls-1" d="M42.4,13.93a4.41,4.41,0,0,0,0,.82c0,.14-.24.11-.33.23a.43.43,0,0,0-.06.27c0,.19.24.18.37.25a1.91,1.91,0,0,1,.86.78c.07.11.1.28.2.37s.3.11.33.3.15.1.2.05a.42.42,0,0,0,0-.58.43.43,0,0,1-.16-.28,2.25,2.25,0,0,0-.34-1.08c-.13-.18-.35-.27-.48-.44s-.07-.1,0-.15.14-.15.16-.26-.2-.27-.26-.46h-.1l.11,0C42.68,13.71,42.45,13.74,42.4,13.93Z"/><path class="cls-1" d="M44.42,15.83a2,2,0,0,1,0-.35c0-.22-.24-.25-.42-.25s-.18,0-.19.06a.3.3,0,0,0,.05.27,3.58,3.58,0,0,1,.44,1.35c.05.18.35,0,.41-.15a.61.61,0,0,0,0-.3c0-.09-.14-.16-.16-.27A3.82,3.82,0,0,0,44.42,15.83Z"/><path class="cls-1" d="M43.91,14.62c-.14.11.06.23,0,.39H44c.09,0,.09-.07.12-.12-.18,0-.15-.17-.14-.27S43.93,14.6,43.91,14.62Z"/><path class="cls-1" d="M43.83,14.23c0-.09,0-.19-.11-.2,0,.14-.16.11-.24.18s0,.21.11.25,0,0,0,0c.2.08.36-.07.28-.27Z"/><path class="cls-1" d="M43.14,13.55c.18.11,0,.3.14.35s.3.11.39,0,0-.19-.15-.2-.05-.11,0-.19a.19.19,0,0,1-.09,0c-.14-.1.13-.17,0-.3s0-.08,0-.09a.1.1,0,0,0-.13.07c0,.05,0,.12,0,.19S43.07,13.5,43.14,13.55Z"/><path class="cls-1" d="M43,12.68c-.08,0-.21,0-.28-.1s-.07,0-.1,0,0,0,0,.05-.1.11-.05.16a.64.64,0,0,1,.13.17c0,.09.19,0,.22.08a.1.1,0,0,0,.15.07c.07,0,0-.15,0-.21s0-.08,0,0S43.12,12.7,43,12.68Z"/><path class="cls-1" d="M33.05,19.18h.05s0-.06,0-.1,0-.12,0-.15-.15,0-.12.1H33A.17.17,0,0,0,33.05,19.18Z"/><path class="cls-1" d="M44.08,17.4a.6.6,0,0,0-.52.12c-.34.18-.39.63-.6.88a.62.62,0,0,1-.52.23s-.11,0-.12-.09,0-.21,0-.29a.68.68,0,0,0,.2-.18.59.59,0,0,0,0-.47.62.62,0,0,0-.7-.44c-.3.06-.47.37-.64.64h-.06c-.11-.14-.26-.22-.34-.36a.06.06,0,0,1,0-.08c.12.06.23.24.35.17s0-.24-.07-.27-.21-.14-.34-.13-.2-.13-.24-.24,0-.38-.19-.43a1.89,1.89,0,0,1-.45-.17c-.07,0-.15,0-.22,0s0-.16,0-.16c.19,0,.42,0,.3-.23s-.14-.19-.26-.11-.11,0-.12.07,0,.08-.05.11.05.22,0,.27-.29.07-.43.17a.17.17,0,0,1-.1,0c-.12,0-.32-.18-.38-.12s-.11.25-.21.3-.21.05-.31.1-.07.28,0,.44a.14.14,0,0,1,0,.18c-.12.07-.14-.08-.17-.14a1.58,1.58,0,0,1-.1-.48c0-.17.2-.28.25-.43A.33.33,0,0,0,38,16a.29.29,0,0,0-.31-.14c-.3.08-.39.6-.69.47-.15-.06-.29-.22-.46-.3s-.18-.13-.29-.05a4.13,4.13,0,0,1-.69.36,1.29,1.29,0,0,0-.49.54c-.12.28-.63.43-.79.11a.48.48,0,0,0-.43-.28c-.16,0-.22.24-.4.28a.22.22,0,0,1-.25-.12.14.14,0,0,1,0-.09,2.6,2.6,0,0,1,.79-.46c.15-.05.17-.21.11-.36a.19.19,0,0,0,0-.09c0-.08,0-.2,0-.2a1.14,1.14,0,0,0-.87.63s0,.12-.07.12c-.24,0-.47.11-.67,0,0,0-.1-.3-.13-.27s-.15.22-.24.33-.09.08-.12.14.12.41.06.57-.25.09-.39.12-.07.14-.07.23.09.07.14.09.15.37.32.45.47,0,.73.1a.5.5,0,0,1,.36.32c0,.09.18.13.18.27a.23.23,0,0,0,.14.13c.07,0,.17-.05.25,0s.06.17.09.26,0,.35.14.52-.07.23-.15.32-.14,0-.15.09a.46.46,0,0,0,.07.4c0,.07.14,0,.16.05s.18.34.29.49a.52.52,0,0,0,.17.16.11.11,0,0,0-.08.15c.05.06.15.1.21,0a2,2,0,0,0,.28-.16c0-.06.14,0,.19-.09s.11.19.07.24-.36,0-.51.14-.21,0-.27.1a.13.13,0,0,0,.1.19c.33.07.07.55-.09.79,0,0,0,.14,0,.25a.12.12,0,0,1-.11.07,3.2,3.2,0,0,0-.93,0c-.1,0-.15.16-.2.28H33c-.09,0-.09.1-.11.15a.78.78,0,0,1,0,.22,1.84,1.84,0,0,0-.37,1.05c0,.11.13.18.2.18s.19-.09.26-.09.11.25.16.34.28.13.3,0,0-.27.08-.38-.12-.26-.15-.4a.35.35,0,0,1,.11-.34c.05-.06.14,0,.17.09s0,.18.06.28-.05.21,0,.28a.29.29,0,0,1,.06.24s-.06.07-.09.12,0,.26-.06.3-.09.21-.2.22-.56-.12-.48-.41c-.1,0-.21,0-.25.08s0,.3-.07.39a4.06,4.06,0,0,1-.26.36s.05,0,0,.08a2.19,2.19,0,0,1-.46.34s0,0,0,0-.29,0-.33.09.14.23.2.36a.15.15,0,0,1-.11.22,1.23,1.23,0,0,1-.54,0c0,.06-.05.05-.05.07s0,.29-.13.44,0,.23.11.32.12.25.22.28.15.09.22.08a.41.41,0,0,0,.33-.26c0-.1.19,0,.3,0a.37.37,0,0,0,.11,0c.08-.1,0-.24,0-.3a2.33,2.33,0,0,1,.58-.5.3.3,0,0,1,.3-.09c.08,0,.16.08.25.11s.16.11.24.16a.81.81,0,0,0,.13.06c.15.06.24.25.4.34s0-.07.06,0a.57.57,0,0,0-.09-.38c-.1-.15-.26-.22-.37-.34s0-.13,0-.2.07,0,.07,0,.18.08.27.13.14.35.32.44.14.18.25.2a.36.36,0,0,0,.42-.15c.05-.1-.06-.15-.12-.22s.06-.14.13-.22,0-.25,0-.39a.09.09,0,0,1,.05-.11l0,0c.07-.16,0-.34.07-.5s.06,0,.06,0a.2.2,0,0,0,.22.11.56.56,0,0,0,.33-.22c.11-.15.36-.06.41.08s0,.26-.09.29a1.58,1.58,0,0,0-.73.29s-.07,0-.08.08a.25.25,0,0,0-.1.34c0,.07-.08.14-.14.2.11,0,.11.18.21.2a.46.46,0,0,0,.47-.08.3.3,0,0,0,.05-.22c.12,0,.2-.13.32-.16s.4.24.33.46c0,0-.08,0-.1.05-.13.21-.23.41-.43.5s-.7.12-1,.28c-.11.07-.14.26-.3.31s-.32.11-.46,0v0c0,.1-.32,0-.48,0s0-.18-.09-.24-.16,0-.18,0,0-.12,0-.12c-.37-.07-.71.05-1.09,0-.1,0-.09.13-.17.19s-.14.1-.21.13-.31.18-.49.11a4.5,4.5,0,0,1-.44.1c-.24.05-.37.24-.56.38a.84.84,0,0,1-.49.1s0,.08-.06.08a1.27,1.27,0,0,0-.63.66c0,.07,0,.18,0,.25a3,3,0,0,1-.38.58s0,.07,0,.1c.2.28.44.47.65.75.05.08.15.08.18.16s.2.34.29.51a.67.67,0,0,0,.78.24c.11,0,.23.07.33.09a1.77,1.77,0,0,0,1-.06c.47.15,1-.06,1.4.15.08,0,.08.18.14.28a1.42,1.42,0,0,0,.4.51,1.22,1.22,0,0,0,.58.2c.06,0,.07.15.12.21s0,.21.11.27.19.17.18.31-.2.32-.08.55c0,.07,0,.19,0,.23a7.79,7.79,0,0,0,.85.76s.09.07.07.14.14.16.22.23,0,.2.09.28.24.26.36.38.4.12.6.16l.15.08a.58.58,0,0,0,.56,0c.09-.07.17-.22.27-.27a1.18,1.18,0,0,1,.55-.15.14.14,0,0,0,.12-.07c0-.12.13-.17.12-.28a.85.85,0,0,0,.37-.15,3.6,3.6,0,0,0,.64-.55c.22-.21.6-.12.72-.35s0-.55.06-.81a1.36,1.36,0,0,0,.15-.41,4.19,4.19,0,0,0,0-.71c0-.13-.15-.27-.13-.4s.18-.1.21-.18a4.79,4.79,0,0,1,.26-.56s.08-.06.14-.09,0-.16,0-.25-.1-.1-.14-.15a1.69,1.69,0,0,0-.71-.69c-.08,0-.09-.11-.12-.17s0-.12,0-.15-.06-.13-.08-.19h.08a.05.05,0,0,1-.05,0,1.35,1.35,0,0,1,.34-.5s.16,0,.17-.09a.69.69,0,0,0-.05-.49c-.12-.2,0-.41,0-.6a2.73,2.73,0,0,0-.21-1.1.21.21,0,0,0-.27-.15c-.07,0-.06.1-.1.15a.48.48,0,0,0-.08.23c0,.12-.23.17-.27.3a1.13,1.13,0,0,1-.08.22c-.06.06-.12.15-.2.16a3.59,3.59,0,0,1-.41.11,1,1,0,0,1-.45,0c-.81-.23-1.5-.54-2.31-.76,0,0,0-.06,0-.07s.26,0,.39,0,0-.15,0-.15a2.86,2.86,0,0,1,.47.22,8.55,8.55,0,0,0,1,.22c.28.06.47.26.73.32s.37-.1.54-.17c0,0,0-.07,0-.09s.23-.22.28-.35,0-.25,0-.37.12-.1.15-.16a2.27,2.27,0,0,0,0-.52c.09,0,.17-.1.14-.15s0-.07,0-.09a1.65,1.65,0,0,1,0-.31,1.1,1.1,0,0,0-.12-.72.28.28,0,0,0-.33-.12s-.05.09-.09.12a.58.58,0,0,0-.3.12c-.1.09-.1.26-.19.34a1.77,1.77,0,0,1-.5.34c-.13.06-.32,0-.34-.12-.13-.33.32-.27.55-.33a.4.4,0,0,0,.1-.12c.07-.12.09-.28.22-.35a.46.46,0,0,1,.26,0c.08,0,.14-.1.23-.15s.06-.16.08-.23.19-.2.25-.32.14-.63.35-.82.06.18.11.24a.33.33,0,0,0,.41,0c.07-.08,0-.26.12-.33a.48.48,0,0,1,.17,0c.1.07.21.17.31.11s.14-.14.21-.17.25,0,.37,0c.29-.14.9,0,.87-.23a1.46,1.46,0,0,0-.82-1c-.32-.15-.2-.6-.49-.85-.07,0,0-.16-.1-.24l-.1-.08a.39.39,0,0,1-.09-.08c0-.24-.07-.46.06-.66s.2-.14.29-.21S42,20,42,19.85a2.82,2.82,0,0,1,0-.58c0-.06.13-.12.19-.12a1.67,1.67,0,0,0,1-.12c.07-.07.08-.17.13-.23.24-.35.61-.62.59-1.07,0-.09.12-.11.15-.2S44.11,17.4,44.08,17.4ZM37.64,25s0,.07,0,.08a.12.12,0,0,1-.2-.06c0-.09-.09-.19-.18-.22a.15.15,0,0,0-.2.08c-.09-.07-.18,0-.26,0s-.11-.13-.18-.22a.18.18,0,0,1,.07-.29c.1,0,.18,0,.21.15s0,0,0,0,0,.06,0,.09.19,0,.29.05.26,0,.39,0,0,.07,0,.07a.19.19,0,0,1,.16.25S37.69,25.06,37.64,25Z"/><path class="cls-1" d="M24.56,49.66c1.82-2.7,7.32-5.58,12.72-5.58s11.28,3.13,13.6,1.47c0,0-2.37,2.05-7.15,2.05s-6.6-2.41-9.92-2.41-6.85,2.69-8.31,5Z"/><path class="cls-1" d="M41.63,43.68A6.81,6.81,0,0,0,44,41a20.57,20.57,0,0,1,5.2-6.21s-2.46,7.75-5,8.1c0,0-.4.24.31.12s3.95-1.31,5.11-1.51,3.95-.83,4.7-1.58,1.06-.54,1.06-.54-3.12,5.21-8.73,5.21A30.8,30.8,0,0,1,41.63,43.68Z"/><path class="cls-1" d="M48.28,41A5.59,5.59,0,0,0,49,38.54a20.55,20.55,0,0,1,3.76-9s.4,6.13-2.66,9.89c0,0-.18.55.21.15a34.05,34.05,0,0,1,6.49-5.54S59,32.29,59.07,31.7C59.07,31.7,57.38,40.41,48.28,41Z"/><path class="cls-1" d="M53.55,35.18a9.44,9.44,0,0,0,.23-1.82c0-.83-.36-3.68-.36-4.95a10.81,10.81,0,0,1,1.11-5.23,6.35,6.35,0,0,0,.31,2,16.45,16.45,0,0,1,.68,3.47,10.93,10.93,0,0,1-.64,3.6,2.69,2.69,0,0,0,.84-1.06,17.87,17.87,0,0,1,3.13-4,7.41,7.41,0,0,0,2-3.12A8.93,8.93,0,0,1,59.12,30c-2.1,3-3,2.49-4.11,3.73C55,33.68,53.7,35.27,53.55,35.18Z"/><path class="cls-1" d="M56.82,28.34a7.81,7.81,0,0,0-.39-2.29,14.94,14.94,0,0,1-1.82-8.38s.31-.28.91,1.42S57,21.3,57.22,23a17,17,0,0,1,.28,2.4s.19.24.19,0a14.34,14.34,0,0,1,1.16-4.58c.94-2.09,2.2-4.07,2.09-5.46,0,0,.55,0,.46,2.3S60.74,23.88,56.82,28.34Z"/><path class="cls-1" d="M57.86,21.42a11.19,11.19,0,0,0-1.16-2.1c-.47-.5-3.76-5.29-4-7.47,0,0,.27-.15.59.4a19.16,19.16,0,0,0,2.17,2.37,7.05,7.05,0,0,1,2.1,3.92s.16.2-.15-3,1-5.21-.08-7.43c0,0,1.55.24,2.37,6.72A15.29,15.29,0,0,1,58.45,20S58.05,21.42,57.86,21.42Z"/><path class="cls-1" d="M56.66,14.31a14,14,0,0,0-2.22-1.86c-1-.6-4.06-3.64-4.61-6,0,0,.19-.26,1.18,1,.75,1,1.53.51,3.8,3.37,0,0,.31.63.47.58s-.08-.66-.08-.66a22.38,22.38,0,0,1-.48-2.42,21.16,21.16,0,0,0-1.26-4.42s3,1.73,3.49,6.64A32.86,32.86,0,0,1,56.66,14.31Z"/><path class="cls-1" d="M54.05,9.08s.21-4.27-5.43-6.45c0,0,2,4,3.42,5A14.73,14.73,0,0,1,54.05,9.08Z"/><path class="cls-1" d="M39.66,49.66c-1.82-2.7-7.33-5.58-12.73-5.58s-11.28,3.13-13.6,1.47c0,0,2.37,2.05,7.16,2.05s6.61-2.41,9.93-2.41,6.82,2.69,8.29,5Z"/><path class="cls-1" d="M22.59,43.68A6.94,6.94,0,0,1,20.16,41,20.34,20.34,0,0,0,15,34.79s2.45,7.75,5,8.1c0,0,.4.24-.31.12s-4-1.31-5.11-1.51-4-.83-4.71-1.58-1.07-.54-1.07-.54,3.13,5.21,8.75,5.21A31,31,0,0,0,22.59,43.68Z"/><path class="cls-1" d="M15.93,41a5.75,5.75,0,0,1-.71-2.46,20.5,20.5,0,0,0-3.75-9s-.4,6.13,2.64,9.89c0,0,.21.55-.19.15a33.93,33.93,0,0,0-6.5-5.54S5.25,32.29,5.14,31.7C5.14,31.7,6.84,40.41,15.93,41Z"/><path class="cls-1" d="M10.67,35.18a9.44,9.44,0,0,1-.23-1.82c0-.83.35-3.68.35-4.95a10.8,10.8,0,0,0-1.1-5.23,6.16,6.16,0,0,1-.32,2,16.37,16.37,0,0,0-.67,3.47,10.6,10.6,0,0,0,.63,3.6,2.8,2.8,0,0,1-.84-1.06,18.25,18.25,0,0,0-3.11-4,7.37,7.37,0,0,1-2-3.12A8.93,8.93,0,0,0,5.1,30c2.1,3,3,2.49,4.11,3.73C9.21,33.68,10.52,35.27,10.67,35.18Z"/><path class="cls-1" d="M7.39,28.34a7.91,7.91,0,0,1,.4-2.29A15.06,15.06,0,0,0,9.6,17.67s-.31-.28-.9,1.42S7.28,21.3,7,23a17,17,0,0,0-.28,2.4s-.19.24-.19,0a14.65,14.65,0,0,0-1.14-4.58c-1-2.09-2.22-4.07-2.1-5.46,0,0-.56,0-.48,2.3S3.47,23.88,7.39,28.34Z"/><path class="cls-1" d="M6.36,21.42a11,11,0,0,1,1.15-2.1c.48-.5,3.75-5.29,4-7.47,0,0-.29-.15-.6.4a18.43,18.43,0,0,1-2.18,2.37,7.24,7.24,0,0,0-2.1,3.92s-.15.2.17-3-1-5.21.08-7.43c0,0-1.54.24-2.38,6.72A15.17,15.17,0,0,0,5.77,20S6.17,21.42,6.36,21.42Z"/><path class="cls-1" d="M7.55,14.31a13.47,13.47,0,0,1,2.22-1.86c1-.6,4.06-3.64,4.63-6,0,0-.21-.26-1.19,1-.76,1-1.55.51-3.8,3.37,0,0-.31.63-.47.58s.07-.66.07-.66a20.13,20.13,0,0,0,.48-2.42,21.17,21.17,0,0,1,1.27-4.42S7.7,5.64,7.28,10.55A32.58,32.58,0,0,0,7.55,14.31Z"/><path class="cls-1" d="M10.17,9.08S10,4.81,15.58,2.63c0,0-1.94,4-3.4,5A14.73,14.73,0,0,0,10.17,9.08Z"/></g></g></svg>
