<?xml version="1.0" encoding="UTF-8"?>
<svg id="Layer_1" xmlns="http://www.w3.org/2000/svg" xmlns:xlink="http://www.w3.org/1999/xlink" version="1.1" viewBox="0 0 149 37">
  <!-- Generator: Adobe Illustrator 29.3.1, SVG Export Plug-In . SVG Version: 2.1.0 Build 151)  -->
  <defs>
    <style>
      .st0 {
        fill: #009dda;
      }
    </style>
  </defs>
  <g id="Horizontal_blue">
    <g id="Horizontal_blue_RGB">
      <g id="Horizontal_white_text_RGB">
        <g>
          <g>
            <path class="st0" d="M48.6589811,19.4145533c-.0000006-7.1208704,5.1867196-12.6143552,12.5106794-12.6143523,7.3243104.0000028,12.5103262,5.4934915,12.5103269,12.6143619.0000006,7.1191074-5.1860142,12.6125922-12.5103246,12.6125894-7.3239599-.0000028-12.5106811-5.4934915-12.5106817-12.6125989ZM70.2225498,19.4145616c-.0000005-5.2559763-3.559692-9.5618416-9.052889-9.5618437-5.4938338-.0000021-9.0525373,4.3058605-9.0525368,9.5618368.0000005,5.2541428,3.5587048,9.5604312,9.0525386,9.5604333,5.4931971.0000021,9.0528878-4.3062836,9.0528873-9.5604264Z"/>
            <path class="st0" d="M95.0766371,12.5991216c-1.3567278-1.7626411-3.5941755-2.7463921-5.7986198-2.746393-5.3902403-.0000021-8.9506362,4.3058606-8.9506357,9.764299.0000005,5.0516806,3.3565953,9.357969,8.9506374,9.3579712,2.7470931.0000011,4.8475209-1.2196368,6.2716651-3.2209156l2.7471667,2.069473c-.711405.9820574-3.5934725,4.203609-9.0863189,4.2036069-7.6290983-.0000029-12.3416452-6.3743533-12.3416458-12.4101367-.0000007-7.4583073,5.1202923-12.8168173,12.5103265-12.8168145,3.155543.0000012,6.476951,1.1875547,8.4086934,3.7297916l-2.711269,2.0691183Z"/>
            <path class="st0" d="M102.2318458,7.4107059l3.2546906.0000012.0000009,9.968457,12.4428404.0000048-.0000009-9.968457,3.2553317.0000012.0000022,24.0070305-3.2553317-.0000012-.000001-10.9863387-12.4428404-.0000048.000001,10.9863387-3.2546906-.0000012-.0000022-24.0070305Z"/>
            <path class="st0" d="M134.8844172,7.4107185l2.9488499.0000011,10.2735874,24.0070345-3.7980435-.0000015-2.4069109-5.9350116-11.4263701-.0000044-2.371787,5.9350098-3.7986822-.0000015,10.5793563-24.0070265ZM140.714631,22.6351539l-4.4735563-11.0197668h-.0702338s-4.5424558,11.0197633-4.5424558,11.0197633l9.0862459.0000035Z"/>
          </g>
          <g>
            <g>
              <path class="st0" d="M17.9540174,15.6540066c-.0000002-1.8394365,1.4950869-3.3262739,3.3259182-3.3262732h0c1.8394347.0069116,3.3176679,1.4889548,3.3211235,3.3262757h0c-.0034553,1.8346412-1.4834512,3.3145676-3.3211229,3.3194328h0v-.2107835s0-.2100077,0-.2100077c1.6070019.0000006,2.9016722-1.2946705,2.901672-2.8986417h0c-.0000001-1.6073561-1.2977735-2.9033682-2.9016725-2.9033688h0c-1.6035465.0013393-2.9034352,1.2960104-2.9065379,2.9033666h0c.003103,1.6039712,1.3029919,2.8951879,2.9065384,2.898644h0v.2100077s0,.2107835,0,.2107835c-1.8308313-.0000007-3.3259187-1.4820438-3.3259188-3.3194353h0Z"/>
              <path class="st0" d="M15.3126332,15.6540056c-.0000003-3.2924955,2.6678991-5.9721031,5.9673022-5.9721018h0c3.2911523.0000013,5.967303,2.6775658,5.9673033,5.9721064h0c.0000003,3.2877002-2.6761499,5.9625124-5.9673022,5.9639215h0v-.207328s0-.2121233,0-.2121233c3.0556167-.0047942,5.5430563-2.4908957,5.5479219-5.5444703h0c-.0048661-3.0618255-2.4923062-5.5465185-5.5479229-5.5527254h0c-3.0638675.0062046-5.5396713,2.4908957-5.5462294,5.5527212h0c.0065586,3.0535747,2.4823629,5.5396781,5.5462304,5.5444746h0v.2121233s0,.207328,0,.207328c-3.2994031-.0000013-5.967303-2.6762259-5.9673033-5.9639261h0Z"/>
              <path class="st0" d="M12.4308475,15.6540045c-.0000004-4.8881454,3.9643322-8.8438774,8.8490877-8.8438755h0c4.8815821.0000019,8.8407675,3.9557369,8.8424604,8.8438823h0c-.001692,4.8799651-3.9608767,8.8390821-8.8424589,8.8390802h0v-.2107129s0-.2100783,0-.2100783c4.6492199-.0089542,8.4148281-3.7690646,8.4230785-8.4182891h0c-.0082512-4.656065-3.7738601-8.4161782-8.42308-8.4278863h0c-4.6509123.0117045-8.419694,3.7718149-8.4279444,8.4278798h0c.0082512,4.6492245,3.7770335,8.4093378,8.4279459,8.4182956h0v.2100783s0,.2107129,0,.2107129c-4.8847555-.0000019-8.8490888-3.9557369-8.8490893-8.839087h0Z"/>
              <path class="st0" d="M9.6796641,15.6540034c-.0000006-6.4163078,5.1904572-11.6054294,11.5985078-11.605427h0c6.4118587.0000025,11.6089462,5.189128,11.6089468,11.6054359h0c.0000006,6.4067172-5.197086,11.5999994-11.6089447,11.5999969h0v-.2100783s0-.2107129,0-.2107129c6.1794259-.0117039,11.1777881-5.0066142,11.1878014-11.1792059h0c-.0100143-6.182817-5.0083775-11.1756861-11.1878034-11.1860549h0c-6.1776629.010364-11.1674217,5.0032293-11.1791274,11.1860463h0c.0117068,6.1725917,5.0014665,11.1675058,11.1791294,11.1792145h0v.2107129s0,.2100783,0,.2100783c-6.4080506-.0000025-11.5985093-5.1932887-11.5985099-11.6000058h0Z"/>
              <path class="st0" d="M6.6343433,15.6540022c-.0000007-8.0904462,6.5568458-14.6541377,14.6438283-14.655545h0c8.0890982.0014135,14.6476383,6.5651101,14.647639,14.6555562h0c.0000007,8.0891063-6.5585382,14.6439124-14.6476364,14.6439093h0v-.2121233s0-.2086679,0-.2086679c7.8567359-.0131137,14.214858-6.364682,14.228256-14.2231182h0c-.0133994-7.8583657-6.3715227-14.2217157-14.2282586-14.2361753h0c-7.8549024.0144535-14.211332,6.3777986-14.226493,14.2361644h0c.0151624,7.8584363,6.3715932,14.2100094,14.2264956,14.2231291h0v.2086679s0,.2121233,0,.2121233c-8.0869826-.0000031-14.6438302-6.5548142-14.643831-14.6439205h0Z"/>
              <polygon class="st0" points="21.0643571 12.5419722 21.0643561 1.2105805 21.4871919 1.2105806 21.4871929 12.5419724 21.0643571 12.5419722 21.0643571 12.5419722"/>
              <polygon class="st0" points="10.929201 5.5904863 11.2263708 5.2950793 19.2287305 13.3022447 18.9295156 13.5990621 10.929201 5.5904863 10.929201 5.5904863"/>
              <polygon class="st0" points="6.8413185 15.8613303 6.8413185 15.4453345 18.1626851 15.4453388 18.1626851 15.8613347 6.8413185 15.8613303 6.8413185 15.8613303"/>
              <polygon class="st0" points="10.9292028 25.7024303 18.929516 17.7124778 19.2287309 18.007885 11.2263727 26.001293 10.9292028 25.7024303 10.9292028 25.7024303"/>
              <polygon class="st0" points="21.0643587 30.0857993 21.0643576 18.7626584 21.4871935 18.7626585 21.4871945 30.0857995 21.0643587 30.0857993 21.0643587 30.0857993"/>
              <polygon class="st0" points="23.331494 18.0078866 23.6289459 17.7124796 31.6323634 25.7024382 31.3351936 26.0013007 23.331494 18.0078866 23.331494 18.0078866"/>
              <polygon class="st0" points="24.3906285 15.8626769 24.3906285 15.4453412 35.717143 15.4453455 35.717143 15.8626813 24.3906285 15.8626769 24.3906285 15.8626769"/>
              <polygon class="st0" points="23.3314936 13.3022463 31.3351917 5.295087 31.6323616 5.5904942 23.6289455 13.5990639 23.3314936 13.3022463 23.3314936 13.3022463"/>
            </g>
            <g>
              <path class="st0" d="M19.0548293,16.5912847c.1270764-.0150912.1053564.0971057.148726.1673434,0,.0028208.0334263.0028208.0516909,0,.1920955-.2072574.3123315-.4510441.360849-.7368605,0-.0220022.0533834-.0468251.0533834-.057121-.0282784-.128769-.1669906-.1722092-.2286247-.280316-.0720006.1900506-.2658591.0351187-.4111296.1287689-.001763.0027503-.0134692.0550759.025105.069603.0516204.0254576.1270764.0020451.143578.0419593.0351188.0502806.0351188.1384302-.0165016.2024621-.0069109.0144565-.048588.0117063-.048588,0-.0750329-.1473157-.195551-.1273587-.3308782-.1273588.0568388.0488702-.0433696.0351188-.0199571.0633267-.1870181-.0495754-.3674074.0406192-.5478672.0571913-.0550759.0068404-.1270764-.0365293-.175594-.0853995-.0650896.0688272-.1418855.203802-.2437864.1652981-.0351188-.0151618-.0936501-.096471-.0550759-.1164281.1035934-.0619868.195551-.1342695.2437864-.2341254.0402667-.0819439,0-.1790496.045062-.2609935.053736-.1067668.1387827-.2066227.2389911-.1983719.1136072,0,.3222748.0998561.4176879-.0234124.0351188-.0316633.1053564.0681926.1470335.1150177.0151617.0151617-.0082508.0399142-.0251755.0605764-.0684746.0681925-.1752413.0751034-.217271.1770044-.0316633.0702376.0086034.1301794.0619868.1487261.0868097.0399847.1136777-.0784884.1552843-.1390648.048588-.0585314.1002084-.0096612.1470335,0,0-.017912-.0047953-.04478,0-.04478.1019714-.0303234.2172711-.0137513.3240378-.0137512.1253134,0,.0585313-.2554929.046825-.4076745,0-.0330738-.0034555-.0764434,0-.1136778,0-.017912,0-.0399142.0117063-.0578262.0368818-.0840595.1987244-.107472.2238294-.0186171.0034555.0316634.0100138.0585314.0186172.0853994.0082508.04478.0299003.0716481.0867392.0447801.0134693-.0082508.0299709-.0213675.0334263-.04478.0216495-.0488702.0117063-.1274291.0433696-.1542266.0485175-.0495753.1170626.0757382.195551.0874445.0785589.017912.1652981.0179121.2303877-.0268679.0550758-.0337789.0550758-.0984455.0082508-.1638878-.0182646-.0303235-.0633267-.0351188-.0733404-.0213675-.07193.0751035-.1652981.0564862-.2437864.0564862-.073693,0-.1088118-.0901948-.170446-.1336349-.0685451-.048165-.1538739.0502805-.2337727.016572-.075456-.0351189-.1136777-.1081773-.0702376-.1784149.0181941-.0337084.0702376-.0667822.1136072-.0922398.0932975-.0468251.2004169-.046825.2520372-.1267239.0402667-.071648.0654422-.1604324.0702376-.2424468.0052185-.0447095.0502805-.0447095.0751034-.05021.1088118-.0379396.2324328-.0117062.3274228-.0586018.1088118-.041254.1921661-.1349747.2992149-.2086678.0516909-.0282079.1019714-.0598712.1618426-.0736225.0303235-.0083213.046825-.0599417.053736-.0813092.02172-.182505-.0285605-.3511882,0-.5433545.0131167-.0502806.0901946-.0819439.0516909-.1370198-.0117768-.0199571-.0868097.0137513-.1054269-.0117063-.0416066-.0351188-.0784884-.1067669-.0165016-.1453412.046825-.0413245.148726-.0047953.1835627-.0702376.0619163-.0867392.0302529-.2499924-.0681925-.282361-.0988686-.0495754-.2090203.0420297-.3226274.0186171.0133987.0433696-.0468956.0585314-.0633972.0585313-.1404752.046825-.1521814-.126724-.1270764-.2224193,0-.0200276.0134693-.0317339.028631-.0248229.0333558.0047954.0399141-.0420297.0464724-.0819439-.0316633,0-.071648-.0034555-.1002084,0-.123621.0619868-.1786968.1942113-.3023177.2575379-.0148091.0131167-.0148091.0365292-.0048659.0564863.0048659.0151617.0234125.0385743.0416771.0303235,0,.0784885.0251755.2086679-.1084592.1770045-.0117063-.0048659-.0117063-.033779-.0216495-.0365292-.0334263-.0254576-.1105748-.0433697-.1288394,0-.0216495.0881497.1587398.1280639.1153702.2169187-.0702376.1232685-.2406836.1466809-.3808061.2134631-.294067.1157228-.5981477-.0165018-.9107614.0502802-.1636056.0317338-.3305961.0103663-.5027346-.0364589-.1219285-.0234126-.145341.0832837-.2086676.1652982-.0051479-.0151617-.0134693-.0317339-.0351188-.024823-.0082508-.0640319.0299708-.1122674.0148091-.1770045-.0065583-.0502806-.0868097-.0440749-.1050743-.0853994-.2038018-.3842621-.6982857-.3360268-1.0742965-.2727002-.0702376.0069109-.096753.0784884-.1418855.1219286-.0767959.0688272-.1821523-.0096613-.2657886.0454146-.0365292.0234125-.0516909.0771486-.0833542.0833543-.1136072.0316633-.2337727-.0833544-.3308782-.0234127-.0650896.0550759-.145341.0633267-.2138156.0956952-.0234125.017912-.0234125.069603-.0317338.1150177,0,.0330738-.0567683.0248229-.0750329.0248229-.1053564.0337084-.2606406-.0213676-.2806682.1287689h.0382217c.0420297.1205182-.018194.255493-.1318717.302318-.1301088.0454147-.2740394.0351187-.4025262.0867391-.0619868.0220727-.1452705.0819439-.168683.1391354-.2038723.3608494-.3977308.7313599-.4111295,1.1459454v.04478c0,.026868.0433696.0516205.0433696.0619869-.1987244.4276315-.3322886.6445502-.5643687,1.0543402-.0954131.1652982-.2090202.5695172-.0385742.7065371.0850467.0702377-.046825.2389913-.170446.2472421-.1569768.0069109-.3674074-.0316635-.4242463-.2038022-.0285605-.0736931-.1587398-.0868098-.2588777-.1005612h.0133987s-.0753855-.0082508-.0753855-.0082508c-.1167806,0-.242094-.024823-.3405394.0082507-.1787673.046825-.192166.2554929-.2724174.3980132-.0550758.1267239-.2606406.0950605-.3209349.2155787-.0299003.0516204.028631.1384302-.0165016.2134632-.0316633.0502806-.1002084.0502805-.1187551.1067668-.0117063.0316634-.0200276.0771486-.0399846.1074015-.0451326.1652982-.0767959.3154347-.0385742.4793226.0034555.0468251.0034555.0950606.0169247.126724.0416066.1722092-.0134692.3209353-.0885021.4614105-.1119147.1618427-.3092287.1618427-.4896885.2183289-.0750329.0337084-.1669905-.0447801-.2589482-.024823-.2055648.0385742-.4059111-.0481651-.6011801.018617-.0117063.0062057-.0502805.0316633-.0667821.0468251-.100561.0399141-.1353272-.0722828-.1921661-.1205183-.0602238-.0599418-.0667821-.1652983-.1287689-.1969616-.118473-.057121-.2806682.0082507-.3643045.1267238.0554284-.0069109-.0014104.0633267.0420297.0633267-.1305319.0069109-.2289773.1205181-.3291857.1673432-.1318717.071648-.1621952-.1604324-.1739015-.2988627-.0131167-.0702377-.1250314-.1156524-.2255219-.064032-.0165721.0206623-.0382217.0371639-.0382216.0736931-.0299709,0-.0551464-.0365292-.0837068-.0096612-.0885022.098516.0685451.0868098.1153702.1453412.0299709.0282079-.0082508.0633267-.0416771.0867392-.0451326.0365292-.1136072-.0385743-.1205181,0-.02172.0667822-.0616342.1019715-.1150176.0819439,0,.0200276-.0086034.0248229,0,.0385743,0,.017912.0148091.0316634.0334263.017912-.0502805.0199571-.1002084.0516909-.1370902.0234125-.0468251-.0234126-.0316633-.0998559-.0468251-.1618428-.0099433-.0137514-.0616342,0-.0616342.0199571-.0168542.1005611.0100138.1322245-.098798.1384302.0117063.0372344-.0282079.1005611.025105.1102223.0568388.0289131.1253839-.0351188.1753119,0,.0801809.081944.0702376.2093731.0936501.3243203,0,.0069109-.0234125.0151617-.0351188.0151617.0216495.0599418.0351188.2121234-.0516909.146681-.1053564-.0612817.0165721-.2134632-.0450621-.3085238-.0117063-.0185467-.0751034-.0068404-.1253839-.0068405.0619868.1535215-.07193.3153642.0619868.4627505.0516909.0667822-.1587397.1570474-.0819438.2369463.0451326.0454147.123621.0901948.1904031.1039461.0368818.0027503,0-.0771486.0117063-.1039461.0117063-.0351893.1219285-.0730584.145341-.0234125.0117063.0337084.0282079.075033.0282079.1273586-.0516204-.0137514-.1050038.0117062-.1483734.0316633.0433696.0985161-.0203096.1667086-.0368818.2624039,0,.0199571.0317339.0578262.0368818.0833543.0265154.075033.1501363.0068405.1887106.0681926.0282079.0502101-.0568388.1074015-.028631.1755941.0217201.0454147.0954131.0185467.1270764.057121.0468251.0282784.0299709.0881497.0251755.1453412.0468251-.0055005.1201655.0447801.1002084.1067669.0550759.021297.0667821-.0420297.0616342-.080604.1235504.0055006.0736225-.1136073.0870918-.2100782-.0420297.0213675-.0385743-.0667822-.0870918-.0316634-.0231305-.0667822.0051479-.1404753-.0231305-.2004171-.0333558-.0688273-.1339168-.083989-.148726-.1755942.0850467.0186172.148726-.0117062.2021093-.1019009.0299708-.0454852.1050038.0199571.1353272.081944.0148091.0151617.0048659.0330738.0048659.0585314.0767254-.0254576.0767254.0530309.1053564.0881497.0633267.0433697.0836363.1205182.1552843.1508418.1088118.0316634.2155081.0316634.3257303.0110012-.0100138-.0495754,0-.1012663.0285604-.1184731.0482354-.0433696.0733404.0502806.1336348.0551465-.026868.1074015.0282079.1955512.1153702.2492873.0216495.0047953.0581787-.0083213.0784884.0047954.0347662.024823.0499279.0819439.1002084.0985161.0351188.0082508.0715774-.0165721.1019009-.0117062.0550759.0117063.0550759.057121.0650897.1156524.0065583.0047953.0351188.0234126.0351188.0433696.1019009-.019957.2155786.0062058.2437865.0950607.0516204.1301794.143578.2320805.2021094.3491432.0234125.0599418.1270764.0798989.1404752.1336349.0065583.0447095.0365292.0736931.0533834.0832838.0667821.0771486.1669906.1005612.2655065.1253842.0351188.0137514.0919576-.0551464.1538739-.0833543.0317338-.0102959.0685451.0213675.0733404.0282079.0937206.1522521.1171332.3595096.2672695.4463195.077078.0447095.0987981.1370199.1786968.1583874.0485175.0117063.1070488-.0385742.1556369,0,.0316633.0234126.0416771.0887844.0667821.0936502.1102222.0516205.1969614.1184027.2203739.2389209.0034555.0186172.0151617.0564863.0451326.0633973.1002084.0117063.1838447-.0585313.2372281-.0069108.073693.0688978.168683.1005612.2337727.1687538.0200276.026868.075456.0468251.0936501.0268681.026868-.0330737.0134692-.0950606.0351893-.1267239.0282079-.0550759.1019009-.0365292.1552843-.0550758.0667821-.026868.073693-.1522521.1452705-.1570474.123621-.019957.172209.1301795.2706545.1887109.0065583.0117063.0451326.0234126.0585313.0364587.1084592.0585314.0602943.2541531.1887106.2671993.1521814,0,.2320802.13568.3674074.160503.1019009.0316634.1838447.057121.2758024.1136074.0299709.0199571.0819438.0199571.1170626.006911.0581787-.0220727.1102222-.0482355.1570473-.0819439.1301088-.0819439.2988623-.0881495.430734-.1756645.0285605-.0199571.0568388-.0564158.0936501-.0695324.219034-.0956952.4628205.0833545.6900348-.0371636.0551464-.0248229.1319423-.0248229.1987244-.0702376.1370197-.0950605.1770043-.2885667.1335642-.4394084-.09499-.2389209-.1786969-.4875735-.3456874-.694831-.0802514-.1019716-.1887106-.1583874-.2840532-.262404-.0182646-.0282079-.0950605-.0199571-.1401931-.0399142-.0901946-.0399847-.0753855-.1453412-.0585313-.234196,0-.0316634-.0971056-.0316634-.1136072-.0633268-.0316633-.0564863,0-.1232685.0082508-.18046.0051479-.0261628-.0333558-.0495754-.0399141-.0495754-.1287689-.0254577-.2455494-.0839891-.3760108-.0640321-.0416771.0055005-.0802514-.0399142-.118473-.0633973-.0234125-.0199571.0065583-.0633267.0248229-.0702376.0753855-.0633267.1638877-.1081067.2575378-.1432255-.0334263-.0454147-.0368818-.1156524-.0086034-.1322245.0502805-.0502805.0368112-.1404753.0203096-.1900507,0-.0186172-.0203097-.060647-.0702376-.060647.0099433-.1218581.0802513-.2155083.0099432-.3222751-.0767254-.101901-.1821523-.1604324-.2089498-.2906119,0-.0130461-.0633972-.0454147-.0633972-.0654423,0-.146681.0451326-.3085238.0151617-.4572499-.0217201-.0640319-.0936501-.1391355-.0385743-.1770045.0234125-.0185467.0784884-.0585313.1270764-.0702376.1036639-.0385743.1387827-.1088119.0867392-.1790496-.0516204-.0716481-.1569768,0-.2337727-.024823-.0351188-.0102959-.0402667-.0351188-.0433696-.0688273-.0186172-.0599418.0433696-.1549318-.0134693-.1887108-.0468251-.0165016-.0901946-.0633267-.1119147-.0950606-.0485175-.075033-.0082508-.1604324.048588-.2354653-.0334263.0033849-.0186172-.0585314-.0568388-.0385743-.0117063-.078559.046825-.1673433.0131166-.2355359-.0248229-.0702377-.0833542-.1570475-.1700934-.1184732-.0086034,0,0,.0248229-.0086034.0248229-.046543.0454147-.1019714.0571209-.1518993.0137513-.0099433-.0137514-.0099433-.057121,0-.0901947.0351188-.0440748.1053564-.0255281.143578-.0571914.0702376-.0715775.0083213-.1686832-.025105-.2072575-.1067668-.0936502-.1518288-.1770046-.1284163-.3092291-.1219285-.0165017-.3092287-.0316635-.3009779-.2031674.0086034-.1508417-.0265154-.2892014-.0633267-.4427934-.0299709-.1074721-.0234125-.2190343.045062-.2961123.0182646-.0234125.0403372-.0668527.073693-.0702376.1570473-.0213674.3505532.0117064.439408-.136385.0564157-.1074015-.0654423-.2726998.0299003-.3429374.1605027-.1198835.4008337-.0399845.5963847-.1515467.0602943-.0454147.0516909-.128769.0334263-.1955512-.025105-.0751035-.0736931-.153592-.1153702-.2238297-.0667821-.0985161-.2237589-.0502807-.2688915-.1556371-.0217201-.0564863-.0217201-.1150177,0-.1652982.0351188-.0771486.1019009-.1473862.1821523-.1852553.1770043-.0688272.3439949-.0172067.4944838.0702378.0485175.0261628.09499.0798989.1287689.1336349.0099433.017912.0165016.04478.0265154.0667822.0468251.2004171.1153702.4138803.0468251.5963853-.0316633.0612816-.1071193.0998559-.0868097.1949165.0499279-.0413245.0685451.0254576.0685451.0406194.0365292.1370198.1167101.3257307,0,.4104248-.1470335.0902652-.1353272-.0296183-.2875086-.0000001-.0751034.008956-.1318718-.0130462-.123621.0551464.0051479.0406194.0633267.1308141.1002084.1425204.3542908.0901949.5378534.1184733.9104088.1783447.0784884.0186172.1387827.1122675.2324328.1253842.0685451.0102959.1452705.0468252.2220664-.0447799.0234125-.0316633.0950605,0,.1036639.0199571.0182646.071648.0616342.0716481.1084592.0964005.1136072.0551465.0767959.3443479.2272849.2506977.0801808-.0530308.1504889.0055006.2406836-.0131166-.0901946.123339-.0437222.2451971.0433696.334052.069885.0867393.1718564.126724.2572557.2072576.0667821.0764434.1735489.0564864.1834921-.0502805.0168542-.1136073-.1050038-.2458318.0402667-.3442773.1401931.1990067-.0402667.4462488.1067668.6280487.0103664.0185467.0186172.026868.026868.0440748.0667821.0832838.121858.1700936.2103601.1597273.0654422-.0212969.0919576-.0832838.1236209-.1514763.001763-.0254576.0117063-.0523256.0186172-.0571915.0100138-.0647371.0365292-.1081067.0550758-.1638878.0316633-.0881496.1418855-.1583873.1236209-.2602883,0-.0316634-.0082508-.0736931-.0082508-.1005611.0082508-.1384302.1600796-.2265798.292304-.2031672.0382217.0082508.0100138-.0234125.0451326-.0502805.0568388-.0433696.0433696-.1741837.0950605-.2389208.0433696-.0571915.0936501-.1122674.1236209-.1687537.0216495-.0365292.0636792-.0784884.046825-.128769.0516204,0,.0516204-.0681926.1019009-.0751035Z"/>
              <path class="st0" d="M14.8718854,16.3509519c-.0551464-.0385743-.1002084-.0102959-.1370902.0282784-.0368113.0385038-.0433696.0867392-.0185467.1170627.0267975.0468251.0554285.101901.0602238.1487261,0,.0998559-.025105.1969616-.0082508.3037285.0234125.0798989.1167101.2224193.168683.1287691.0586018-.1040166.1487965-.2589484.0785589-.384262-.0568389-.1170628-.0199571-.2706547-.143578-.3423028Z"/>
              <path class="st0" d="M14.676264,17.2241976c.0151617.0371639.0316633.0619869.0468251.1005611.0282784.0819439.1618426.0433697.2104307-.0138218.0068404-.0316634,0-.0867393-.0368818-.1163576-.0364587-.0420298-.096753-.0351189-.1284163-.057121-.0251755-.0069109-.051973-.0351894-.0702376-.026868-.0299709.026868-.0299708.0757382-.02172.1136073Z"/>
              <path class="st0" d="M14.9117997,17.6153706c0-.1521816-.1353272-.1990067-.2355357-.106767-.1287689.1067668.0217201.300273.1184731.4394085.0151617.0330032.0334263.0784885.053736.1150177.0468251.0502101.1370197.0316634.1669905-.0248229.0234125-.0523256.0416771-.0702376.0702376-.1219286.0382216-.1074015-.0234126-.3009077-.1739015-.3009077Z"/>
              <path class="st0" d="M14.6129373,16.8185681c0-.0234125-.0385743-.0234126-.0468251-.0199571-.0602943.0199571-.0767959.0681925-.0868097.1232684-.0168542.0805335.0100138.155637.0650897.2155788.0248229.0337084.0685451-.0069109.0868097-.0599417.0368113-.0819439-.0117063-.1707988-.0182646-.2589484Z"/>
              <path class="st0" d="M15.0288623,17.4246148c.0217201-.017912.0667821-.0564863.0568388-.1067668.0382217.0069109.0802514,0,.1067668-.04478.025105-.0199571-.0265154-.0488702-.0134693-.0784885-.0833542-.0234126-.1401226.0585313-.2052122.1163575-.0585313.0571915.0217201.1391354.0550759.1136778Z"/>
              <path class="st0" d="M14.9251984,18.3150673c-.0133987.0771486,0,.1273586.0516909.1439308.025105.0068404.073693.0185467.073693-.0165721.0065583-.0468251.0364587-.0922398.0065583-.1335644-.0065583-.0069109-.0282784,0-.0334263,0-.0468251-.0254576-.0650896.0413245-.098516.0062057Z"/>
              <path class="st0" d="M15.1859097,19.051928c.0234125-.0585314.0750329-.1184731-.0199571-.1770045-.0186172-.0068404-.0654422-.0068404-.0937206-.0068404,0,.0887843.0516909.159022.1136777.183845Z"/>
              <path class="st0" d="M8.8442888,21.535983c-.0182646.0102959-.025105.1053565,0,.1301089.0285605.0323686.1053564.0206623.1504889.0206623-.0334263-.0770781-.0285605-.2141684-.150489-.1507712Z"/>
              <path class="st0" d="M9.4992049,22.1977403c-.0568388.1019715.0667821.2121234.2155786.2252401,0-.0495754.0182646-.1115622-.0082508-.1501365-.0520435-.0702377-.1804598-.1322246-.2073278-.0751036Z"/>
              <path class="st0" d="M9.7915794,22.5937792c-.0169247.1817998.0550759.303658.2389206.3291862.02172-.1921662-.051973-.3044337-.2389206-.3291862Z"/>
              <path class="st0" d="M19.8468357,17.483148c.1652275-.0530308.3707923-.0985159.5642983-.0985158.4379976-.0095905.4128925-.5660617.6367219-.9186602.0485175-.0867392-.026868-.2809506-.0885022-.3725557-.148726-.2389914-.6132389.0337082-.7183132-.2190345-.0619868-.1418152.3123316.0902654.3474503-.1315192.0065583-.0585314-.0285605-.1322245-.0736931-.1542267-.0598712-.0344842-.1770043-.0413246-.2238294,0-.2354651.1975962-.2789052.5384885-.3990707.7623181-.2506973.4324974-.7000486.7451817-.9389691,1.2278891-.0385742.071648.0168542.1301794.0767959.1570475.3274228.1101519.5512521-.1956215.8171112-.2527424Z"/>
              <path class="st0" d="M21.6390926,16.4094858c-.0616342.0213675-.1301793.037869-.1618426.0813092-.026868.0640319-.0368818.1673433,0,.2258747.0199571.0282079.1184025.0330033.1452705,0,.046825-.0502805-.0168542-.1122674-.0702376-.1418857.0533834-.0468251.1071193-.083989.0868097-.1652982Z"/>
              <path class="st0" d="M20.316144,17.9162803c.1387827.1652983.4944838.1102225.4559096-.04887-.0416771-.1384302-.2772128-.2169188-.437645-.1700937-.1019714.0316633.1803893.1487262-.0182646.2189637Z"/>
              <path class="st0" d="M20.7806571,19.215818c.141815-.0619868.0684746-.200417.0885021-.3222751-.1487965.0633267-.2272848.1686831-.2506973.3222751.0568388,0,.1119147.0199571.1621952,0Z"/>
              <path class="st0" d="M22.5963265,16.5747844c.0151617-.0102959.0285605-.1088119,0-.1439308-.0299709-.0213675-.0950605,0-.1484439-.0131167-.0653717-.0267975-.0870918-.083989-.1004905-.1542267,0-.0881497-.0833542-.1514764-.0599417-.2499925-.1102222.0495753-.1036639.1715039-.0685451.2251695.096753.1487967.1636056.3829222.3774212.3360972Z"/>
              <path class="st0" d="M20.1973182,15.3351878c-.0667821-.0351188-.11671.0082508-.0667821.0681926.025105.0316634.1019009.0117063.1470335.0137514-.0234125-.026868-.0365292-.0667822-.0802514-.081944Z"/>
              <path class="st0" d="M8.4483207,19.1538265c.0234125-.0385743-.0265154-.0667822-.0568389-.101901-.0433696-.0365292-.0950605.0102958-.1284163-.0365293,0,.0365292-.0100138.0847647.0148091.1136778.0302529.048165.1136072.0867393.170446.0247525Z"/>
              <path class="st0" d="M9.1349001,19.1572822c.0685451-.0351188.1638877-.0619868.1170626-.1673433,0-.0062057-.0168542,0-.0316633,0-.1101517-.0647372-.2540823-.0399143-.2289773.0923102.0034555.0585314.0750329.119813.143578.075033Z"/>
              <path class="st0" d="M20.4814416,12.1590499c.0267975-.0667822.1370197-.0798988.121858-.1515468-.0082508-.0323686-.0784884-.0323686-.1084592-.0323686-.0502805.0034554-.0399141.0736931-.0399141.1356799-.0203802-.0047953-.0368818,0-.0368818.0165721,0,.0316634.0533834.0433697.0633972.0316634Z"/>
              <path class="st0" d="M20.8322769,12.0240753c.0168542-.0165721.0784884-.0654423.0285605-.1067669-.0419592-.0385743-.1105043-.0385743-.1304614-.0206623-.048588.053736.0285605.1777097.1019009.1274292Z"/>
              <path class="st0" d="M19.7596731,14.6699045c-.0433696.1136778.1638877.255493.2675516.1887109.0815912-.0495753.0451326-.1949165-.0351188-.2368758-.0753855-.0399847-.2055648-.0220728-.2324328.0481649Z"/>
              <path class="st0" d="M20.0003568,15.4350436c.0451326-.0413245,0-.0998559-.0368113-.1232685-.0399846-.0351188-.11671-.0165722-.1770043,0-.0151617.0082508-.0334263-.0117063-.0550759-.0165722-.0151617.0482355.0316633.0716481.0550759.0716481.0837068,0,.1535918.1150177.2138156.0681927Z"/>
              <path class="st0" d="M19.6863328,15.6492119c-.0568388.0351188-.0451326.1432255.0134693.1866657.0633267.0322981.1470335.0185467.1803893-.0599417.0234125-.0647371.0650896-.1583873,0-.2052124-.0784884-.0551465-.1170626.0330032-.1938585.0784884Z"/>
              <path class="st0" d="M19.4842234,15.3668508c.0065583.1053565-.0502805.2052124-.0251755.3037285.0169247.0585314.0968235.0406194.1085298,0,.0320159-.0916051,0-.173549.0736225-.2355359-.025105-.0082508-.0567683-.04478-.0567683.0234125.0065583-.0234125.0282079-.0433696.0151617-.0647371-.0320159-.0351188-.0702376-.026868-.1153702-.0268681Z"/>
              <path class="st0" d="M20.8240269,20.929941c.0047953.0013399.0082508,0,.0133987.0013399.0031029,0,.0083213,0,.0117063-.0013399h-.025105Z"/>
              <path class="st0" d="M27.1418829,22.3981642c.0086034-.0047953.0016925-.0186172,0-.0247524-.0014104.0178415-.0230599.0316633-.0399846.0247524.0169247,0,.0385743.0069109.0399846,0Z"/>
              <path class="st0" d="M21.3436155,18.5843141c-.0385743.0131167-.0320159-.0351188-.0385743-.0433696-.0351188-.0371639-.0719301-.0371639-.0850467-.0888549-.0368113-.0729879-.098798.0516909-.1721385.0454852-.0082508,0-.026868.0247524-.0168542.0516204.0653717.0853994-.0100138.1205182-.0633972.1817998-.0334263.0688978.0667821.0736931.0885022.1439308.0334263.0798989-.0533834.1487966-.0351188.2355359-.0217201.0220727-.0533834.0619868-.0985159.1322244-.0117063.0096612-.05021.0798988-.0316633.1115622.0650896.0771486.1821523-.0764433.2520372-.0881496.0637498,0,.073693,0,.1270764-.0385742.073693-.0433696.143578-.0702376.170446-.1521815.0100138-.0303235-.1170626-.0433697-.1552843-.0482356.0585313-.1452706-.0234125-.1886403.0034554-.3477328,0-.0048659.0750329-.0950606.0550758-.0950606Z"/>
              <path class="st0" d="M21.9447957,20.4836926c0,.0068404.0385743.0102959.048588,0,.0616342-.0468251.0685451-.128769.0368112-.1790496-.0234125-.0413246-.1136072-.0413246-.1222106.0220021-.0165016.0550759.0086034.1102223.0368113.1570474Z"/>
              <path class="st0" d="M22.0332978,20.1930809c.0602943-.0131166.02172-.0751035-.0064878-.1136778-.0200276-.0199571-.0685451-.030253-.0751034-.0130462-.0437222.0695324,0,.1583873.0815913.126724Z"/>
              <path class="st0" d="M22.6248873,20.4939888c-.0133987-.0034555-.0285605-.0234126-.0186172-.0323686-.0516204,0-.1050038-.0330738-.1669905-.0165017-.0165016,0-.0616342-.0117063-.0918871-.0117063-.0083213.0502806-.0248229.1184731.0351188.1370198.0870918.006911.1755939.006911.2423761-.0764433Z"/>
              <path class="st0" d="M23.652006,20.400339c.0203802,0,.0052184-.0956953-.0130461-.1005611-.0885022-.017912-.1638877.0751034-.2572557.0434401,0,.0385038-.0086034.0633267-.0285605.0853289-.0082508.0083213-.0385743.0048658-.0602238.0048658.0971056.1184732.2523898.0034556.3590861-.0330736Z"/>
              <path class="st0" d="M24.0380306,20.0491509c.0385743.1556371.2121231.081944.2307403-.0261627,0-.0758087-.1054269-.0758087-.1387827-.0186173.0082508-.0137513.0151617-.0337789.026868-.0516909-.0451326.0379396-.1322244.0379396-.1188256.0964709Z"/>
              <path class="st0" d="M28.794299,16.8750598c-.0351188.083989.1150176.1005612.1887106.1273587.0901946.0262334.2389911.0131168.2637435-.0702375.0420297-.1487261-.123621-.3009077-.2822902-.2823611-.1350451.0117062-.1250313.1267239-.1701639.2252399Z"/>
              <path class="st0" d="M28.8208149,21.9574165c-.0499279-.0172068-.1452705-.0172069-.1452705,0-.1136071.4910288-.5678242,1.1707683-.0251754,1.4999546.2389911.1501366.5347505-.147386.5716323-.3023178.0901946-.3712158.0481648-.9772624-.4011864-1.1976367Z"/>
              <path class="st0" d="M27.3174767,19.7819529c-.0750329.0419592-.0901946.2224192.0282079.2224192.048588,0,.1019714-.0385743.1422381-.0702376.0433696-.0502805.0382216-.1184731-.0133987-.1336349-.0533834-.0185467-.1136777-.0468251-.1570473-.0185467Z"/>
              <path class="st0" d="M27.6766337,24.8374417c-.046825.0812387-.0351188.1832102.0450621.2389914-.0016925-.0736931.1353272-.1639583.0351188-.2389913-.0368113-.0385743-.0636793-.0151618-.0801808,0Z"/>
              <path class="st0" d="M29.9568152,13.179615c-.0685451-.0095907-.0919576.0117768-.1150176.0502805-.0168542.0654423.0082508.1418857-.0168542.2121233-.1605027.4462488-.6749435.8505382-.4328495,1.351863,0,.0082508.0368113.0082508.0437222,0,.143578-.0971056.2286247-.2293301.3054206-.3691001.1470335-.3078186.2775653-.6232532.3794662-.974512.0165016-.1066963-.0217201-.2568329-.1638877-.2706548Z"/>
              <path class="st0" d="M29.123132,14.9543847c-.0382216.0702376.0485881.1253136.1071194.0949901.0585313-.0247524.0950605-.1239736.0433696-.1384302-.0433696-.0220022-.123621-.0220022-.1504889.0434401Z"/>
              <path class="st0" d="M24.0497361,11.8869862c-.0568389-.1817999-.2021093-.0082509-.3188194-.0302531-.0502805-.0048659-.073693-.0681926-.1019714-.0681926-.0437222.0082508-.0836363.0151617-.1136072.04478-.0784884.0454147-.0186172.1652277.0616342.1507712.0619868,0,.1036639-.0874444.1305319-.0337084.0598712.0984456.0199571.2671993.1717859.2320805.0988686-.0234125.1587397-.0936501.2658591-.1033113.1050038-.0047953.11671-.1205182.1050037-.200417.1105043-.0137513.2406836-.103946.3109212-.0137512.0334263.0316634.0433696.1005611.0702376.1425204.0334263.0751035.1084592.0930156.1870181.0964711.096753-.0234125.195551-.0151617.2688914-.0964709.0767959-.0956952.0702376-.2107129-.0282079-.2761553-.0403372-.0261628-.1105748.0083213-.1504889-.0261629-.0819438-.0454147-.1422382-.1156524-.2238294-.1473863-.2892716-.0770782-.4610575.1735489-.634959.3291858Z"/>
              <path class="st0" d="M24.91198,12.1060208c-.0303235,0-.0619868,0-.0936501-.0020451-.0034555,0-.0069109,0-.0100138.0020451h.1036639Z"/>
              <path class="st0" d="M23.0508252,12.0240761c.1002084-.0186172.1904031-.0165721.294067-.0048657v-.0206623c-.0082508-.1652277-.1721385-.1466811-.2640961-.0812388-.0082508,0,0,.0248229,0,.0248229-.0351188.0165016-.0784884-.006911-.098516.0082508-.0385037.048165.0217201.0936502.0685451.0736931Z"/>
              <path class="st0" d="M23.4134374,12.6872438c.1066962-.1384302.2589482-.2286249.4224832-.3057734.0117063,0,0-.0351188,0-.0550759-.0065583.0130461-.0117063.0247524-.0199571.04478-.0334263-.0751035-.0885022-.1281344-.1587398-.1632532-.0052184.0667822-.0802514.1115622-.1119147.1384302-.0837068.0619868-.1870181.1301793-.2238294.2169186-.0285605.0723532-.0433696.1859605.0151617.2307406.0364587.0234126.0550758-.0702376.0767959-.1067668Z"/>
              <path class="st0" d="M21.8914821,11.7051855c-.0117063.0461904-.0234125.1047218.0385743.1150177.0767254.0213675.0767254-.0984455.0382216-.1239737-.023483-.0165016-.0668526-.0261628-.0767959.008956Z"/>
              <path class="st0" d="M18.336586,9.4463668c.11671.0585314.2588777.0585315.3824986.0633269.0217201,0,.0919576-.0736226.0551464-.1253135-.0685451-.0537361-.1756645-.0082509-.2372986-.0901948l-.0585313-.0117063c-.1019009-.0316634-.1284163.0619868-.1852551.1156523-.026868.0379396.0399846.0482355.0434401.0482355Z"/>
              <path class="st0" d="M27.411126,11.1067572c-.0437222.0599418-.1287689.0337084-.2090203.0599417-.0399141.0102959-.0368113.0922398-.0165016.1170627.0767959.1101518.168683.0468252.2754498.0234127-.0299709.0399142.026868.0337084.0416771.0468251.0485175.0337084.0702376-.0833543.1170626-.0468251.0134693.0137514.0134693.0805335,0,.0867393-.0702376.0372344-.0702376.107472-.1318717.1356799-.0402667.0282079-.1205181.0282078-.1570473-.0488702-.0051479-.0096612-.0385037,0-.0585313,0h.0200276c-.0299708.0523256,0,.1425204-.0299708.1673433-.1219285.1088119-.3942754.193506-.2741099.3573939.0901947.1219286.294067.0868099.459365.0736933.0185467,0,.0402667-.0303235.0351188-.0468251-.0165721-.153592.0667821-.18046.168683-.257538.0416771-.0351188-.0316633-.0833543-.0801809-.126724-.0451326-.0213675.0016925-.1150177.0485175-.1150177.0633972-.0034554.0633972-.0840595.1201655-.0654423v-.101901c.0971056.0117063.1786968-.0550758.1587397-.1384302-.0316633-.1102223-.1318718-.2059177-.09499-.3243908.0064878-.0433696.0416066-.0901947.1066962-.1066963.0316633-.0083213.048588-.0482355.0234125-.0702376-.0151617-.0131167-.0351188-.0069109-.0533834-.006911,0,.0385743-.0602238.0234125-.0433696.0550759-.1053564.0220726-.2072573,0-.2992149.0571914-.1067668.0516204-.0633266.1900506-.1267238.27545Z"/>
              <path class="st0" d="M26.3533312,12.1108167c.0069109.1184731.1370902.0599418.2038723.0199572-.0433696.0165721-.0100138-.0385038-.0433696-.0419593-.0586018-.0096612-.1050743.0220021-.1605027.0220021Z"/>
              <path class="st0" d="M27.8370648,11.8787368c-.0702376.0964004.1219285.0964005.1987244.0564864.0033849,0,.0016925-.0117063,0-.017912.0064878-.0206623,0-.0303235-.0151617-.0385743-.0733404-.0454147-.1636056-.037164-.1835627,0Z"/>
              <path class="st0" d="M28.1442483,11.3774122c-.0234125-.0117063-.0633972-.0034555-.0950605-.0034555.0433696.0199571.0433696.1102223.1119147.0971057-.0034555-.0117063-.0117063-.0220727-.0117063-.0454852-.0051479-.0130462.0082508-.0378691-.0051479-.048165Z"/>
              <path class="st0" d="M25.9359955,7.3631464c.091605.0537361.1535918.1301795.1817997.210713.0437222.1067669-.0347662.2451971.0368818.351964.0133987.0454147.0585313.0770781.0767959.1004906.0450621.051691-.001763.146681.0133988.2121233.0402667.1418857.0502805.2720651.0685451.4076746.0550759-.0117063.0550759.0853994.1253134.0619869,0,.0833543.0399141.146681.0516909.228625.0234125.0916051.1322244.0447801.1920956.1102224.0954131.1336349.1856078.2671993.3274933.3608496.0433696.0282784.1088118.0282785.1318718.0688978.0117063.017912,0,.0495754.0234125.0495754.1889927.0316634.4544992.1308143.3608491.3608496.0702376-.0516204.1570473-.0901947.1804598-.1700935.0385037-.1418857.0684746-.2961123.0068404-.4345426-.0368113-.0716481-.1421676-.108812-.1638877-.1887109-.0182646-.0585314,0-.1122674.0016925-.1570474.0052184-.0819439-.1101517-.0536656-.1301088-.0915347-.0451326-.0992213-.0819439-.2658594.1101517-.2506976.0065583,0-.0285605-.0351188-.0185467-.0702377-.0650896,0-.1250313.0117062-.1870181,0-.0433696-.0047954-.0433696-.0688978-.0433696-.0888549-.0199571-.1053565.0351188-.2368757-.0585313-.3105689-.0819438-.0502806-.1869476-.0654424-.268962-.1219287-.0684746-.0564158-.1270059-.1004907-.2055648-.1452707-.0481649-.0316634-.1335642.04478-.170446,0-.1583872-.1770046-.2706545-.3842621-.4173354-.5846792-.0567683-.0633973-.170446-.0619869-.2723469-.0468252-.0285605.0068404-.0133987.0385743-.0199571.0550759.0130461,0,.0299709,0,.0399141.0069109.0334263.0165016.0117063.0585314.026868.075033Z"/>
              <path class="st0" d="M25.010425,7.6923322c-.0667821.0950606-.0402667.2189637.0265154.2451971.0971056.0406194.2372281.0337085.3595092.0220023.0650896-.0117062.1066962-.080604.143578-.1452706.0650896-.1005611.2355356-.0420297.3626121-.0868096-.0203802.0784884.0364587.0702377.0798283.1033114-.0047953-.0868098-.0047954-.2052124-.0616342-.2451971-.1152996-.0688273-.121858-.1686832-.1821523-.2761553-.0133987-.0364587-.0784884.0186172-.0784884.0372344.0133988.1783444-.1370197.146681-.2589482.193506-.0047953.0117063.0065583.0454147-.0047953.0585314,0,.0069109-.0186172.0069109-.0385743,0-.0217201-.024823-.0385743-.0351188-.0351188-.0751035-.0616342,0-.148726,0-.1735489.0399846-.0351188.0619868-.098798.0736931-.1387827.128769Z"/>
              <path class="st0" d="M22.6631074,3.7978793c-.1084592-.2052124-.2772128-.3925129-.2320802-.6549168.3105686.1102225.5898264.0571917.8987025-.0413242.2307403-.0633266.4944838.0468253.7183132-.0971054.0285605-.0247524.0016925-.101901.0016925-.1583873-.2571852.118473-.4727638-.221009-.704844-.072283-.3023177.1907557-.628048.2375807-.922115.314024-.2389911.0550758-.8587884.013751-.8869962.36776.3305256.0034556.6982856.0282082.9034979.325731.0303235.0365292.1470335.0165017.2238294.0165017Z"/>
              <path class="st0" d="M23.6840911,5.2785119c.0901947.1584579.2520373.1935767.4007632.2472423.026868-.0805335-.0165016-.1191078-.0650897-.1624775-.1053564-.0847648-.2138156-.0950607-.3356736-.0847648Z"/>
              <path class="st0" d="M23.4533509,5.7709511c-.0550758.0254576.0069109.1067669.0619868.1521816-.0100138-.0702377.0815912-.2141684-.0619868-.1521816Z"/>
              <path class="st0" d="M23.2112569,5.4754733c.0148091.0048659.0451326.0048659.0599417,0,.0069109-.0033849,0-.0220022,0-.0385038,0-.1067669-.1084592-.1370904-.1986539-.1467516,0,.0213675-.0082508.0730584.0082508.078559.0533834.0261628.0685451.0681926.1304614.1066964Z"/>
              <path class="st0" d="M24.1048115,6.6076679c.0069109.0151617.0403372.0323686.0568388.0137514.0217201-.0220021.0368818-.0516204.02172-.0936502v.0165721c-.0200276-.0351188.025105-.0868098-.0217201-.1184731-.0165016-.0069109-.0433696-.0131167-.0499279,0-.0636792.0585313-.0069109.1184731-.0069109.1817999Z"/>
              <path class="st0" d="M24.4275095,6.6228298c-.0100138.0488702,0,.083989.0282079.1101518.025105.008956.0433696,0,.0516204-.0165016-.0265154-.0186172-.0265154-.0330738-.0265154-.0633267.0100138-.0702376-.0433696,0-.0533129-.0303235Z"/>
              <path class="st0" d="M24.3004331,6.8638661c.0151617.0482355.0602238-.0172068.0733404-.0757382,0-.0014104.0051479-.0096612.0069109-.0144565.0082508.0062057.0165016.0130462.0234125.0199571-.0034555-.0103664-.0134693-.0199571-.0203802-.0303235h0c-.0450621-.0564863-.1284163-.1019011-.1752413-.0468252-.0516204.0619868.0602943.0619869.0919576.1473863Z"/>
              <path class="st0" d="M24.4174957,6.898985c.0316633.0199571-.0437222.0062057-.0220726.0378691.0602943.0819439.1656507.1239737.2389911.1005612.0368818-.0254576.0819438-.1005611.0433696-.1253135-.0598712-.0385743-.1452705-.0131167-.2220664-.0131168h-.0382217Z"/>
              <path class="st0" d="M24.8851116,7.105608c.0416771-.0234125.0034555-.0551464,0-.0798989-.0199571-.0550759-.0516909-.1067669-.0901946-.0716481-.0368818.0199571-.0633972.1067668-.0100138.1384302.0199571.0151617.0633267.0351188.1002084.0131167Z"/>
              <path class="st0" d="M25.0303821,7.387969c.0200276.0220022.0785589-.0213674.1036639-.0413245.0151617,0,.0065583-.0372344.0065583-.0585314.0234125.0082508.0334263,0,.0334263-.0220727.0199571-.0330737.0099433-.0764434-.0334263-.0916051-.0265154-.0102959-.0633972.0365292-.096753.0082508-.0069109,0,.0065583-.0185467,0-.0316634-.0299709-.0234126-.073693-.0433697-.0954131-.0199571-.0399141.0330737-.0399141.0950606-.0216495.1336349.0216495.0399142.0636793.0819439.1035934.1232685Z"/>
              <path class="st0" d="M24.766286,7.6055928c.0186172,0,.0385742-.0200276.0420297-.0385743.0117063-.0420298.0117063-.0736931,0-.1219286-.0034555-.0282079-.0303235-.0282079-.0502805-.0151618-.0299709.0151617-.0265154.0633972-.0650896.071648.0100138.0502806.0351188.0971057.0733405.1040166Z"/>
              <path class="st0" d="M24.4990866,2.6436837c-.0082508,0-.0234125-.0068404-.0234125-.0185467,0-.0028208.0151617-.0117063.0234125-.0165721-.0499279-.0537361-.1084592-.0151618-.1669905-.0268681.0385743.0619869.0954131.1136778.1669906.0619869Z"/>
              <path class="st0" d="M27.8653425,5.0912131c.0533129.0502806.170446-.0102958.2272143.0502807.0568388.0647371.1002084.1700936.1987244.1700937.0619868,0,.1088118-.0330737.1170626-.0888548.0165016-.1631826-.0485881-.3518935-.2073278-.4241762-.1518288-.0447801-.3105686-.0447801-.4610575-.0413247-.0984454,0-.0984454.1136072-.0567683.1583873.0485175.0571915.1136072.1136073.1821523.1755942Z"/>
              <path class="st0" d="M31.9597847,10.2645418c-.1084592-.1336349-.1167101-.280316-.1869476-.3891279-.0650897-.101901-.2255924-.1136074-.3092287-.2334909-.0416771-.0585314.0351188-.159022-.0282079-.2058471-.0368818-.0282784-.0751034-.0599418-.0820144-.0916052-.0516204-.1404753-.1167101-.2320805-.2454789-.2975228.0399141-.1638878-.1084593-.2437867-.2624037-.2871564-.0064878-.0082508.0151617-.051691.0151617-.0702376-.0065583-.0633972-.0850467-.081944-.1387827-.1005612-.0199571-.0117063-.0616342,0-.0684746-.0117063-.0785589-.1033114-.1870181-.1832103-.2238294-.2720652-.0468251-.146681-.1869476-.2306701-.3088761-.310569-.0451326-.0234126-.0837068-.1487261-.1071194-.1487261-.0850467,0-.2021093.0068403-.2138156-.0902653-.0148091-.1817999-.1618426-.2939968-.2971699-.4042192-.197314-.1418858-.0234126-.4462488-.0918872-.6680334-.0186172-.0936502-.1188256-.0936502-.2073278-.0936503-.0316633,0-.0633267-.0282079-.0802514-.0619869-.0767254-.1370199-.0165016-.2906118-.1066963-.4173358-.1387827-.1955513-.2923745-.3442774-.444556-.5384888-.0867392-.096471-.2121231-.0813093-.3205824-.0916052-.0316633-.0048659-.0502805-.0234126-.0784884-.0433697-.0402667-.024823-.051973-.0736931-.0751034-.1122674-.0619163-.1102224-.195551-.1583874-.3074657-.2100784-.2072573-.0853995-.4293942-.0419594-.6483577-.072283-.1735489-.0131167-.3639519.04887-.4927913.1556368-.1518288.1136072-.3291152.1735489-.5226917.2086677-.073693.0137513.0282784.1074016,0,.162548-.0433696.0729879-.1487259.1514763-.1053563.221714.0217201.0165016-.0385743.0055005-.0182646.0303235.0416771.0419593.1150176.0096612.1735489.0096613.0685451.0102959.0937206.083989.1318718.1170628.0853993.0887844.1822228.1741838.2324328.2823611.0200276.0419592-.0585313.1205182-.019957.1604324.1067668.1101519.0868097.2086679.0868097.3422323,0,.0551464.1152996.0034555.141815.0220727.1570473.081944.1873708.2823611.1439307.4407483-.0234125.0853994-.0150912.2072575.0217201.2775657.0784884.1521816.0950605.3725558.2386386.4861631.0320159-.0482355.0702376-.1136073.0971056-.1067668.1253134.0165722.1267238-.0805335.2055648-.1253135.2368755-.1604323.4341895.1514765.4992792.3319365.0650897.1790496,0,.4097901.0802514.5867242.0619163.1735491.1721385.3140949.3425845.4008343.0382217.0220022.0464725.126724.0815913.2038726.0168542.0433696.0619868.101901.1287689.055076.0382217-.0234125.0200276-.1067669.0833542-.1322245.051973-.017912.1088118.0172069.1404752.0454148.1518994.1887108.1887107.5778387.4996318.5544263-.0069109.0468251.0265154.0819439.0581787.0936502.0637498.0199571.1088118-.0702376.1539444.0117063.0482355.0702377.0733405.1604324.1401226.1955513.1071194.0330738.2224895-.0068403.3291858.0199572.0685451.0200276.1270764.1019716.1753119.1701642.0302529.0468251.0671347.1004906.1105043.1459759.2086677.2031674.2889191.510986.5413089.665918.0767959.0523257.1501364.1508418.2620511.1205183.0333558,0,.0099433-.0502806.0450621-.0564863.1036639-.0117062.1638877-.0991507.2073278-.1624774.0767959-.1019715.1920955-.1969615.3274227-.2589483.001763-.0062057,0-.04478.001763-.0495754.0915345-.0757382.2086677-.0957657.2954068-.1777096.0771485-.0564863.0351188-.1887108,0-.2272146Z"/>
              <path class="st0" d="M27.9654809,9.796924c.026868.0034555.0468956.0137514.0668526.0220022.0203097.0048659.0385743.0034555.0602238.0117063l-.1270764-.0337085Z"/>
              <path class="st0" d="M27.7802963,10.3533246c.0399141.0688978.1301088.081944.1951984.1253841.073693.0619869.1088118.1521816.1739015.1907559.1301793.072988.0802514-.1473862.1418855-.2210793.0234125-.0131167.0918871.0117063.1088118-.0131166.0767254-.1066963-.0169247-.2740397-.1119147-.3773511-.0802514-.0751035-.1405457-.1942114-.2558453-.2389915-.0599417-.0137514-.1167806-.0102959-.1518993.0564862-.0602238.0936502.001763.2189638-.0433696.3140243-.026868.0502806-.0771485.107472-.0567683.1638878Z"/>
              <path class="st0" d="M28.5384532,10.8196013c-.0533128.1852553-.0165016.384262-.0382216.5825634-.0150912.0992212-.1655801.0785589-.2272143.1639583-.0368818.0468251-.0533834.1301089-.0433696.1907558.0216495.1301089.170446.1218582.2619805.1700937.2441391.1218582.464513.3023182.6050587.5495605.0499279.0819439.0715775.1969616.143578.2671993.0719301.0736931.2072573.0736932.2289773.2059177.0099433.0516204.1033113.0702377.1452705.0399142.1267238-.1033114.1119147-.302318.0234125-.41113-.0585313-.0564863-.1136072-.1335644-.1136072-.1969616-.0100138-.2706547-.0901947-.5247373-.2355357-.7582282-.0919576-.1287691-.2489344-.1976669-.3443475-.3160695-.0117063-.026868-.0433696-.0702377-.0199571-.1033114.0316633-.0633972.1002084-.1067668.1153701-.182505.0133987-.1384302-.143578-.1900507-.1804598-.3257307,0-.0062057-.0433696,0-.0702376,0l.0767959.0234126c-.1301793-.055076-.294067-.0296184-.3274933.100561Z"/>
              <path class="st0" d="M29.9667584,12.1590535c-.0216495-.0702377,0-.1605029-.0099433-.2472422-.0117063-.1487261-.1718564-.1721387-.2954774-.1721388-.0567683,0-.1253134-.0179121-.1370197.0454147-.0100138.0564863-.0100138.1184731.0351188.1900507.2303877.2644491.2121232.6418706.3123316.9489841.0333558.1253841.2489344.0255282.2857456-.1066962.02172-.0681926.0248229-.1439308.0114242-.2086679-.0317339-.0688978-.096753-.1157229-.1133251-.1921663-.0168542-.0971057-.0736931-.1638879-.0888548-.2575381Z"/>
              <path class="st0" d="M29.6045694,11.3071751c-.1019714.0805335.0433696.1638879.0148092.2754501h.0419592c.0650896.0303235.0650896-.0495753.0798988-.0812387-.121858.0062057-.1015483-.1239737-.0932975-.1942114-.0100138,0-.0285605-.0096612-.0433696,0Z"/>
              <path class="st0" d="M29.549423,11.0330649c.0065583-.0647371-.0068404-.1301794-.0801809-.1418857-.0134692.1019715-.1136777.0771485-.1687535.1301794-.0702376.0550759.0047953.1453412.0802514.1755942.0165016,0,.0165016.0303235.0282079.0303235.1404752.0564864.2523898-.0550758.1956215-.1942113,0-.0082508-.0320159,0-.0551464,0Z"/>
              <path class="st0" d="M29.0614974,10.5571976c.125384.0736932.0034555.2072575.1002085.2472422.0685451.0468251.2086677.0715776.2741099.0082509.0516909-.0385743-.0016925-.1315193-.1053564-.1384303-.0416771-.0047954-.0385743-.0805335-.0299709-.1335644-.026868,0-.0485175-.0186172-.0602238-.0303235-.1002084-.0681926.0850467-.1205182.0299003-.207328-.0181941-.0178415-.0064878-.0598713-.0299003-.0633267-.0368818-.0186172-.0785589.0034554-.0936501.0454852-.0317338.0378691.025105.0881497.003385.1349748-.026868.0585314-.1404751.101901-.0885022.1370198Z"/>
              <path class="st0" d="M28.9912598,9.9373997c-.0585313-.024823-.1504184.0316633-.1969614-.0702377-.0051479-.0117063-.051973-.0117063-.0702376,0-.0151617.0082508-.0151617.026868-.025105.0351188-.0334263.0468251-.0720006.0819439-.0334263.1170627.0516909.0385743.0650896.075033.0936501.1184732.0351188.0653718.1301793,0,.1501364.0585314.0151617.057121.0668526.075033.1071194.0468251.0485175-.0220727.0082508-.1053565.0234125-.1487966-.0303235.0200276-.0151617-.0550759-.0385743-.0199571.0151617-.048165.0451326-.1170627-.0100138-.1370198Z"/>
              <path class="st0" d="M21.9447952,14.5266798h.0385743c.0031029-.0199571,0-.0454147.0234125-.0722827.0234125-.0330737-.0133987-.0819439-.0368113-.1047218-.0334263-.0385743-.1036639,0-.0802514.071648h.0351188c-.0082508.0330738-.0082508.0667822.0199571.1053565Z"/>
              <path class="st0" d="M29.7264275,13.2698802c-.121858-.0482355-.2571852.0151616-.3708629.0853992-.2406836.1239736-.2706544.4462487-.4228358.6183873-.1033113.1170627-.2238294.1749594-.3674074.1667085-.0181941,0-.073693-.0234126-.0801809-.0703082,0-.0695325-.0251755-.1418152.0285604-.1983015.0482354-.0385743.1033113-.0702376.1366671-.1274291.0668526-.1066963.0151617-.2334203-.0099433-.3339814-.0585313-.2189638-.2871561-.3470982-.4961763-.3119795-.2104306.0413245-.3340516.2603587-.4511142.4511145,0,0-.0416771.0047953-.0416771,0-.0801809-.0992213-.1852551-.1508418-.240331-.2541532-.0133987-.0102959-.0133987-.0337084,0-.0550759.0833542.0447801.1601502.1700936.2486523.1184732.0853288-.0502805.0102959-.1652982-.0551464-.1887108-.0733404-.024823-.143578-.0985161-.2372281-.0888549-.0650896.0055005-.143578-.0916052-.1652981-.1700936-.026868-.1170628-.0368113-.2706547-.1387122-.3023181-.1085298-.0454853-.2086677-.0502806-.3140946-.1253842-.0481649-.0247524-.1084592.0200276-.1552843.0165721.0334263-.0330737.0051479-.1115622.02172-.1115622.1304614-.0117062.2906115-.0117062.2121231-.1590924-.0351188-.0702377-.1050743-.1404753-.1870181-.081944-.025105.0117063-.073693.0117062-.0836363.0468251-.0165721.0234125-.02172.0585314-.0365292.0805335-.0234125.0551464.0399847.1584578,0,.1921663-.0819438.0550759-.2006989.0495753-.3026704.1219285-.0113537.0047953-.0499279.0047953-.0667821,0-.0885022-.0303235-.2269323-.1301795-.268962-.0853995-.0616342.075033-.0767254.1700936-.1500658.2086678-.0654422.0316633-.1487965.0371638-.2173416.0688272-.1184025.0468251-.05021.198372,0,.3085238.0251755.0385743.0083213.1019715-.0333558.1322245-.0850467.0482355-.1036639-.0585314-.123621-.099856-.0351188-.1074016-.0667821-.2272146-.0667821-.3408924-.0100138-.1170628.1387121-.1920957.1735488-.3043631.025105-.0681926.045062-.146681-.0031029-.2238296-.053736-.0819439-.1387827-.1219287-.2190341-.0971057-.2121231.0571914-.2723469.4228362-.48447.3277755-.1084592-.0419593-.2038723-.1535215-.3205824-.208668-.0667821-.0454147-.1304614-.0922399-.2055648-.0351189-.1487259.1115622-.3308782.1770044-.4879255.2534477-.1401226.0654423-.2637435.2307404-.3456873.3842619-.0885022.1942113-.4427929.3023179-.5595735.072353-.0567683-.1122674-.175594-.2004171-.3009074-.1976669-.1150176.0186172-.1552843.1687536-.2820081.1976667-.0919576.0165016-.1456936-.0151618-.1804598-.0853995-.0051479-.0186172-.0051479-.051691,0-.0585314.1718564-.1418856.3491428-.247242.5629584-.3291859.1033113-.0351188.1167805-.146681.0785589-.2472421-.001763-.0165016-.0086034-.0468251-.0234125-.0702377-.0100138-.0530308-.0186172-.1349748-.0368818-.1349748-.2606406.019957-.4793221.2052122-.6097834.4427931-.0165721.0330737-.0316633.0819439-.0533834.0819439-.1652981-.0137514-.3339811.0798987-.4727638-.0137515-.0299709-.0186172-.0702376-.2086679-.0901947-.1887108-.0668526.0702376-.1071193.1570474-.1687535.2320804-.0168542.0385743-.0619868.0571915-.0867392.0950606-.0937206.1439307.0867392.2926569.0450621.4076746-.0285605.0585314-.1803893.0585313-.2792578.0819438-.0499279.0165016-.0499279.098516-.045062.1638878.0068404.051691.0636793.0447801.0971056.0633973.096753.0949901.1035934.2589485.2272144.3160695.1501364.0681926.3322886.0213676.5127484.0681928.1152996.0268681.2038018.1067669.2537297.2258748.028631.0633972.123621.0964005.1287689.1949166.0052185.0337084.048588.0654423.0954131.0888549.0533834.0185467.123621-.0365292.1752413-.0131166.0767959.0213675.0451326.1219286.0650897.1832103.0368818.1191078-.0265154.2472422.098516.3643049.0468251.0399142-.0482354.1618428-.1016188.23067-.0234125.0234125-.1004905.0234125-.1088118.0599417-.0299003.1053565-.0047953.2024621.0468251.2844061.0385743.0482355.1002084,0,.1153702.0330738.0919576.1156524.1301793.2437867.2069752.3491432.0333558.0399142.0702376.0922398.1152996.108812-.0550759.0117063-.07193.0798988-.0550758.1053565.0334263.04478.1102222.072988.1504889.0316634.0633266-.0419592.1318718-.0571209.1935059-.1136072.0368818-.0399847.098798-.0254576.1370197-.0633972.0434401.0399847.0802514.1301794.0502805.1687537-.0918871.0901947-.2571852.0282078-.3643045.0985159-.0733404.0330032-.1452705.0150912-.1838447.0729878-.0365292.0371639,0,.1225633.0654423.1308141.2337727.0495755.0516204.3870123-.0619867.5592214-.0265154.0371639,0,.1005611-.0134692.1721386-.0082508.0303235-.0516204.0489407-.0784884.0489407-.2238294.019957-.4524541-.0585315-.6563264.0144563-.0702376.0199571-.1053564.1191078-.1387121.2003465h.0399141c-.0599417.0069109-.0599417.0723532-.0733404.105427-.0117063.0399142-.0065583.1170627-.0316633.1535214-.197314.2176238-.2255218.4931444-.2607111.7451819-.0064878.0771486.0885022.1273587.1436486.1273587.0550759,0,.1335642-.0633267.1821523-.0633266.1019009.0131167.0767254.1700936.1152997.2368758.0434401.078559.1938585.0916052.2104307-.0117062.025105-.0887843.025105-.1920957.0533834-.2706547.0316633-.1088119-.0833542-.1817999-.1050743-.2822905-.026868-.0950606.02172-.1784149.0767959-.2424468.0368818-.0365292.096753.0082508.1201655.064032.0217201.0564863.0217201.1315193.0434401.1969616.0133987.0681926-.0351188.1501365.003385.198372.0385743.0468251.0619868.110857.0451326.1673433-.0065583.030253-.0451326.0550759-.0650896.0916051-.026868.0770781.0199571.1803895-.0433696.2093025-.0667821.0516909-.0585313.1453411-.1370197.1515468-.1787673.0117062-.3960384-.0833545-.3375071-.2837715-.07193-.0068404-.1470335-.0068405-.1786968.0564862-.0385742.080604,0,.207328-.046825.2726998-.0667821.0819439-.1101517.1667086-.1838447.2506976-.0251755.017912.0351188.0316634.0117063.0585314-.0950605.1115622-.2055648.1549318-.3223453.2417415-.0068404,0-.0117063,0-.0117063.0220022-.0767254.0502805-.2055648-.0316634-.2354651.0599417-.0434401.0956953.09499.1604324.1401226.2575381.026868.0647371.0100138.1418857-.0802514.1535919-.1301088.0316633-.2437864.0131166-.3808061-.0069111,0,.0385743-.0351188.0337789-.0351188.0454852-.0234125.1150177,0,.2086679-.0885021.3105688-.0568388.0736931.0285605.1638879.0784884.22524.0568388.0770781.0802514.1824346.1521814.2010518.0568388.0144566.1050743.0647371.1570473.0578262.1101517-.0282078.1887106-.0695324.2320802-.1886402.0168542-.0702376.1353272.0117063.2138156-.0131166.0186172-.0069109.0585313-.0199571.073693-.0316633.0599417-.0702376-.0151617-.1707988.019957-.2121233.118473-.1404753.2538002-.2540825.41254-.3560539.051973-.0433696.1318717-.0881496.2103601-.0619868.0602943.0186172.1122673.0571915.1773569.081944.0599417.0303235.1101517.0723533.170446.1067669.0131167.0137514.0616342.0303235.0901946.0440749.1050743.0447801.1687536.1749595.2837711.2403313.0333558.0165721.0086034-.0454147.0433696-.0199571.0034555-.1053565-.0182646-.2072575-.0681925-.2692443-.0685451-.1019716-.1821523-.153592-.2589482-.235536-.0285605-.024823-.0285605-.0985161.0148091-.1418857.0086034-.0199571.046825-.0199571.048588,0,.0616342.0550759.123621.055076.1869476.0868099.1270764.055076.1036639.2458318.2272849.3091586.0650896.0351188.1002084.1322245.1786968.1453412.0919576.0316634.2406836,0,.292304-.1102222.0403372-.0667822-.0364587-.1053565-.0832837-.1487261-.0919576-.0702377.046825-.101901.0918871-.1570474.0798988-.0970351,0-.1803895-.0086034-.2740397-.0099433-.0385743.0169247-.0619868.0403372-.0798988,0,0,.0064878-.0117063.0181941-.0186172.0533834-.1150177.0052184-.2403312.048588-.3525986.0165016-.0247524.046825-.0212969.0468251-.0130461.0334263.0550759.096753.0949901.1535918.075033.0936501-.0234125.1669905-.0702376.2320802-.1535919.0801808-.1053564.2506269-.046825.292304.0530309.0186172.0771486-.0064878.1825051-.0667821.2025326-.2021093.0295477-.3639519.1053563-.5144409.2072573-.0199571.017912-.046825.0316633-.0585313.0564863-.0802514.0585313-.1119147.1170627-.0685451.2423763.0086034.0468251-.0533834.0971056-.0984454.1418857.0767959.024823.0767959.1205182.1470335.13568.1270764.0296183.2437865.0344137.3339811-.0523255.0217201-.0330737.046825-.1019715.0334263-.1605029.0819438-.0096612.1370197-.0881496.2255218-.1066963.1773569-.0282783.2792579.1652278.2324328.319525-.0100138.0296183-.0550758.0296183-.0702376.0399141-.0919576.1453411-.1621952.2871563-.3057732.349143-.2203739.1115621-.4893359.0868096-.6848869.2004168-.0750329.0502805-.0985159.1817998-.2103601.2135337-.0971056.0254576-.2207265.0819438-.320935-.0000001v.0220022c0,.0736931-.2289773.0234125-.3391995-.0220023-.0364587-.0131167-.0148091-.1219286-.0616342-.1632532-.0385743-.0254576-.1136072.0117062-.1304614-.0316634-.0234125-.0234126,0-.080604-.0282784-.0874445-.2606407-.0447801-.5027346.0351186-.7685232.0068401-.0702376-.0068404-.0633972.0868098-.1219285.1301794-.0485175.0234125-.0953426.0702376-.1452705.0901947-.1053564.053736-.219034.1287689-.3457579.0819438-.1105043.0351188-.2124052.0502805-.3126136.0688977-.1652981.0316633-.2589482.1700935-.3942754.2637436-.1050038.0702376-.2269322.0833542-.3439949.0764433-.0334263,0-.0151617.0557811-.0451326.0557811-.1786968.04478-.340892.2699494-.4427929.4641607-.0299708.0516909.0086034.126724-.0234125.1722092-.0932975.1452706-.1418855.2884961-.2706544.4090143-.0130461.0131167-.0130461.051691-.0082508.0751035.143578.1969617.3140241.3291862.4593651.5316484.0351188.0550759.1070488.0550759.1287689.1067669.0567683.1266535.1353272.2403313.2021094.3587339.0936501.1687537.3374366.235536.5478672.1687539.0767254-.0213674.1669905.0523257.2372281.0667823.2389911.0220728.4927208.0785592.7169028-.0413243.3339811.1033115.6814314-.041959.9854417.1033118.0602943.0165722.0602943.1274292.1036639.2004171.0702376.1322245.1518994.2658594.2789053.3608495.1067668.0751035.2589482.1253842.4077447.1391356.0416066,0,.0481649.1046513.0850467.1480209.0433696.0571915.0234125.1460464.0767254.189416.073693.0695325.1370902.1198131.1322244.2217846,0,.1205182-.1470335.2258746-.0585313.384262.0217201.0502806-.0099433.1322245.0148091.1638879.1907557.1887109.369523.3657154.5998402.5358091.0217201.0199571.0637498.0488702.0451326.0956953.0885022.024823.1002084.1136073.1587398.1618428.0450621.0564863.0199571.1453412.0650897.201757.0784884.0936502.1638877.1839155.2540823.2658595.11671.1067669.2789052.081944.4190983.1122676.0320159.021297.0702376.0468251.1105043.0585314.1318718.0413246.2754498.055076.3908199-.0337788.0650896-.0550759.1236209-.1569769.1869476-.1955511.1002084-.0819439.2541528-.0751034.3911725-.0998558.0265154-.0055005.0667821-.0199571.0850467-.0551464.0168542-.0784884.0885022-.1204477.0837068-.1975962.1019009-.0048658.1803893-.0564862.2637435-.0998558.1669905-.0868097.2940669-.2554929.4510437-.3911728.1570473-.146681.4211434-.0819438.5061901-.247242.0853993-.1618427-.0333558-.384262.0416771-.5729728.0437222-.0867392.098798-.1921662.1071193-.2885667.0133987-.1638878.019957-.3326415.0082508-.4965294-.0082508-.0949901-.1067668-.1920958-.0950605-.2858165.0065583-.0681221.1250313-.068122.1501363-.1246083.0585313-.1342695.1136071-.2726997.1821522-.3980838.0117063-.0247524.0602943-.0364587.1002084-.0633267.0602238-.0433696.0082508-.1122674.019957-.1755941-.0499279-.0151618-.0733404-.0702377-.0950605-.1019716-.1404752-.1983015-.270584-.3904678-.5026642-.4861632-.0568388-.0165722-.0619868-.0784885-.0888548-.1253841-.0217201-.0178415.0086034-.0798283-.0131167-.1011958-.0619868-.0351188-.0385743-.0936502-.0536655-.1370198h.0550759c-.0014104-.0021156,0-.005571,0-.005571-.0230599,0-.0316633-.0199571-.0316633-.0267975.051973-.1384302.1304613-.2638142.2354651-.3540089.0303234-.0296183.1105748-.0296182.1205181-.0667821.0282784-.1184731.02172-.2403312-.0351188-.3408924-.0853993-.1453412-.0099433-.2906118-.0333558-.4277022-.0217201-.273405-.0217201-.5226922-.1470336-.7699344-.026868-.0770781-.0971056-.1335644-.1938585-.1066964-.0468251.0068404-.0416771.0681926-.0685451.1066963-.0334263.0385743-.0399141.0888548-.0568388.1570474-.0382216.0901947-.1604322.1184731-.1920955.2141683-.0165721.0578262-.0316633.1136073-.0568388.1515469-.0433696.0454147-.0833542.1074015-.1418855.1191078-.0984454.0330737-.1920955.0564862-.2857456.0750329-.1002084.0213674-.2104307.0213674-.3188899-.010296-.5698694-.1583875-1.0574423-.3787619-1.6290041-.5364442-.0065583,0-.0065583-.0379396,0-.04478.0884316-.0454852.1838447.0199572.2774948-.0048658.0650896-.0117062-.0133987-.101901.0199571-.101901.118473.0282079.2155786.1067669.3322886.151547.2372986.081944.4710713.1053567.7234612.1576824.195551.0433697.3308782.1818.5161334.2286252.1587397.0482356.2624036-.0716479.3843321-.1205181.0064878,0-.0034555-.0502806.0064878-.0647371.055499-.101901.1556369-.155637.197314-.2506976.0282784-.0688272-.0151617-.1755941.0282784-.2540826.0220021-.0365292.0853993-.0736931.1004905-.1170627.0317338-.1219286.0131166-.2472422.0131166-.3670552.0702376.0062058.123621-.0702376.1036639-.1019715-.0165721-.0185467-.0217201-.0488702-.0334263-.0667822,0-.0702376.0117062-.1459758.026868-.2210793.0364586-.1783444-.0151618-.3539385-.0885022-.5061201-.0368113-.0798989-.1439306-.1019716-.2289773-.0798989-.026868.0165016-.0368818.0633267-.0633266.0798988-.0871623.0068404-.1605027.0454146-.2138861.0887843-.073693.0585313-.0702376.1839154-.1322243.2355358-.1084592.0901947-.2138156.1852552-.3557011.2389912-.0901946.0433696-.2220664-.0082509-.2406836-.0840596-.0867392-.2320805.2289773-.1900506.387717-.2320803.0217201-.0150912.0585313-.0530308.0767959-.0832838.0433696-.0819439.0619868-.200417.1504889-.2437866.0581787-.0220727.1253134-.0220726.1834921-.0138218.0568388.0138219.1002084-.0667821.1605027-.0998559.046825-.0220021.0433696-.1136073.0619868-.1638878.0282079-.0949901.1335642-.1452706.1770043-.2272145.0984454-.1770045.0984454-.4428638.2406835-.581294.096753-.075033.0464725.126724.0832837.1707988.0602943.0833543.2289773.0751036.2858162.0131168.0499279-.0502805-.005148-.1770045.0850467-.227285.0402667-.0082508.0868097-.0082508.1201655,0,.0667821.0433697.1470335.1184732.2172711.0771487.048588-.0337789.1002084-.1040166.1521814-.1205182.0816618-.026868.1753119,0,.2589482-.0365291.2052122-.0956952.6346064.0365295.6111938-.1624772-.0364587-.3202301-.2971699-.5743833-.5794601-.7231095-.2255924-.106767-.1405457-.4228363-.3426551-.5998409-.0516204-.0365292-.025105-.1184732-.0685451-.1687537-.0148091-.0165016-.0433696-.0419593-.0750329-.0564863-.0299709-.0234126-.0633267-.0523257-.0633267-.0619163.0333558-.1673433-.0468956-.3243908.0416066-.4628209.0451326-.0667822.145341-.1005611.2038723-.148726.071648-.0585313.2021093-.1033113.2021093-.1990771,0-.1301089-.0133988-.2719946.0100138-.4076745.0117063-.04478.0919576-.0812387.1387827-.0812387.2354651-.0055004.4892654.0578264.7065364-.0853991.0550758-.0488701.0616342-.1184731.096753-.1618427.1687535-.2472421.4259387-.4393377.4159954-.760273-.0048659-.0571915.0853993-.071648.1070488-.1404753.0148091-.0317339.0148091-.0888548,0-.0888549ZM25.1839749,18.6607589c0,.0186172.0100138.0488702-.0099433.0557811-.0399846.0461199-.123621.019957-.1436485-.0420298-.0299003-.0633267-.0602238-.1335644-.121858-.159022-.0602943-.0117063-.1136072-.0048659-.143578.0571209-.0619868-.0454147-.123621-.0117063-.1804598-.0234126.0199571-.0971057-.0771485-.0901948-.1287689-.153592-.0602943-.057121-.0382217-.1707988.0516204-.2003465.0685451-.0317339.1270764.0247525.1422382.1019011-.0082508-.0137513-.0151617-.0137514-.0182646-.0289131,0,.0289131-.0133987.0468251,0,.0653718.0616342.0586019.1336347-.0185466.2021093.031734.0785589.0468251.1852551-.0268679.2755203.0268681.0051479,0-.0100138.0433696.0216495.0433696.1002084.0165017.1353272.1053565.1119147.1803895-.0065583.0186172-.0234125.053736-.0585313.04478Z"/>
              <g>
                <path class="st0" d="M15.9558448,36.0186925c1.2829639-1.900083,5.1653529-3.9364797,8.9709461-3.9364782,3.8255503.0000015,7.9585665,2.2099502,9.5941287,1.0405928,0,0-1.670681,1.4434676-5.0417321,1.4434664-3.3744361-.0000013-4.6591633-1.7003029-7.0013326-1.7003038-2.3438618-.0000009-4.8248136,1.8972609-5.8571507,3.4901601l-.6648593-.3374371Z"/>
                <path class="st0" d="M27.9989092,31.8067654s1.1159735-.6666225,1.6958565-1.8931719c.5929292-1.2326846,2.123135-3.1823429,3.6651177-4.3819534,0,0-1.7340778,5.4714839-3.5180841,5.7152699,0,0-.2823607.1707987.2203739.0867393.5061901-.0867391,2.788065-.9255703,3.6017208-1.0653401.8037125-.13709,2.7849622-.584678,3.3159752-1.1142809.4493512-.4462487.7520216-.3842617.7520216-.3842617,0,0-2.2020464,3.6747116-6.162924,3.6747101,0,0-1.9495864-.165299-3.5700576-.6377113Z"/>
                <path class="st0" d="M32.6832477,29.9135946s.4159249-.6377097.5013241-1.7354198c.0868096-1.0860038.7547716-3.5914283,2.6561928-6.3281572,0,0,.2772132,4.3248339-1.8780083,6.9761632,0,0-.1301087.3863775.1470335.1040167.2806682-.2796106,1.6373252-1.9165845,4.5758791-3.9040408,0,0,1.525058-1.2547569,1.6121497-1.6693424,0,0-1.1961539,6.1374019-7.6145708,6.5567802Z"/>
                <path class="st0" d="M36.4020308,25.8077965s.1636055-.6934909.1636055-1.2795804c0-.5894744-.252108-2.5962544-.2521081-3.4915023,0-.8953184.0885019-2.5625458.7782546-3.6933999,0,0,0,.9951744.2224191,1.4448788.2255219.439338.4758668,2.2236987.4758669,2.4440729,0,.221714-.0581786,1.7319645-.4476585,2.5391331,0,0,.2823607-.1638877.5898263-.7465216.3057732-.5950453,1.0557496-1.6775934,2.2051494-2.820083,1.1407964-1.1425602,1.3897307-2.200356,1.3897307-2.200356,0,0,.2806684,2.0047349-1.1975644,4.1148256-1.4803484,2.1335032-2.0915423,1.7609473-2.9003322,2.6293269,0,0-.9238779,1.1211928-1.0271892,1.0592059Z"/>
                <path class="st0" d="M38.7056255,20.9864342s-.0485176-1.2292999-.2706546-1.6184278c-.2337727-.3994238-1.5601771-2.8131735-1.2846571-5.9087779,0,0,.220656-.1975962.6397544,1.0034254.4111297,1.2017268,1.0075145,1.559121,1.1979176,2.761553.2021094,1.1914309.2021095,1.6955059.2021095,1.6955059,0,0,.1336348.1673434.1336348.0303235,0-.1453412.1418854-1.7554475.8136555-3.2305789.6649297-1.4771765,1.5553813-2.8738193,1.4751298-3.8544667,0,0,.3908199.0316635.3291859,1.6204024-.0502804,1.59431-.4714235,4.3551571-3.2360758,7.501041Z"/>
                <path class="st0" d="M39.4407924,16.1037191s-.4813673-1.1080766-.8153484-1.4785169c-.3340516-.3540092-2.6528087-3.7340205-2.841449-5.2711391,0,0,.1886401-.1032408.4142325.2810213.2255219.3973787,1.3414955,1.5053851,1.5336616,1.6755493.2003464.1700937,1.3697739,1.4248516,1.4799257,2.7594375,0,0,.1119147.1425909-.1101519-2.0914741-.2207267-2.228494.7282562-3.6733723-.0533838-5.2421544,0,0,1.0891056.1687541,1.6686365,4.7442858,0,0-.0248228,1.617652-.8618909,3.5989739,0,0-.2805976,1.0240168-.4142324,1.0240168Z"/>
                <path class="st0" d="M38.5989283,11.0902599s-.8670392-.8939084-1.5653954-1.3112444c-.6917273-.4249521-2.8669063-2.5680475-3.2577264-4.2435963,0,0,.1404751-.1852553.8353759.7265651.5312951.701742,1.0825473.3594395,2.6778431,2.3724257,0,0,.2238294.4490697.3357441.4125405.1071194-.0186172-.0585314-.4676163-.0585314-.4676163,0,0-.3105687-1.2513021-.3374367-1.7058018-.0234126-.4476592-.6631671-2.8111986-.8869965-3.1203572,0,0,2.143445,1.2244348,2.4557769,4.6822287,0,0-.0919574,2.5109254-.1986536,2.6548561Z"/>
                <path class="st0" d="M36.7560378,7.4030647s.1452702-3.0149298-3.8290062-4.5472545c0,0,1.3766145,2.8214948,2.4089518,3.4901632,1.0309269.6728291,1.4200544,1.0570912,1.4200544,1.0570912Z"/>
              </g>
            </g>
            <g>
              <path class="st0" d="M26.6074862,36.0186966c-1.2847273-1.900084-5.1671166-3.9364836-8.9791976-3.9364851-3.815607-.0000015-7.9520783,2.2099441-9.5941991,1.0405854,0,0,1.6724443,1.4434689,5.0516757,1.4434702,3.3697112.0000013,4.660926-1.7002993,7.0014028-1.7002984,2.335611.0000009,4.8131077,1.8972646,5.84883,3.4901646l.6714881-.3374366Z"/>
              <path class="st0" d="M14.5661136,31.8067602s-1.1177366-.6666234-1.710666-1.8931732c-.5815757-1.232685-2.1166478-3.1823445-3.6520018-4.3819562,0,0,1.7275205,5.4714852,3.5201302,5.7152726,0,0,.2771423.1707989-.224182.0867392-.5044271-.0867395-2.7928605-.9255725-3.601721-1.0653429-.8085079-.1370907-2.7880652-.5846801-3.3211233-1.1142835-.4442034-.446249-.7533615-.3842623-.7533615-.3842623,0,0,2.2037396,3.6747133,6.1694124,3.6747148,0,0,1.9478939-.1652975,3.573513-.6377085Z"/>
              <path class="st0" d="M9.8735239,29.9135859s-.4142325-.63771-.5013949-1.7354201c-.0815913-1.0860038-.7533618-3.5914289-2.6475905-6.3281592,0,0-.2809499,4.3248337,1.8625658,6.9761647,0,0,.1470335.3863776-.1336347.1040165-.2772128-.2796108-1.6438839-1.9165858-4.5806751-3.9040443,0,0-1.5302061-1.2547581-1.6104575-1.6693436,0,0,1.1993283,6.1374028,7.611187,6.5567861Z"/>
              <path class="st0" d="M6.1646833,25.8077849s-.1669906-.6934911-.1669907-1.2795805c0-.5894744.2506266-2.5962542.2506265-3.4915021,0-.8953184-.0836365-2.5625459-.7802298-3.6934005,0,0,0,.9951744-.2220663,1.4448786-.2255923.4393378-.476219,2.2236984-.476219,2.4440725,0,.221714.0533835,1.7319645.4475885,2.5391334,0,0-.2771423-.163888-.5929293-.7465221-.3057733-.5950456-1.0574424-1.6775942-2.1968286-2.8200847-1.1376937-1.142561-1.394879-2.200357-1.394879-2.200357,0,0-.2755201,2.0047347,1.2010206,4.1148265,1.4768228,2.1335044,2.0849138,1.7609489,2.8985696,2.6293291,0,0,.9221151,1.1211935,1.0323373,1.0592067Z"/>
              <path class="st0" d="M3.8493815,20.9864208s.0568387-1.2292999.2772126-1.6184276c.222419-.3994236,1.5635616-2.8131723,1.2829636-5.9087769,0,0-.2220664-.1975964-.6397542,1.0034249-.4207907,1.2017265-.9989108,1.5591203-1.202783,2.761552-.1955509,1.1914307-.1955509,1.6955057-.1955509,1.6955057,0,0-.1336347.1673433-.1336347.0303234,0-.1453412-.1470336-1.7554476-.8102006-3.2305795-.6666224-1.477177-1.5653251-2.8738205-1.4816888-3.8544678,0,0-.3925124.0316632-.3357439,1.6204021.056839,1.59431.475867,4.3551575,3.23918,7.5010435Z"/>
              <path class="st0" d="M3.1211246,16.1037052s.4758665-1.1080763.8133031-1.4785163c.3374365-.3540089,2.6430764-3.7340185,2.8452561-5.2711369,0,0-.2021799-.103241-.4228358.2810209-.2221369.3973786-1.3364179,1.5053841-1.5336613,1.6755481-.1987244.1700935-1.3615229,1.4248506-1.4834512,2.7594363,0,0-.1019009.1425908.1219283-2.091474.2155784-2.2284938-.7248014-3.6733728.0568384-5.2421544,0,0-1.0908685.1687533-1.6804125,4.7442845,0,0,.0282785,1.617652.865347,3.5989746,0,0,.2823608,1.0240171.417688,1.0240171Z"/>
              <path class="st0" d="M3.9612954,11.0902466s.8618912-.8939077,1.5618692-1.3112432c.6983561-.4249516,2.8683163-2.5680453,3.266047-4.2435938,0,0-.143578-.1852554-.8401711.7265644-.5296026.7017416-1.0908685.3594386-2.6731179,2.3724236,0,0-.2237588.4490695-.3356735.4125403-.1170626-.0186173.0533833-.4676163.0533833-.4676163,0,0,.3109211-1.2513019.3325705-1.7058015.0265154-.4476592.6714879-2.8111981.8953173-3.1203565,0,0-2.1531765,1.2244332-2.4506281,4.6822268,0,0,.0784886,2.5109254.1904033,2.6548562Z"/>
              <path class="st0" d="M5.8055251,7.4030529s-.1452708-3.0149299,3.8156066-4.5472516c0,0-1.3649782,2.8214937-2.3955524,3.4901614-1.0305742.6728283-1.4200542,1.0570902-1.4200542,1.0570902Z"/>
            </g>
          </g>
        </g>
      </g>
    </g>
  </g>
</svg>