<?xml version="1.0" encoding="UTF-8"?>
<svg id="Layer_1" xmlns="http://www.w3.org/2000/svg" xmlns:xlink="http://www.w3.org/1999/xlink" version="1.1" viewBox="0 0 149 37">
  <!-- Generator: Adobe Illustrator 29.3.1, SVG Export Plug-In . SVG Version: 2.1.0 Build 151)  -->
  <defs>
    <style>
      .st0 {
        fill: #009edb;
      }
    </style>
  </defs>
  <g id="Page-1">
    <g id="Artboard">
      <g id="ocha-logo">
        <g id="Group">
          <path id="Shape" class="st0" d="M48.4,19.4c0-7.1,5.2-12.7,12.6-12.7s12.6,5.5,12.6,12.7c0,7.1-5.3,12.6-12.6,12.6s-12.6-5.5-12.6-12.6M70.1,19.4c0-5.3-3.6-9.6-9.1-9.6s-9.1,4.3-9.1,9.6,3.6,9.6,9.1,9.6,9.1-4.4,9.1-9.6"/>
          <path id="Shape1" data-name="Shape" class="st0" d="M95,12.5c-1.4-1.8-3.6-2.8-5.8-2.8-5.4,0-9,4.3-9,9.8s3.4,9.4,9,9.4,4.9-1.2,6.3-3.2l2.8,2.1c-.7,1-3.6,4.2-9.1,4.2s-12.4-6.4-12.4-12.5,5.1-12.9,12.6-12.9,6.5,1.2,8.4,3.7l-2.8,2.2Z"/>
          <polygon id="Shape2" data-name="Shape" class="st0" points="102.2 7.3 105.5 7.3 105.5 17.3 117.9 17.3 117.9 7.3 121.2 7.3 121.2 31.4 117.9 31.4 117.9 20.4 105.5 20.4 105.5 31.4 102.2 31.4 102.2 7.3"/>
          <path id="Shape3" data-name="Shape" class="st0" d="M135,7.3h3l10.3,24.1h-3.8l-2.4-6h-11.5l-2.4,6h-3.8l10.6-24.1ZM140.8,22.6l-4.5-11.1h-.1l-4.6,11.1h9.2Z"/>
          <path id="Shape4" data-name="Shape" class="st0" d="M17.6,15.6c0-1.8,1.5-3.3,3.3-3.3s3.3,1.5,3.3,3.3-1.5,3.3-3.3,3.3v-.4c1.6,0,2.9-1.3,2.9-2.9s-1.3-2.9-2.9-2.9-2.9,1.3-2.9,2.9,1.3,2.9,2.9,2.9v.4c-1.8,0-3.3-1.5-3.3-3.3"/>
          <path id="Shape5" data-name="Shape" class="st0" d="M15,15.6c0-3.3,2.7-6,6-6s6,2.7,6,6-2.7,6-6,6v-.4c3.1,0,5.6-2.5,5.6-5.6s-2.5-5.6-5.6-5.6-5.6,2.5-5.6,5.6,2.5,5.6,5.6,5.6v.4c-3.3,0-6-2.7-6-6"/>
          <path id="Shape6" data-name="Shape" class="st0" d="M12.1,15.6c0-4.9,4-8.9,8.9-8.9s8.9,4,8.9,8.9-4,8.9-8.9,8.9v-.5c4.7,0,8.4-3.8,8.5-8.4,0-4.7-3.8-8.4-8.5-8.5-4.7,0-8.4,3.8-8.5,8.5,0,4.7,3.8,8.4,8.5,8.4v.4c-4.9,0-8.9-3.9-8.9-8.8"/>
          <path id="Shape7" data-name="Shape" class="st0" d="M9.3,15.6c0-6.4,5.2-11.6,11.7-11.6s11.6,5.2,11.6,11.6-5.2,11.6-11.6,11.6v-.4c6.2,0,11.2-5,11.2-11.2s-5-11.2-11.2-11.2-11.2,5-11.2,11.2,5,11.2,11.2,11.2v.4c-6.5,0-11.7-5.2-11.7-11.6"/>
          <path id="Shape8" data-name="Shape" class="st0" d="M6.3,15.6C6.3,7.5,12.9.9,21,.9s14.7,6.6,14.7,14.7-6.6,14.7-14.7,14.7v-.4c7.9,0,14.3-6.4,14.3-14.3S28.9,1.3,21,1.3,6.7,7.7,6.7,15.6s6.4,14.3,14.3,14.3v.4c-8.2,0-14.7-6.6-14.7-14.7"/>
          <rect id="Rectangle-path" class="st0" x="20.7" y="1.1" width=".4" height="11.4"/>
          <polygon id="Shape9" data-name="Shape" class="st0" points="10.6 5.5 10.9 5.2 18.9 13.2 18.6 13.5 10.6 5.5"/>
          <rect id="Rectangle-path1" data-name="Rectangle-path" class="st0" x="6.5" y="15.4" width="11.4" height=".4"/>
          <polygon id="Shape10" data-name="Shape" class="st0" points="10.6 25.7 18.6 17.7 18.9 18 10.9 26 10.6 25.7"/>
          <rect id="Rectangle-path2" data-name="Rectangle-path" class="st0" x="20.7" y="18.7" width=".4" height="11.4"/>
          <rect id="Rectangle-path3" data-name="Rectangle-path" class="st0" x="26.9" y="16.1" width=".4" height="11.3" transform="translate(-7.5 25.4) rotate(-44.8)"/>
          <rect id="Rectangle-path4" data-name="Rectangle-path" class="st0" x="24.1" y="15.4" width="11.4" height=".4"/>
          <polygon id="Shape11" data-name="Shape" class="st0" points="23 13.2 31.1 5.2 31.3 5.5 23.3 13.5 23 13.2"/>
          <path id="Shape12" data-name="Shape" class="st0" d="M18.7,16.5c.1,0,.1.1.1.2h.1c.2-.2.3-.5.4-.7,0,0,.1,0,.1-.1s-.2-.2-.2-.3c-.1.2-.3,0-.4.1h0c0,.1.1.1.1.1v.2h0c-.1-.1-.2-.1-.3-.1.1,0,0,0,0,.1-.2,0-.4,0-.5.1q-.1,0-.2-.1c-.1.1-.1.2-.2.2h-.1c.1-.2.2-.2.2-.3v-.3c.1-.1.1-.2.2-.2s.3.1.4,0h.1v.2c-.1.1-.2.1-.2.2s0,.1.1.1.1-.1.2-.1c0-.1.1,0,.1,0h.3c.1,0,.1-.3,0-.4h0v-.2c0-.1.2-.1.2,0h0c0,.1,0,.2.1.1h0v-.2s.1.1.2.1h.2c.1,0,.1-.1,0-.2h-.1c-.1.1-.2.1-.2.1-.1,0-.1-.1-.2-.1s-.2.1-.2,0c-.1,0-.1-.1-.1-.2h.1c.1-.1.2-.1.3-.2,0-.1.1-.2.1-.2h.1c.1,0,.2,0,.3-.1.1,0,.2-.1.3-.2.1,0,.1-.1.2-.1,0,0,0-.1.1-.1v-.5c0-.1.1-.1.1-.1h-.1s-.1-.1,0-.1c0,0,.2,0,.2-.1.1-.1,0-.3-.1-.3-.1-.1-.2,0-.3,0,0,0,0,.1-.1.1s-.2-.1-.1-.2h0c0-.1-.1-.1-.1-.1l-.3.3h0c0,.2,0,.3-.1.3h-.1c0,.1.2.1.1.2-.1.1-.2.1-.4.2-.3.1-.6,0-.9,0h-.5c-.1,0-.1.1-.2.2h0v-.2c0-.1-.1,0-.1-.1-.2-.4-.7-.3-1.1-.3s-.1.1-.1.1c-.1.1-.2,0-.3,0h-.1c-.1.1-.2,0-.3.1s-.1.1-.2.1h0c0,.1-.1.1-.1.1-.1,0-.3,0-.3.1h0c0,.1,0,.3-.1.3s-.3,0-.4.1c-.1,0-.1.1-.2.1-.2.4-.4.7-.4,1.2h0c-.2.5-.3.7-.6,1.2-.1.2-.2.6,0,.7.1.1,0,.2-.2.2s-.4,0-.4-.2-.2-.1-.3-.1h-.4c-.2,0-.2.3-.3.4s-.3.1-.3.2v.2s-.1,0-.1.1h0c0,.3-.1.4,0,.6h0c0,.3,0,.4-.1.6s-.3.2-.5.2h-1c-.1,0-.1-.1-.2-.1-.1-.1-.1-.2-.1-.2-.1-.1-.3,0-.4.1.1,0,0,.1,0,.1-.1,0-.2.1-.3.2s-.2-.2-.2-.3-.1-.1-.2-.1h0c0,.1-.1.1-.1.1-.1.1.1.1.1.1h0c0,.1-.1.1-.1.1,0,.1-.1.1-.1.1h0c0,0,0,.1,0,0v-.2h0q0,.1,0,.1h0c0,.1.2.1.2.1,0,0,0,.2,0,.3h0c0,.1,0,.2,0,.1s0-.2,0-.3h0c0,.2,0,.3,0,.5s-.2.2,0,.2c0,0,0,.1.2.1h0c0-.1.1-.2.1-.1h0c0,.1-.1.1-.1.1v.3h0c0,.2.2.1.2.2s-.1.1,0,.2c0,0,.1,0,.1.1h0c0,.1.1.1.1.2q.1,0,.1-.1c.1,0,.1-.1.1-.2,0,0,0-.1-.1,0v-.2c0-.1-.1-.1-.1-.2q.1,0,.2-.1s.1,0,.1.1h0c.1.1.1.2.1.2.1,0,.1.1.2.2h.3c0-.1.1,0,.1,0,0,.1,0,.2.1.3h.2c0,.1.1.1.1.1.1,0,.1.1.1.1h0c.1,0,.2,0,.2.1.1.1.1.2.2.4,0,.1.1.1.1.1,0,0,0,.1.1.1.1.1.2.1.3.1,0,0,.1-.1.2-.1h.1c.1.2.1.4.3.4s.1.1.2.2h.2s0,.1.1.1c.1.1.2.1.2.2h0c.1.1.2,0,.2.1.1.1.2.1.2.2h.1c0-.2.1-.1.2-.2.1,0,.1-.2.1-.2.1,0,.2.1.3.2h.1c.1.1.1.3.2.3.2,0,.2.1.4.2.1,0,.2.1.3.1h.1q.1,0,.2-.1c0-.1.3-.1.4-.2h.1c.2-.2.5,0,.7-.1q.1,0,.2-.1c0-.1.2-.3,0-.4-.1-.2-.2-.5-.3-.7-.1-.1-.2-.2-.3-.3h-.1c-.1,0-.1-.1-.1-.2,0,0-.1,0-.1-.1v-.2h0c-.1-.1-.2-.2-.4-.2,0,0-.1,0-.1-.1h0c.1-.2.2-.2.3-.2h0v-.3s0-.1-.1-.1c0-.1.1-.2,0-.3-.1-.1-.2-.2-.2-.3,0,0-.1,0-.1-.1v-.5c0-.1-.1-.1,0-.2h.1c.1-.1.1-.2.1-.3-.1-.1-.2,0-.2,0h0v-.3h-.1v-.3s0-.1-.1,0v-.2c0-.1-.1-.2-.2-.1h0s-.1.1-.2,0h0c0,0,.1,0,.1-.2.1-.1,0-.2,0-.2-.1-.1-.2-.2-.1-.3-.1,0-.3,0-.3-.2s0-.3-.1-.4v-.3s0-.1.1-.1c.2,0,.4,0,.4-.1.1-.1-.1-.3,0-.3.2-.1.4,0,.6-.2.1,0,.1-.1,0-.2,0-.1-.1-.2-.1-.2-.1-.1-.2,0-.3-.2v-.2c0-.1.1-.1.2-.2.2-.1.3,0,.5.1h0v.2c0,.2.1.4,0,.6,0,.1-.1.1-.1.2h.1c0,0,.1.3,0,.4s-.1,0-.3,0-.1,0-.1.1h.1c.4.2.5.2.9.3.1,0,.1.1.2.1h.3c0,.1.1.1.1.1.1.1.1.3.2.3.1-.1.2,0,.2,0-.1.1,0,.2,0,.3.1.1.2.1.3.2.1.1.2.1.2,0s-.1-.2,0-.3c.1.2,0,.4.1.6h0c.1.1.1.2.2.2s.1-.1.1-.2h0q0-.2.1-.3c0-.1.1-.2.1-.3h0c0-.2.2-.3.3-.3h0c.1-.1,0-.3.1-.3,0-.1.1-.1.1-.2,0,0,.1-.1,0-.1.5.1.5,0,.5,0"/>
          <path id="Shape13" data-name="Shape" class="st0" d="M14.5,16.3h-.1c0,.1.1.2.1.2v.3c0,.1.1.2.2.1.1-.1.2-.3.1-.4-.2,0-.1-.1-.3-.2"/>
          <path id="Shape14" data-name="Shape" class="st0" d="M14.3,17.2h0c.1.2.2.1.3.1h0q-.1-.2-.3-.1c.1-.1,0-.1,0-.1h0"/>
          <path id="Shape15" data-name="Shape" class="st0" d="M14.6,17.6c0-.2-.1-.2-.2-.1-.1.1,0,.3.1.4,0,0,0,.1.1.1,0,.1.1,0,.2,0q0-.1.1-.1c-.1-.1-.2-.3-.3-.3"/>
          <path id="Shape16" data-name="Shape" class="st0" d="M14.3,16.8c0,0-.1,0,0,0q-.1,0-.1.1c0,.1,0,.2.1.2,0,0,.1,0,.1-.1q-.1-.1-.1-.2"/>
          <path id="Shape17" data-name="Shape" class="st0" d="M14.7,17.4h.1c0-.1.1-.1.1-.1h0c-.1-.1-.1,0-.2,0s0,.1,0,.1"/>
          <path id="Shape18" data-name="Shape" class="st0" d="M14.6,18.3q0,.1.1.1h.1c0-.1-.2-.1-.2-.1,0,0,0,0,0,0"/>
          <path id="Shape19" data-name="Shape" class="st0" d="M14.8,19c0-.1.1-.1,0-.2h-.1c0,.1.1.2.1.2"/>
          <path id="Shape20" data-name="Shape" class="st0" d="M8.5,21.5h0c0,.1.2.1.2.1,0,0,0-.2-.2-.1"/>
          <path id="Shape21" data-name="Shape" class="st0" d="M9.1,22.2c-.1.1.1.2.2.2v-.2s-.1-.1-.2,0"/>
          <path id="Shape22" data-name="Shape" class="st0" d="M9.4,22.6c0,.2.1.3.2.3.1-.2,0-.3-.2-.3"/>
          <path id="Shape23" data-name="Shape" class="st0" d="M19.5,17.4c.2-.1.4-.1.6-.1.4,0,.4-.6.6-.9,0-.1,0-.3-.1-.4-.1-.2-.6,0-.7-.2-.1-.1.3.1.3-.1s0-.1-.1-.2h-.2c-.2.2-.3.5-.4.8-.3.4-.7.7-.9,1.2q0,.1.1.2c.3,0,.6-.2.8-.3"/>
          <path id="Shape24" data-name="Shape" class="st0" d="M21.3,16.4q-.1,0-.2.1v.2h.1q0-.1-.1-.1c.2-.1.2-.2.2-.2"/>
          <path id="Shape25" data-name="Shape" class="st0" d="M20,17.9c.1.2.5.1.5,0s-.3-.2-.4-.2c-.2,0,.1.1-.1.2"/>
          <path id="Shape26" data-name="Shape" class="st0" d="M20.5,19.2c.1-.1.1-.2.1-.3l-.3.3h.2"/>
          <path id="Shape27" data-name="Shape" class="st0" d="M22.3,16.5h0c0-.1-.2-.1-.2-.1-.1,0-.1-.1-.1-.2s-.1-.2-.1-.3c-.1,0-.1.2-.1.2.2.2.3.5.5.4"/>
          <path id="Shape28" data-name="Shape" class="st0" d="M19.9,15.3c-.1-.1-.1,0,0,0-.1,0,0,0,0,0h0"/>
          <path id="Shape29" data-name="Shape" class="st0" d="M8.1,19.1s0-.1-.1-.1h0c0,.1,0,.2.2.1"/>
          <path id="Shape30" data-name="Shape" class="st0" d="M8.8,19.1c.1,0,.2-.1.1-.2h0c-.1-.1-.3,0-.2.1-.1.1,0,.2,0,.1"/>
          <path id="Shape31" data-name="Shape" class="st0" d="M20.2,12.1c0-.1.1-.1.1-.2h-.1c-.1,0-.1,0,0,.2q-.1-.1,0,0c-.1,0,0,0,0,0"/>
          <path id="Shape32" data-name="Shape" class="st0" d="M20.5,12s.1-.1,0-.1h-.1s0,.1.1.1"/>
          <path id="Shape33" data-name="Shape" class="st0" d="M19.4,14.6c0,.1.2.3.3.2.1-.1,0-.2,0-.2,0-.1-.2-.1-.3,0"/>
          <path id="Shape34" data-name="Shape" class="st0" d="M19.7,15.4h-.2q0-.1-.1-.1s0,.1.1.1c0,0,.1,0,.2,0"/>
          <path id="Shape35" data-name="Shape" class="st0" d="M19.4,15.6c-.1,0,0,.1,0,.2q.1,0,.2-.1c0-.1.1-.2,0-.2s-.2,0-.2.1"/>
          <path id="Shape36" data-name="Shape" class="st0" d="M19.2,15.3c0,.1-.1.2,0,.3,0,.1.1,0,.1,0,0-.1,0-.2.1-.2h-.2q0,0,0-.1h0"/>
          <path id="Shape37" data-name="Shape" class="st0" d="M26.8,22.4c.1,0,0-.1,0,0h0"/>
          <path id="Shape38" data-name="Shape" class="st0" d="M21,18.5c0,.1,0,0,0,0h-.1c0-.2-.1,0-.2-.1h0c.1.1,0,.1-.1.2,0,.1.1.1.1.1,0,.1-.1.1,0,.2h0c0,0-.1.2,0,.2.1.1.2-.1.3-.1h.1c.1,0,.1-.1.2-.2h-.2s-.1,0,0-.3c0,.1,0,0,0,0"/>
          <path id="Shape39" data-name="Shape" class="st0" d="M21.6,20.4c0,.1.1.1,0,0,.1,0,.1-.1.1-.2h-.1v.2"/>
          <path id="Shape40" data-name="Shape" class="st0" d="M21.7,20.2c.1,0,0-.1,0-.1h-.1s0,.1.1.1"/>
          <path id="Shape41" data-name="Shape" class="st0" d="M22.3,20.5s0-.1,0,0c-.1,0-.1-.1-.2,0h0,.3"/>
          <path id="Shape42" data-name="Shape" class="st0" d="M23.3,20.4h0c-.1-.1-.2,0-.3-.1h0q0,.1-.1.1c.2.1.3,0,.4,0"/>
          <path id="Shape43" data-name="Shape" class="st0" d="M23.7,20c0,.2.2.1.2,0,0-.1,0-.1-.2,0h.1-.1"/>
          <path id="Shape44" data-name="Shape" class="st0" d="M28.5,16.8c0,.1.1.1.2.1s.2,0,.3-.1c0-.2-.1-.3-.3-.3-.2.1-.2.2-.2.3"/>
          <path id="Shape45" data-name="Shape" class="st0" d="M28.5,21.9h-.1c-.1.5-.6,1.2,0,1.5.2.2.5-.1.6-.3,0-.3,0-1-.5-1.2"/>
          <path id="Shape46" data-name="Shape" class="st0" d="M27,19.7c-.1,0-.1.2,0,.2,0,0,.1,0,.1-.1h0q0-.1-.1-.1"/>
          <path id="Shape47" data-name="Shape" class="st0" d="M27.4,24.8v.2s.2-.1,0-.2h0"/>
          <path id="Shape48" data-name="Shape" class="st0" d="M29.7,13.1h-.1v.2c-.2.4-.7.9-.4,1.4h0c.1-.1.2-.2.3-.4.1-.3.3-.6.4-1,0,0-.1-.2-.2-.2"/>
          <path id="Shape49" data-name="Shape" class="st0" d="M28.8,14.9q0,.1.1.1c.1,0,.1-.1,0-.1q0,0-.1,0"/>
          <path id="Shape50" data-name="Shape" class="st0" d="M23.7,11.8c-.1-.2-.2,0-.3,0h-.1c0-.1-.1-.1-.1-.1-.1,0,0,.2.1.2s.1-.1.1,0c.1.1,0,.3.2.2.1,0,.2-.1.3-.1s.1-.1.1-.2c.1,0,.2-.1.3,0,0,0,0,.1.1.1,0,.1.1.1.2.1s.2,0,.3-.1c.1-.1.1-.2,0-.3h-.2c-.1,0-.1-.1-.2-.1-.4,0-.6.2-.8.3"/>
          <path id="Shape51" data-name="Shape" class="st0" d="M22.7,12h.3c0-.2-.2-.1-.3-.1,0,0,0,0,0,.1q0-.1,0,0c-.1-.1,0,0,0,0"/>
          <path id="Shape52" data-name="Shape" class="st0" d="M23.1,12.6c.1-.1.3-.2.4-.3h0c0-.2-.1-.2-.2-.3,0,.1-.1.1-.1.1-.1.1-.2.1-.2.2v.2c.1.3.1.2.1.1"/>
          <path id="Shape53" data-name="Shape" class="st0" d="M21.6,11.6h0c.1.2.1,0,0,0h0"/>
          <path id="Shape54" data-name="Shape" class="st0" d="M18,9.4c.1.1.3.1.4.1h.1c-.1-.2-.2-.1-.2-.2h-.1c0,0-.2,0-.2.1-.1,0,0,0,0,0"/>
          <path id="Shape55" data-name="Shape" class="st0" d="M27.1,11c0,.1-.1,0-.2.1h0c.1.2.2.1.3.1h0s.1-.1.1,0h0c-.1.1-.1.2-.1.2h-.3v.2c-.1.1-.4.2-.3.4.1.1.3.1.5.1h0c0-.2.1-.2.2-.3,0,0,0-.1-.1-.1h0c.1-.1.1-.2.1-.2h0l.2-.2c0-.1-.1-.2-.1-.3,0,0,0-.1.1-.1h0q0-.1-.1-.1s-.1,0,0,.1c-.1,0-.2,0-.3.1,0-.2.1,0,0,0"/>
          <path id="Shape56" data-name="Shape" class="st0" d="M26.1,12c0,.1.1.1.2,0h-.2"/>
          <path id="Shape57" data-name="Shape" class="st0" d="M27.5,11.8c-.1.1.1.1.2.1h0c0-.1-.1-.1-.2-.1"/>
          <path id="Shape58" data-name="Shape" class="st0" d="M27.9,11.3q-.1,0,0,0c-.1,0-.1,0,0,0q0,0,0,0h0"/>
          <path id="Shape59" data-name="Shape" class="st0" d="M25.6,7.3c.1,0,.2,0,.2.2v.4h0v.3c0,.1.1.3.1.4.1,0,.1.1.1.1q0,.1.1.2c0,.1.1,0,.2.1s.2.3.3.4c0,0,.1,0,.1.1h0c.2.1.5.2.4.5.1-.1.2-.1.2-.2s.1-.3,0-.4c0-.1-.1-.1-.2-.2v-.2c0-.1-.1-.1-.1-.1,0-.1-.1-.3.1-.3h0c0-.1-.2-.1-.2-.1h0c0-.2,0-.3-.1-.4-.1,0-.2,0-.3,0q-.1,0-.2,0h-.2c-.2-.2-.3-.4-.4-.6-.1,0-.2,0-.3,0q.1-.1.1,0t0,0c0-.1,0,0,0,0"/>
          <path id="Shape60" data-name="Shape" class="st0" d="M24.7,7.6c-.1,0,0,.2,0,.2h.4c.1,0,.1,0,.1,0,.1,0,.2,0,.4,0q0,0,.1,0c0,0,0-.2-.1-.2-.1,0-.1-.2-.2-.3h-.1c0,.2-.1,0-.3.2h0q0,0,0,0h-.2c0,.1,0,.2,0,.2"/>
          <path id="Shape61" data-name="Shape" class="st0" d="M22.4,3.7c-.1-.2-.3-.4-.2-.7.3,0,.6,0,.9,0,.2,0,.5,0,.7,0v-.2c-.3,0-.5-.2-.7,0-.3.2-.6.2-.9.3-.2,0-.9,0-.9.4.3,0,.7,0,.9.3,0,0,.1,0,.2,0"/>
          <path id="Shape62" data-name="Shape" class="st0" d="M23.4,5.2c.1.2.3.2.4.2q0,0-.1-.2h-.3"/>
          <path id="Shape63" data-name="Shape" class="st0" d="M23.1,5.7c-.1,0,0,0,.1.2,0,0,0-.3-.1-.2"/>
          <path id="Shape64" data-name="Shape" class="st0" d="M22.9,5.4h0c.1,0,0-.2-.1-.2h0q0,0,.1.2"/>
          <path id="Shape65" data-name="Shape" class="st0" d="M23.8,6.5s0,0,0,0h0c.1,0,.1-.2.1-.2h-.1c0,0,0,.2,0,.2"/>
          <path id="Shape66" data-name="Shape" class="st0" d="M24.1,6.5h0c.1.2.1,0,0,0q.1,0,0,0c.1,0,0,0,0,0"/>
          <path id="Shape67" data-name="Shape" class="st0" d="M24,6.8h0q.1-.1,0,0h.1c0-.2-.1-.2-.2,0-.1,0,.1,0,.1,0"/>
          <path id="Shape68" data-name="Shape" class="st0" d="M24.1,6.8h0c0,0,.1.2.2,0,0,0,.1,0,0,0h-.2Z"/>
          <path id="Shape69" data-name="Shape" class="st0" d="M24.6,7h0c0,0-.1-.2-.1-.2,0,0-.1,0,0,0q0,0,.1,0"/>
          <path id="Shape70" data-name="Shape" class="st0" d="M24.7,7.3h0q.1,0,.1,0h0c0-.1-.1-.1-.1-.1h-.1c0,0,.1.2.1.2"/>
          <path id="Shape71" data-name="Shape" class="st0" d="M24.5,7.5h0q.1,0,0-.2h-.1s0,0-.1,0q.1,0,.2,0"/>
          <path id="Shape72" data-name="Shape" class="st0" d="M24.2,2.5h0q-.1,0-.2,0c.1,0,.1.2.2,0"/>
          <path id="Shape73" data-name="Shape" class="st0" d="M27.6,5c.1,0,.2,0,.2,0,.1,0,.1.2.2.2s.1,0,.1,0c0-.2,0-.4-.2-.4h-.5c-.1,0-.1,0-.1.2,0,0,.2,0,.3,0"/>
          <path id="Shape74" data-name="Shape" class="st0" d="M31.7,10.2c-.1-.1-.1-.3-.2-.4-.1-.1-.2-.1-.3-.2v-.2h-.1c-.1-.3-.1-.4-.3-.4,0-.2-.1-.2-.3-.3h0c0-.2-.1-.2-.1-.2h-.1c-.1-.1-.2-.2-.2-.3s-.2-.2-.3-.3h-.1c-.1,0-.2,0-.2-.2,0-.2-.2-.3-.3-.4-.2,0,0-.4-.1-.7,0,0-.1,0-.2,0,0,0-.1,0-.1,0-.1,0,0-.3-.1-.4-.1-.2-.3-.3-.4-.5-.1,0-.2,0-.3,0h-.2c-.1-.2-.2-.3-.3-.3-.2,0-.4,0-.6,0-.2,0-.4,0-.5.2-.2,0-.3.2-.5.2s0,0,0,.2-.2.2-.1.2h.2c.1,0,.1,0,.1,0,.1,0,.2.2.2.3,0,0-.1,0,0,.2s.1.2.1.3.1,0,.1,0c.2,0,.2.3.1.4v.3c.1.2.1.4.2.5h.1c.1,0,.1-.2.2-.2.2-.2.4.2.5.3.1.2,0,.4.1.6,0,.2.2.3.3.4,0,0,0,.1.1.2h.1c0,.1,0,0,.1,0h.1c.2.2.2.6.5.6,0,0,0,.1.1.1s.1-.1.2,0c0,.1.1.2.1.2h.3c.1,0,.1.1.2.2h.1c.2.3.3.6.5.8.1.1.2.2.3.1h0c.1-.1.2-.2.2-.3.1-.1.2-.2.3-.3h0c.1-.1.2-.1.3-.2.3,0,.2-.2.2-.2"/>
          <path id="Shape75" data-name="Shape" class="st0" d="M27.5,10.3c0,.1.1.1.2.1.1.1.1.2.2.2.1.1.1-.1.1-.2h.1c.1-.1,0-.3-.1-.4s-.1-.2-.3-.2-.1,0-.2.1,0,.2,0,.3t0,0"/>
          <path id="Shape76" data-name="Shape" class="st0" d="M28.2,10.7c-.1.2,0,.4,0,.6s-.2.1-.2.2c0,0-.1.1,0,.2,0,.1.2.1.3.2.2.1.5.3.6.6.1.1.1.2.1.3.1.1.2.1.2.2s.1.1.1,0c.1-.1.1-.3,0-.4q-.1-.1-.1-.2c0-.3-.1-.5-.2-.8-.1-.1-.2-.2-.3-.3h0c0-.2.1-.2.1-.3s-.1-.2-.2-.3h-.1.1c-.2,0-.3,0-.4,0"/>
          <path id="Shape77" data-name="Shape" class="st0" d="M29.7,12.1v-.2c0-.2-.2-.2-.3-.2h-.1v.2c.2.3.2.6.3,1,0,.1.3,0,.3-.1v-.2c0-.1-.1-.1-.1-.2s0-.2,0-.3"/>
          <path id="Shape78" data-name="Shape" class="st0" d="M29.3,11.2c-.1.1,0,.2,0,.3h0q.1,0,.1-.1c-.1,0,0,0-.1-.2h0"/>
          <path id="Shape79" data-name="Shape" class="st0" d="M29.3,11q0-.1-.1-.1c0,.1-.1.1-.2.1-.1.1,0,.1.1.2h0c.2,0,.3,0,.2-.2h0"/>
          <path id="Shape80" data-name="Shape" class="st0" d="M28.8,10.5c.1.1,0,.2.1.2s.2.1.3,0c.1,0,0-.1-.1-.1h0q0-.1-.1-.1c-.1-.1.1-.1,0-.2h0c0-.1-.1-.1-.1-.1h0c0,.2-.2.3,0,.3"/>
          <path id="Shape81" data-name="Shape" class="st0" d="M28.7,9.9c-.1,0-.2,0-.2-.1h-.1s-.1.1,0,.1.1.1.1.1c0,.1.1,0,.1.1s.1.1.1,0h0c0-.1,0-.2,0-.1,0,0,0-.1,0-.1"/>
          <path id="Shape82" data-name="Shape" class="st0" d="M21.6,14.5h0q.1-.1,0,0c.1-.1,0-.2,0-.2,0,0-.1,0-.1.1h0q.1,0,.1,0"/>
          <path id="Shape83" data-name="Shape" class="st0" d="M29.4,13.2c-.1,0-.3,0-.4.1-.2.1-.3.4-.4.6-.1.1-.2.2-.4.2,0,0-.1,0-.1-.1v-.2h.1c.1-.2,0-.3,0-.4-.1-.2-.3-.4-.5-.3-.2,0-.3.3-.5.5h0c-.1-.1-.2-.2-.2-.3h0c.1-.1.2,0,.2,0,.1-.1,0-.2-.1-.2s-.1,0-.2,0-.1-.1-.2-.2c0-.1,0-.3-.1-.3s-.2,0-.3-.1h-.2c.1-.1.3-.1.2-.3,0-.1-.1-.1-.2-.1h0v.3c-.1.1-.2.1-.3.1h-.1c-.1,0-.2-.1-.3-.1-.1.1-.1.2-.2.2s-.1,0-.2.1c-.1,0-.1.2,0,.3h0c-.1.1-.1,0-.1,0,0-.1-.1-.2-.1-.3s.1-.2.2-.3v-.2q-.1,0-.2,0c-.2.1-.3.4-.5.3-.1,0-.2-.2-.3-.2s-.1-.1-.2,0-.3.2-.5.3c-.1.1-.3.2-.3.4-.1.2-.4.3-.6.1-.1-.1-.2-.2-.3-.2s-.2.2-.3.2-.1,0-.2-.1h0c.2-.2.4-.3.6-.4.1,0,.1-.1.1-.2h0v-.2c-.3,0-.5.2-.6.4,0,0,0,.1-.1.1-.2,0-.3.1-.5,0v-.2c-.2.1-.2.2-.3.2h-.1c-.1.2.1.4,0,.5,0,.1-.2.1-.3.1v.2c0,.1.1,0,.1.1.1.1.1.3.2.3.2.1.3,0,.5.1.1,0,.2.1.3.2,0,.1.1.1.1.2,0,0,0,.1.1.1h.2c.1,0,0,.1.1.2,0,.1,0,.2.1.4,0,0,0,.2-.1.2,0,0-.1,0-.1.1v.3h.1c.1.1.1.2.2.3h.1c-.1.1-.1.2-.1.2,0,0,.1.1.2,0,.1,0,.1-.1.2-.1,0,0,.1,0,.1-.1,0,0,.1.1.1.2-.1.1-.3,0-.4.1q-.1,0-.2.1s0,.1.1.1c.2.1.1.4-.1.6v.2h-.1c-.2,0-.5-.1-.7,0-.1,0-.1.1-.1.2h0c-.1,0-.1.1-.1.1v.2c-.2.2-.2.5-.3.7,0,.1.1.1.1.1.1,0,.1-.1.2-.1s.1.2.1.2c0,.1.2.1.2,0s0-.2.1-.3c0-.1-.1-.2-.1-.3s0-.2.1-.2c0,0,.1,0,.1.1v.4s.1.1,0,.2c0,0,0,.1-.1.1v.2q-.1.1-.1.2c-.2,0-.4-.1-.3-.3q-.1,0-.2.1v.3c-.1.1-.1.2-.2.3h0c-.1.2-.2.3-.3.3h0c-.1.1-.2,0-.2.1s.1.2.1.3,0,.1-.1.2h-.4c0,.1,0,.2-.1.3-.1.1,0,.2.1.2.1.1.1.2.2.2s.1.1.2.1.2-.1.2-.2.1,0,.2,0h.1c.1-.1,0-.2,0-.2l.4-.4c.1,0,.1-.1.2-.1s.1.1.2.1.1.1.2.1h.1c.1,0,.2.2.3.2h0c0-.1,0-.2-.1-.3-.1-.1-.2-.2-.3-.2h.2c.1.1.1.2.2.3.1,0,.1.1.2.1s.2,0,.3-.1q0-.1-.1-.1c-.1-.1,0-.1.1-.2s0-.2,0-.3h0c.1-.2,0-.3,0-.5h0c0,.1.1.1.2.1s.2-.1.2-.2c.1-.1.3,0,.3.1s0,.2-.1.2c-.2,0-.4.1-.5.2h-.1q-.1.2-.1.3h-.1c.1,0,.1.2.1.2.1,0,.2,0,.3-.1v-.2c.1,0,.1-.1.2-.1.2,0,.3.2.2.3h-.1c-.1.1-.2.3-.3.3-.2.1-.5.1-.7.2-.1.1-.1.2-.2.2s-.2.1-.3,0h0c0,.1-.2,0-.3,0,0,0,0-.1-.1-.2h-.1c0-.1-.8-.1-.8-.1-.1,0-.1.1-.1.1h-.1c-.1.2-.2.2-.3.2s-.2,0-.3.1c-.2,0-.3.2-.4.3s-.2.1-.3.1h0c-.2.1-.3.4-.4.6v.2c-.1.1-.1.3-.3.4h0c.1.3.3.4.5.6,0,.1.1.1.1.1.1.1.1.2.2.4s.3.2.5.2.2.1.2.1c.2,0,.5.1.7,0,.3.1.7,0,1,.1.1,0,.1.1.1.2.1.1.2.3.3.4.1.1.3.1.4.1,0,0,0,.1.1.2q0,.1.1.2t.1.2c0,.1-.1.2-.1.4v.2c.2.2.4.4.6.5,0,0,.1,0,0,.1.1,0,.1.1.2.2q0,.1.1.2l.3.3c0,0,.3.1.4.1,0,0,.1,0,.1.1.1,0,.3.1.4,0s.1-.2.2-.2c0-.1.3-.1.4-.1,0,0,.1,0,.1-.1s.1-.1.1-.2c.1,0,.2-.1.3-.1.2-.1.3-.3.5-.4s.4-.1.5-.2c.1-.2,0-.4,0-.6s.1-.2.1-.3v-.5c0-.1-.1-.2-.1-.3s.1-.1.2-.1c.1-.1.1-.3.2-.4,0,0,.1,0,.1-.1.1,0,0-.1,0-.2-.1,0-.1-.1-.1-.1-.1-.2-.3-.4-.5-.5-.1,0-.1-.1-.1-.1h0c-.1-.1,0-.2-.1-.2h.1c.1-.1.1-.3.2-.4,0,0,.1,0,.1-.1v-.3c-.1-.1,0-.3,0-.4,0-.3,0-.5-.1-.8,0-.1-.1-.1-.2-.1,0,0,0,.1-.1.1,0,0,0,.1-.1.2,0,.1-.2.1-.2.2s0,.1-.1.2h-.1c.4-.2.3-.2.3-.1h-.3c-.6-.2-1.1-.4-1.6-.5h.3c.1,0,0-.1,0-.1.1,0,.2.1.3.2.2.1.5.1.7.2.2,0,.3.2.5.2s.3-.1.4-.1h0c.1-.2.2-.3.2-.4v-.3h.1v-.5c.1,0,.1-.1.1-.1h0v-.3c0-.2,0-.4-.1-.5,0-.1-.1-.1-.2-.1,0,0,0,.1-.1.1s-.2,0-.2.1c0,0,0,0,0,0-.1.1-.2.2-.4.2s-.2,0-.2-.1c-.1-.2.2-.2.4-.2h.1c0-.2.1-.3.2-.3h.2c.1,0,.1-.1.2-.1,0,0,0-.1.1-.2,0-.1.1-.1.2-.2.1-.2.1-.4.2-.6.1-.1,0,.1.1.2s.2.1.3,0c.1-.1,0-.2.1-.2h.1c.1,0,.1.1.2.1,0,0,.1-.1.2-.1h.3c.2-.1.6,0,.6-.2,0-.3-.3-.6-.6-.7-.2-.1-.1-.4-.3-.6-.1,0,0-.1-.1-.2h-.1c0-.1-.1-.2-.1-.2v-.5c0-.1.1-.1.2-.1.1-.1.2-.1.2-.2v-.4h.1c.2-.1.5,0,.7-.2.1,0,.1-.1.1-.2.2-.2.4-.4.4-.8-.1.1,0,.1,0,0,.1.1.1,0,0,0M24.9,18.6s0,.1,0,0q-.1.1-.2,0c0-.1-.1-.1-.1-.2q-.1,0-.1.1h-.2c0-.1-.1-.1-.1-.2-.1-.1,0-.2.1-.2s.1,0,.1.1h0c.1.2.1.1.2.1h.3c0,.1.1.2,0,.3h0"/>
          <path id="Shape84" data-name="Shape" class="st0" d="M15.6,36c1.3-1.9,5.2-3.9,9-3.9s8,2.2,9.6,1c0,0-1.7,1.4-5.1,1.4s-4.7-1.7-7-1.7-4.8,1.9-5.9,3.5l-.6-.3Z"/>
          <path id="Shape85" data-name="Shape" class="st0" d="M27.7,31.8s1.1-.7,1.7-1.9c.6-1.2,2.1-3.2,3.7-4.4,0,0-1.7,5.5-3.5,5.7,0,0-.3.2.2.1s2.8-.9,3.6-1.1c.8-.1,2.8-.6,3.3-1.1.5-.4.8-.4.8-.4,0,0-2.2,3.7-6.2,3.7,0,0-2-.1-3.6-.6"/>
          <path id="Shape86" data-name="Shape" class="st0" d="M32.4,29.9s.4-.6.5-1.7.8-3.6,2.7-6.3c0,0,.3,4.3-1.9,7,0,0,0,.4,0,.1.3-.3,1.6-1.9,4.6-3.9,0,0,1.5-1.3,1.6-1.7,0,0-1.2,6.1-7.6,6.5"/>
          <path id="Shape87" data-name="Shape" class="st0" d="M36.1,25.8s.2-.7.2-1.3-.3-2.6-.3-3.5,0-2.6.8-3.7c0,0,0,1,.2,1.4s.5,2.2.5,2.5,0,1.7-.4,2.5c0,0,.3-.2.6-.8s1.1-1.7,2.2-2.8c1.1-1.1,1.4-2.1,1.4-2.1,0,0,.3,2-1.2,4.1s-2.1,1.8-2.9,2.6c0,0-1,1.1-1.1,1.1"/>
          <path id="Shape88" data-name="Shape" class="st0" d="M38.4,20.9s0-1.2-.3-1.6c-.2-.4-1.6-2.8-1.3-5.9,0,0,.2-.2.6,1,.4,1.2,1,1.6,1.2,2.8.2,1.2.2,1.7.2,1.7,0,0,0,.2,0,0s0-1.8.8-3.2c.7-1.5,1.6-2.9,1.5-3.9,0,0,.4,0,.3,1.6,0,1.6-.3,4.4-3.1,7.5"/>
          <path id="Shape89" data-name="Shape" class="st0" d="M39.2,16.1s-.5-1.1-.8-1.5-2.7-3.7-2.9-5.3c0,0,.2-.1.4.3.2.4,1.3,1.5,1.5,1.7s1.4,1.4,1.5,2.8c0,0,0,.1,0-2.1s.7-3.7,0-5.3c0,0,1.1.2,1.7,4.8,0,0,0,1.6-.9,3.6,0-.1-.2,1-.3,1"/>
          <path id="Shape90" data-name="Shape" class="st0" d="M38.3,11s-.9-.9-1.6-1.3c-.7-.4-2.9-2.6-3.3-4.3,0,0,0-.2.8.7.5.7,1.1.4,2.7,2.4,0,0,.2.5.3.4,0,0,0-.5,0-.5,0,0-.1-1.2-.1-1.6s-.7-2.8-.9-3.1c0,0,2.2,1.2,2.5,4.7,0,0-.2,2.5-.3,2.6"/>
          <path id="Shape91" data-name="Shape" class="st0" d="M36.5,7.3s0-3-3.8-4.6c0,0,1.4,2.8,2.4,3.5s1.4,1.1,1.4,1.1"/>
          <path id="Shape92" data-name="Shape" class="st0" d="M26.3,36c-1.3-1.9-5.2-3.9-9-3.9s-8,2.2-9.6,1c0,0,1.7,1.4,5.1,1.4s4.7-1.7,7-1.7,4.8,1.9,5.9,3.5l.6-.3Z"/>
          <path id="Shape93" data-name="Shape" class="st0" d="M14.2,31.8s-1.1-.7-1.7-1.9-2.1-3.2-3.7-4.4c0,0,1.7,5.5,3.5,5.7,0,0,.3.2-.2.1s-2.8-.9-3.6-1.1c-.8-.1-2.8-.6-3.3-1.1-.4-.4-.8-.4-.8-.4,0,0,2.2,3.7,6.2,3.7s2-.1,3.6-.6"/>
          <path id="Shape94" data-name="Shape" class="st0" d="M9.5,29.9s-.4-.6-.5-1.7-.8-3.6-2.7-6.3c0,0-.3,4.3,1.9,7,0,0,.1.4-.1.1-.3-.3-1.6-1.9-4.6-3.9,0,0-1.5-1.3-1.6-1.7,0,0,1.2,6.1,7.6,6.5"/>
          <path id="Shape95" data-name="Shape" class="st0" d="M5.8,25.8s-.2-.7-.2-1.3.3-2.6.3-3.5,0-2.6-.8-3.7c0,0,0,1-.2,1.4s-.5,2.2-.5,2.5,0,1.7.4,2.5c0,0-.3-.2-.6-.8-.3-.6-1.1-1.7-2.2-2.8s-1.4-2.1-1.4-2.1c0,0-.3,2,1.2,4.1,1.5,2.1,2.1,1.8,2.9,2.6,0,0,1,1.1,1.1,1.1"/>
          <path id="Shape96" data-name="Shape" class="st0" d="M3.5,20.9s0-1.2.3-1.6,1.6-2.8,1.3-5.9c0,0-.2-.2-.6,1s-1,1.6-1.2,2.8c-.3,1.2-.3,1.7-.3,1.7,0,0,0,.2,0,0s0-1.8-.8-3.2c-.7-1.5-1.6-2.9-1.5-3.9,0,0-.4,0-.3,1.6,0,1.6.4,4.4,3.2,7.5"/>
          <path id="Shape97" data-name="Shape" class="st0" d="M2.7,16.1s.5-1.1.8-1.5,2.7-3.7,2.9-5.3c0,0-.2-.1-.4.3s-1.3,1.5-1.5,1.7-1.4,1.4-1.5,2.8c0,0,0,.1,0-2.1.2-2.2-.7-3.7,0-5.3,0,0-1.1.2-1.7,4.8,0,0,0,1.6.9,3.6,0-.1.2,1,.3,1"/>
          <path id="Shape98" data-name="Shape" class="st0" d="M3.6,11s.9-.9,1.6-1.3c.7-.4,2.9-2.6,3.3-4.3,0,0-.1-.2-.8.7-.5.7-1.1.4-2.7,2.4,0,0-.2.5-.3.4,0,0,0-.5,0-.5,0,0,.3-1.3.3-1.7s.7-2.8.9-3.1c0,0-2.2,1.2-2.5,4.7,0,.1,0,2.6,0,2.7"/>
          <path id="Shape99" data-name="Shape" class="st0" d="M5.4,7.3s0-3,3.8-4.6c0,0-1.4,2.8-2.4,3.5s-1.4,1.1-1.4,1.1"/>
        </g>
      </g>
    </g>
  </g>
</svg>