<svg xmlns="http://www.w3.org/2000/svg" viewBox="0 0 42 48" id="datepicker" data-source="calendar modified">
  <path d="M40 6h-5v2.5c0 1.92-1.58 3.5-3.5 3.5S28 10.42 28 8.5V6H15v2.5c0 1.92-1.58 3.5-3.5 3.5S8 10.42 8 8.5V6H1.993C.9 6 0 6.9 0 7.993V46.007C0 47.1.9 48 1.993 48H40.007C41.1 48 42 47.1 42 46.007V7.993C42 6.9 41.1 6 40.007 6H40Zm-2 38H4V18h34v26Z"/>
  <path d="M11.498 10h.004C12.324 10 13 9.324 13 8.502V1.5c0-.823-.677-1.5-1.5-1.5S10 .677 10 1.5v7.002c0 .822.676 1.498 1.498 1.498Zm20 0h.004C32.324 10 33 9.324 33 8.502V1.5c0-.823-.677-1.5-1.5-1.5S30 .677 30 1.5v7.002c0 .822.676 1.498 1.498 1.498Z"/>
  <path d="M6 20h6v6H6zM14 20h6v6h-6zM22 20h6v6h-6zM30 20h6v6h-6zM6 28h6v6H6zM14 28h6v6h-6zM22 28h6v6h-6zM30 28h6v6h-6zM6 36h6v6H6zM14 36h6v6h-6zM22 36h6v6h-6zM30 36h6v6h-6z"/>
</svg>
